<?xml version="1.0" encoding="UTF-8" standalone="no"?>
<!DOCTYPE svg PUBLIC "-//W3C//DTD SVG 1.1//EN"
 "http://www.w3.org/Graphics/SVG/1.1/DTD/svg11.dtd">
<!-- Generated by graphviz version 2.38.0 (20140413.2041)
 -->
<!-- Title: src/animal/animal.h Pages: 1 -->
<svg width="357pt" height="84pt"
 viewBox="0.00 0.00 356.50 84.00" xmlns="http://www.w3.org/2000/svg" xmlns:xlink="http://www.w3.org/1999/xlink">
<g id="graph0" class="graph" transform="scale(1 1) rotate(0) translate(4 80)">
<title>src/animal/animal.h</title>
<!-- Node0 -->
<g id="node1" class="node"><title>Node0</title>
<polygon fill="#bfbfbf" stroke="black" points="84.5,-56.5 84.5,-75.5 185.5,-75.5 185.5,-56.5 84.5,-56.5"/>
<text text-anchor="middle" x="135" y="-63.5" font-family="Helvetica,sans-Serif" font-size="10.00">src/animal/animal.h</text>
</g>
<!-- Node1 -->
<g id="node2" class="node"><title>Node1</title>
<polygon fill="none" stroke="#bfbfbf" points="0,-0.5 0,-19.5 30,-19.5 30,-0.5 0,-0.5"/>
<text text-anchor="middle" x="15" y="-7.5" font-family="Helvetica,sans-Serif" font-size="10.00">set</text>
</g>
<!-- Node0&#45;&gt;Node1 -->
<g id="edge1" class="edge"><title>Node0&#45;&gt;Node1</title>
<path fill="none" stroke="midnightblue" d="M115.986,-56.4435C95.261,-47.1175 62.0397,-32.1679 39.4045,-21.982"/>
<polygon fill="midnightblue" stroke="midnightblue" points="40.6814,-18.7186 30.1259,-17.8067 37.8088,-25.1021 40.6814,-18.7186"/>
</g>
<!-- Node2 -->
<g id="node3" class="node"><title>Node2</title>
<polygon fill="none" stroke="#bfbfbf" points="48.5,-0.5 48.5,-19.5 89.5,-19.5 89.5,-0.5 48.5,-0.5"/>
<text text-anchor="middle" x="69" y="-7.5" font-family="Helvetica,sans-Serif" font-size="10.00">string</text>
</g>
<!-- Node0&#45;&gt;Node2 -->
<g id="edge2" class="edge"><title>Node0&#45;&gt;Node2</title>
<path fill="none" stroke="midnightblue" d="M124.396,-56.324C114.544,-48.2631 99.6491,-36.0765 87.7849,-26.3695"/>
<polygon fill="midnightblue" stroke="midnightblue" points="89.7529,-23.4575 79.797,-19.8339 85.3202,-28.8752 89.7529,-23.4575"/>
</g>
<!-- Node3 -->
<g id="node4" class="node"><title>Node3</title>
<polygon fill="none" stroke="#bfbfbf" points="108,-0.5 108,-19.5 162,-19.5 162,-0.5 108,-0.5"/>
<text text-anchor="middle" x="135" y="-7.5" font-family="Helvetica,sans-Serif" font-size="10.00">iostream</text>
</g>
<!-- Node0&#45;&gt;Node3 -->
<g id="edge3" class="edge"><title>Node0&#45;&gt;Node3</title>
<path fill="none" stroke="midnightblue" d="M135,-56.083C135,-49.0059 135,-38.8611 135,-29.9865"/>
<polygon fill="midnightblue" stroke="midnightblue" points="138.5,-29.751 135,-19.7511 131.5,-29.7511 138.5,-29.751"/>
</g>
<!-- Node4 -->
<g id="node5" class="node"><title>Node4</title>
<g id="a_node5"><a xlink:href="animalfood_8h.html" target="_top" xlink:title="animalfood.h">
<polygon fill="none" stroke="black" points="180.5,-0.5 180.5,-19.5 251.5,-19.5 251.5,-0.5 180.5,-0.5"/>
<text text-anchor="middle" x="216" y="-7.5" font-family="Helvetica,sans-Serif" font-size="10.00">animalfood.h</text>
</a>
</g>
</g>
<!-- Node0&#45;&gt;Node4 -->
<g id="edge4" class="edge"><title>Node0&#45;&gt;Node4</title>
<path fill="none" stroke="midnightblue" d="M148.014,-56.324C160.532,-47.979 179.682,-35.2122 194.471,-25.3524"/>
<polygon fill="midnightblue" stroke="midnightblue" points="196.639,-28.1137 203.018,-19.6545 192.756,-22.2894 196.639,-28.1137"/>
</g>
<!-- Node5 -->
<g id="node6" class="node"><title>Node5</title>
<g id="a_node6"><a xlink:href="point_8h.html" target="_top" xlink:title="../misc/point.h">
<polygon fill="none" stroke="black" points="269.5,-0.5 269.5,-19.5 348.5,-19.5 348.5,-0.5 269.5,-0.5"/>
<text text-anchor="middle" x="309" y="-7.5" font-family="Helvetica,sans-Serif" font-size="10.00">../misc/point.h</text>
</a>
</g>
</g>
<!-- Node0&#45;&gt;Node5 -->
<g id="edge5" class="edge"><title>Node0&#45;&gt;Node5</title>
<path fill="none" stroke="midnightblue" d="M162.571,-56.4435C192.097,-47.2801 239.118,-32.6876 271.883,-22.5192"/>
<polygon fill="midnightblue" stroke="midnightblue" points="273.045,-25.8232 281.558,-19.5164 270.97,-19.1378 273.045,-25.8232"/>
</g>
</g>
</svg>
