<?xml version="1.0" encoding="UTF-8" standalone="no"?>
<!DOCTYPE svg PUBLIC "-//W3C//DTD SVG 1.1//EN"
 "http://www.w3.org/Graphics/SVG/1.1/DTD/svg11.dtd">
<!-- Generated by graphviz version 2.38.0 (20140413.2041)
 -->
<!-- Title: src/animal/animal.h Pages: 1 -->
<svg width="284pt" height="274pt"
 viewBox="0.00 0.00 283.50 274.00" xmlns="http://www.w3.org/2000/svg" xmlns:xlink="http://www.w3.org/1999/xlink">
<g id="graph0" class="graph" transform="scale(1 1) rotate(0) translate(4 270)">
<title>src/animal/animal.h</title>
<!-- Node6 -->
<g id="node1" class="node"><title>Node6</title>
<polygon fill="#bfbfbf" stroke="black" points="89.5,-246.5 89.5,-265.5 190.5,-265.5 190.5,-246.5 89.5,-246.5"/>
<text text-anchor="middle" x="140" y="-253.5" font-family="Helvetica,sans-Serif" font-size="10.00">src/animal/animal.h</text>
</g>
<!-- Node7 -->
<g id="node2" class="node"><title>Node7</title>
<g id="a_node2"><a xlink:href="animal_8cpp.html" target="_top" xlink:title="src/animal/animal.cpp">
<polygon fill="none" stroke="black" points="0,-185 0,-204 112,-204 112,-185 0,-185"/>
<text text-anchor="middle" x="56" y="-192" font-family="Helvetica,sans-Serif" font-size="10.00">src/animal/animal.cpp</text>
</a>
</g>
</g>
<!-- Node6&#45;&gt;Node7 -->
<g id="edge1" class="edge"><title>Node6&#45;&gt;Node7</title>
<path fill="none" stroke="midnightblue" d="M119.689,-240.613C103.533,-229.169 81.4767,-213.546 68.0128,-204.009"/>
<polygon fill="midnightblue" stroke="midnightblue" points="117.782,-243.551 127.965,-246.475 121.828,-237.839 117.782,-243.551"/>
</g>
<!-- Node8 -->
<g id="node3" class="node"><title>Node8</title>
<g id="a_node3"><a xlink:href="zoo_8h.html" target="_top" xlink:title="src/zoo.h">
<polygon fill="none" stroke="black" points="111.5,-118 111.5,-137 168.5,-137 168.5,-118 111.5,-118"/>
<text text-anchor="middle" x="140" y="-125" font-family="Helvetica,sans-Serif" font-size="10.00">src/zoo.h</text>
</a>
</g>
</g>
<!-- Node6&#45;&gt;Node8 -->
<g id="edge2" class="edge"><title>Node6&#45;&gt;Node8</title>
<path fill="none" stroke="midnightblue" d="M140,-235.935C140,-208.124 140,-157.537 140,-137.256"/>
<polygon fill="midnightblue" stroke="midnightblue" points="136.5,-236.305 140,-246.305 143.5,-236.305 136.5,-236.305"/>
</g>
<!-- Node13 -->
<g id="node8" class="node"><title>Node13</title>
<g id="a_node8"><a xlink:href="cage_8h.html" target="_top" xlink:title="src/infrastructure\l/cage.h">
<polygon fill="none" stroke="black" points="168.5,-179.5 168.5,-209.5 257.5,-209.5 257.5,-179.5 168.5,-179.5"/>
<text text-anchor="start" x="176.5" y="-197.5" font-family="Helvetica,sans-Serif" font-size="10.00">src/infrastructure</text>
<text text-anchor="middle" x="213" y="-186.5" font-family="Helvetica,sans-Serif" font-size="10.00">/cage.h</text>
</a>
</g>
</g>
<!-- Node6&#45;&gt;Node13 -->
<g id="edge7" class="edge"><title>Node6&#45;&gt;Node13</title>
<path fill="none" stroke="midnightblue" d="M158.5,-239.921C169.962,-230.579 184.583,-218.662 195.795,-209.523"/>
<polygon fill="midnightblue" stroke="midnightblue" points="155.999,-237.444 150.459,-246.475 160.422,-242.87 155.999,-237.444"/>
</g>
<!-- Node9 -->
<g id="node4" class="node"><title>Node9</title>
<g id="a_node4"><a xlink:href="driver_8h.html" target="_top" xlink:title="src/driver.h">
<polygon fill="none" stroke="black" points="66,-56.5 66,-75.5 130,-75.5 130,-56.5 66,-56.5"/>
<text text-anchor="middle" x="98" y="-63.5" font-family="Helvetica,sans-Serif" font-size="10.00">src/driver.h</text>
</a>
</g>
</g>
<!-- Node8&#45;&gt;Node9 -->
<g id="edge3" class="edge"><title>Node8&#45;&gt;Node9</title>
<path fill="none" stroke="midnightblue" d="M128.004,-109.505C120.156,-98.388 110.24,-84.3395 104.006,-75.5091"/>
<polygon fill="midnightblue" stroke="midnightblue" points="125.356,-111.824 133.982,-117.975 131.075,-107.787 125.356,-111.824"/>
</g>
<!-- Node12 -->
<g id="node7" class="node"><title>Node12</title>
<g id="a_node7"><a xlink:href="zoo_8cpp.html" target="_top" xlink:title="src/zoo.cpp">
<polygon fill="none" stroke="black" points="148,-56.5 148,-75.5 216,-75.5 216,-56.5 148,-56.5"/>
<text text-anchor="middle" x="182" y="-63.5" font-family="Helvetica,sans-Serif" font-size="10.00">src/zoo.cpp</text>
</a>
</g>
</g>
<!-- Node8&#45;&gt;Node12 -->
<g id="edge6" class="edge"><title>Node8&#45;&gt;Node12</title>
<path fill="none" stroke="midnightblue" d="M151.996,-109.505C159.844,-98.388 169.76,-84.3395 175.994,-75.5091"/>
<polygon fill="midnightblue" stroke="midnightblue" points="148.925,-107.787 146.018,-117.975 154.644,-111.824 148.925,-107.787"/>
</g>
<!-- Node10 -->
<g id="node5" class="node"><title>Node10</title>
<g id="a_node5"><a xlink:href="driver_8cpp.html" target="_top" xlink:title="src/driver.cpp">
<polygon fill="none" stroke="black" points="15,-0.5 15,-19.5 89,-19.5 89,-0.5 15,-0.5"/>
<text text-anchor="middle" x="52" y="-7.5" font-family="Helvetica,sans-Serif" font-size="10.00">src/driver.cpp</text>
</a>
</g>
</g>
<!-- Node9&#45;&gt;Node10 -->
<g id="edge4" class="edge"><title>Node9&#45;&gt;Node10</title>
<path fill="none" stroke="midnightblue" d="M83.886,-48.4314C75.824,-38.9673 66.0408,-27.4827 59.4546,-19.7511"/>
<polygon fill="midnightblue" stroke="midnightblue" points="81.255,-50.7402 90.404,-56.083 86.5837,-46.2009 81.255,-50.7402"/>
</g>
<!-- Node11 -->
<g id="node6" class="node"><title>Node11</title>
<g id="a_node6"><a xlink:href="main_8cpp.html" target="_top" xlink:title="src/main.cpp">
<polygon fill="none" stroke="black" points="107.5,-0.5 107.5,-19.5 180.5,-19.5 180.5,-0.5 107.5,-0.5"/>
<text text-anchor="middle" x="144" y="-7.5" font-family="Helvetica,sans-Serif" font-size="10.00">src/main.cpp</text>
</a>
</g>
</g>
<!-- Node9&#45;&gt;Node11 -->
<g id="edge5" class="edge"><title>Node9&#45;&gt;Node11</title>
<path fill="none" stroke="midnightblue" d="M112.114,-48.4314C120.176,-38.9673 129.959,-27.4827 136.545,-19.7511"/>
<polygon fill="midnightblue" stroke="midnightblue" points="109.416,-46.2009 105.596,-56.083 114.745,-50.7402 109.416,-46.2009"/>
</g>
<!-- Node13&#45;&gt;Node8 -->
<g id="edge8" class="edge"><title>Node13&#45;&gt;Node8</title>
<path fill="none" stroke="midnightblue" d="M189.609,-172.672C176.13,-160.671 159.901,-146.22 149.765,-137.195"/>
<polygon fill="midnightblue" stroke="midnightblue" points="187.364,-175.36 197.16,-179.396 192.019,-170.132 187.364,-175.36"/>
</g>
<!-- Node14 -->
<g id="node9" class="node"><title>Node14</title>
<g id="a_node9"><a xlink:href="cage_8cpp.html" target="_top" xlink:title="src/infrastructure\l/cage.cpp">
<polygon fill="none" stroke="black" points="186.5,-112.5 186.5,-142.5 275.5,-142.5 275.5,-112.5 186.5,-112.5"/>
<text text-anchor="start" x="194.5" y="-130.5" font-family="Helvetica,sans-Serif" font-size="10.00">src/infrastructure</text>
<text text-anchor="middle" x="231" y="-119.5" font-family="Helvetica,sans-Serif" font-size="10.00">/cage.cpp</text>
</a>
</g>
</g>
<!-- Node13&#45;&gt;Node14 -->
<g id="edge9" class="edge"><title>Node13&#45;&gt;Node14</title>
<path fill="none" stroke="midnightblue" d="M219.592,-169.697C222.114,-160.587 224.91,-150.493 227.102,-142.577"/>
<polygon fill="midnightblue" stroke="midnightblue" points="216.202,-168.825 216.906,-179.396 222.948,-170.693 216.202,-168.825"/>
</g>
</g>
</svg>
