<?xml version="1.0" encoding="UTF-8" standalone="no"?>
<!DOCTYPE svg PUBLIC "-//W3C//DTD SVG 1.1//EN"
 "http://www.w3.org/Graphics/SVG/1.1/DTD/svg11.dtd">
<!-- Generated by graphviz version 2.38.0 (20140413.2041)
 -->
<!-- Title: src/infrastructure/cage.h Pages: 1 -->
<svg width="357pt" height="151pt"
 viewBox="0.00 0.00 356.50 151.00" xmlns="http://www.w3.org/2000/svg" xmlns:xlink="http://www.w3.org/1999/xlink">
<g id="graph0" class="graph" transform="scale(1 1) rotate(0) translate(4 147)">
<title>src/infrastructure/cage.h</title>
<!-- Node0 -->
<g id="node1" class="node"><title>Node0</title>
<polygon fill="#bfbfbf" stroke="black" points="80.5,-112.5 80.5,-142.5 169.5,-142.5 169.5,-112.5 80.5,-112.5"/>
<text text-anchor="start" x="88.5" y="-130.5" font-family="Helvetica,sans-Serif" font-size="10.00">src/infrastructure</text>
<text text-anchor="middle" x="125" y="-119.5" font-family="Helvetica,sans-Serif" font-size="10.00">/cage.h</text>
</g>
<!-- Node1 -->
<g id="node2" class="node"><title>Node1</title>
<polygon fill="none" stroke="#bfbfbf" points="0,-0.5 0,-19.5 30,-19.5 30,-0.5 0,-0.5"/>
<text text-anchor="middle" x="15" y="-7.5" font-family="Helvetica,sans-Serif" font-size="10.00">set</text>
</g>
<!-- Node0&#45;&gt;Node1 -->
<g id="edge1" class="edge"><title>Node0&#45;&gt;Node1</title>
<path fill="none" stroke="midnightblue" d="M111.512,-112.337C90.9718,-90.7704 51.9647,-49.8129 30.3617,-27.1298"/>
<polygon fill="midnightblue" stroke="midnightblue" points="32.6877,-24.4971 23.2566,-19.6695 27.6187,-29.3247 32.6877,-24.4971"/>
</g>
<!-- Node2 -->
<g id="node3" class="node"><title>Node2</title>
<polygon fill="none" stroke="#bfbfbf" points="228,-56.5 228,-75.5 270,-75.5 270,-56.5 228,-56.5"/>
<text text-anchor="middle" x="249" y="-63.5" font-family="Helvetica,sans-Serif" font-size="10.00">vector</text>
</g>
<!-- Node0&#45;&gt;Node2 -->
<g id="edge2" class="edge"><title>Node0&#45;&gt;Node2</title>
<path fill="none" stroke="midnightblue" d="M154.386,-112.399C174.82,-102.595 201.86,-89.6194 221.799,-80.052"/>
<polygon fill="midnightblue" stroke="midnightblue" points="223.455,-83.1395 230.957,-75.6578 220.427,-76.8284 223.455,-83.1395"/>
</g>
<!-- Node3 -->
<g id="node4" class="node"><title>Node3</title>
<g id="a_node4"><a xlink:href="point_8h.html" target="_top" xlink:title="../misc/point.h">
<polygon fill="none" stroke="black" points="48.5,-0.5 48.5,-19.5 127.5,-19.5 127.5,-0.5 48.5,-0.5"/>
<text text-anchor="middle" x="88" y="-7.5" font-family="Helvetica,sans-Serif" font-size="10.00">../misc/point.h</text>
</a>
</g>
</g>
<!-- Node0&#45;&gt;Node3 -->
<g id="edge3" class="edge"><title>Node0&#45;&gt;Node3</title>
<path fill="none" stroke="midnightblue" d="M119.736,-112.426C116.024,-102.337 111.017,-88.396 107,-76 101.96,-60.4468 96.7888,-42.6108 93.1164,-29.5615"/>
<polygon fill="midnightblue" stroke="midnightblue" points="96.475,-28.5752 90.4199,-19.8811 89.7318,-30.4536 96.475,-28.5752"/>
</g>
<!-- Node4 -->
<g id="node5" class="node"><title>Node4</title>
<g id="a_node5"><a xlink:href="animal_8h.html" target="_top" xlink:title="../animal/animal.h">
<polygon fill="none" stroke="black" points="116,-56.5 116,-75.5 210,-75.5 210,-56.5 116,-56.5"/>
<text text-anchor="middle" x="163" y="-63.5" font-family="Helvetica,sans-Serif" font-size="10.00">../animal/animal.h</text>
</a>
</g>
</g>
<!-- Node0&#45;&gt;Node4 -->
<g id="edge4" class="edge"><title>Node0&#45;&gt;Node4</title>
<path fill="none" stroke="midnightblue" d="M134.005,-112.399C139.413,-103.932 146.332,-93.0991 152.054,-84.1393"/>
<polygon fill="midnightblue" stroke="midnightblue" points="155.038,-85.9695 157.471,-75.6578 149.138,-82.2018 155.038,-85.9695"/>
</g>
<!-- Node4&#45;&gt;Node1 -->
<g id="edge5" class="edge"><title>Node4&#45;&gt;Node1</title>
<path fill="none" stroke="midnightblue" d="M139.201,-56.4482C116.023,-48.1012 79.5671,-34.9239 39.6202,-20.204"/>
<polygon fill="midnightblue" stroke="midnightblue" points="40.8197,-16.916 30.2263,-16.7377 38.3963,-23.4832 40.8197,-16.916"/>
</g>
<!-- Node4&#45;&gt;Node3 -->
<g id="edge9" class="edge"><title>Node4&#45;&gt;Node3</title>
<path fill="none" stroke="midnightblue" d="M150.95,-56.324C139.537,-48.1066 122.169,-35.6017 108.565,-25.8069"/>
<polygon fill="midnightblue" stroke="midnightblue" points="110.43,-22.8366 100.269,-19.8339 106.34,-28.5174 110.43,-22.8366"/>
</g>
<!-- Node5 -->
<g id="node6" class="node"><title>Node5</title>
<polygon fill="none" stroke="#bfbfbf" points="145.5,-0.5 145.5,-19.5 186.5,-19.5 186.5,-0.5 145.5,-0.5"/>
<text text-anchor="middle" x="166" y="-7.5" font-family="Helvetica,sans-Serif" font-size="10.00">string</text>
</g>
<!-- Node4&#45;&gt;Node5 -->
<g id="edge6" class="edge"><title>Node4&#45;&gt;Node5</title>
<path fill="none" stroke="midnightblue" d="M163.495,-56.083C163.889,-49.0059 164.452,-38.8611 164.945,-29.9865"/>
<polygon fill="midnightblue" stroke="midnightblue" points="168.454,-29.9299 165.514,-19.7511 161.464,-29.5415 168.454,-29.9299"/>
</g>
<!-- Node6 -->
<g id="node7" class="node"><title>Node6</title>
<polygon fill="none" stroke="#bfbfbf" points="205,-0.5 205,-19.5 259,-19.5 259,-0.5 205,-0.5"/>
<text text-anchor="middle" x="232" y="-7.5" font-family="Helvetica,sans-Serif" font-size="10.00">iostream</text>
</g>
<!-- Node4&#45;&gt;Node6 -->
<g id="edge7" class="edge"><title>Node4&#45;&gt;Node6</title>
<path fill="none" stroke="midnightblue" d="M174.086,-56.324C184.486,-48.1849 200.261,-35.8395 212.722,-26.0874"/>
<polygon fill="midnightblue" stroke="midnightblue" points="214.994,-28.7533 220.712,-19.8339 210.68,-23.2407 214.994,-28.7533"/>
</g>
<!-- Node7 -->
<g id="node8" class="node"><title>Node7</title>
<g id="a_node8"><a xlink:href="animalfood_8h.html" target="_top" xlink:title="animalfood.h">
<polygon fill="none" stroke="black" points="277.5,-0.5 277.5,-19.5 348.5,-19.5 348.5,-0.5 277.5,-0.5"/>
<text text-anchor="middle" x="313" y="-7.5" font-family="Helvetica,sans-Serif" font-size="10.00">animalfood.h</text>
</a>
</g>
</g>
<!-- Node4&#45;&gt;Node7 -->
<g id="edge8" class="edge"><title>Node4&#45;&gt;Node7</title>
<path fill="none" stroke="midnightblue" d="M186.768,-56.4435C211.893,-47.3986 251.711,-33.064 279.9,-22.9158"/>
<polygon fill="midnightblue" stroke="midnightblue" points="281.12,-26.1968 289.343,-19.5164 278.749,-19.6106 281.12,-26.1968"/>
</g>
</g>
</svg>
