<?xml version="1.0" encoding="UTF-8" standalone="no"?>
<!DOCTYPE svg PUBLIC "-//W3C//DTD SVG 1.1//EN"
 "http://www.w3.org/Graphics/SVG/1.1/DTD/svg11.dtd">
<!-- Generated by graphviz version 2.38.0 (20140413.2041)
 -->
<!-- Title: src/infrastructure/cage.cpp Pages: 1 -->
<svg width="376pt" height="207pt"
 viewBox="0.00 0.00 376.00 207.00" xmlns="http://www.w3.org/2000/svg" xmlns:xlink="http://www.w3.org/1999/xlink">
<g id="graph0" class="graph" transform="scale(1 1) rotate(0) translate(4 203)">
<title>src/infrastructure/cage.cpp</title>
<!-- Node0 -->
<g id="node1" class="node"><title>Node0</title>
<polygon fill="#bfbfbf" stroke="black" points="37,-168.5 37,-198.5 126,-198.5 126,-168.5 37,-168.5"/>
<text text-anchor="start" x="45" y="-186.5" font-family="Helvetica,sans-Serif" font-size="10.00">src/infrastructure</text>
<text text-anchor="middle" x="81.5" y="-175.5" font-family="Helvetica,sans-Serif" font-size="10.00">/cage.cpp</text>
</g>
<!-- Node1 -->
<g id="node2" class="node"><title>Node1</title>
<polygon fill="none" stroke="#bfbfbf" points="0,-112.5 0,-131.5 41,-131.5 41,-112.5 0,-112.5"/>
<text text-anchor="middle" x="20.5" y="-119.5" font-family="Helvetica,sans-Serif" font-size="10.00">ctime</text>
</g>
<!-- Node0&#45;&gt;Node1 -->
<g id="edge1" class="edge"><title>Node0&#45;&gt;Node1</title>
<path fill="none" stroke="midnightblue" d="M67.0439,-168.399C57.9057,-159.486 46.0814,-147.952 36.6376,-138.741"/>
<polygon fill="midnightblue" stroke="midnightblue" points="38.9785,-136.135 29.376,-131.658 34.0907,-141.146 38.9785,-136.135"/>
</g>
<!-- Node2 -->
<g id="node3" class="node"><title>Node2</title>
<polygon fill="none" stroke="#bfbfbf" points="59,-112.5 59,-131.5 104,-131.5 104,-112.5 59,-112.5"/>
<text text-anchor="middle" x="81.5" y="-119.5" font-family="Helvetica,sans-Serif" font-size="10.00">cstdlib</text>
</g>
<!-- Node0&#45;&gt;Node2 -->
<g id="edge2" class="edge"><title>Node0&#45;&gt;Node2</title>
<path fill="none" stroke="midnightblue" d="M81.5,-168.399C81.5,-160.466 81.5,-150.458 81.5,-141.858"/>
<polygon fill="midnightblue" stroke="midnightblue" points="85.0001,-141.658 81.5,-131.658 78.0001,-141.658 85.0001,-141.658"/>
</g>
<!-- Node3 -->
<g id="node4" class="node"><title>Node3</title>
<g id="a_node4"><a xlink:href="cage_8h.html" target="_top" xlink:title="cage.h">
<polygon fill="none" stroke="black" points="122.5,-112.5 122.5,-131.5 168.5,-131.5 168.5,-112.5 122.5,-112.5"/>
<text text-anchor="middle" x="145.5" y="-119.5" font-family="Helvetica,sans-Serif" font-size="10.00">cage.h</text>
</a>
</g>
</g>
<!-- Node0&#45;&gt;Node3 -->
<g id="edge3" class="edge"><title>Node0&#45;&gt;Node3</title>
<path fill="none" stroke="midnightblue" d="M96.6671,-168.399C106.255,-159.486 118.661,-147.952 128.569,-138.741"/>
<polygon fill="midnightblue" stroke="midnightblue" points="131.247,-141.03 136.187,-131.658 126.48,-135.903 131.247,-141.03"/>
</g>
<!-- Node4 -->
<g id="node5" class="node"><title>Node4</title>
<polygon fill="none" stroke="#bfbfbf" points="19.5,-0.5 19.5,-19.5 49.5,-19.5 49.5,-0.5 19.5,-0.5"/>
<text text-anchor="middle" x="34.5" y="-7.5" font-family="Helvetica,sans-Serif" font-size="10.00">set</text>
</g>
<!-- Node3&#45;&gt;Node4 -->
<g id="edge4" class="edge"><title>Node3&#45;&gt;Node4</title>
<path fill="none" stroke="midnightblue" d="M136.79,-112.368C118.148,-93.8941 74.1498,-50.2926 50.3867,-26.7436"/>
<polygon fill="midnightblue" stroke="midnightblue" points="52.7362,-24.1444 43.1695,-19.5914 47.8089,-29.1165 52.7362,-24.1444"/>
</g>
<!-- Node5 -->
<g id="node6" class="node"><title>Node5</title>
<polygon fill="none" stroke="#bfbfbf" points="247.5,-56.5 247.5,-75.5 289.5,-75.5 289.5,-56.5 247.5,-56.5"/>
<text text-anchor="middle" x="268.5" y="-63.5" font-family="Helvetica,sans-Serif" font-size="10.00">vector</text>
</g>
<!-- Node3&#45;&gt;Node5 -->
<g id="edge5" class="edge"><title>Node3&#45;&gt;Node5</title>
<path fill="none" stroke="midnightblue" d="M164.99,-112.444C185.142,-103.596 216.823,-89.6875 239.831,-79.5865"/>
<polygon fill="midnightblue" stroke="midnightblue" points="241.352,-82.7411 249.101,-75.5164 238.538,-76.3316 241.352,-82.7411"/>
</g>
<!-- Node6 -->
<g id="node7" class="node"><title>Node6</title>
<g id="a_node7"><a xlink:href="point_8h.html" target="_top" xlink:title="../misc/point.h">
<polygon fill="none" stroke="black" points="68,-0.5 68,-19.5 147,-19.5 147,-0.5 68,-0.5"/>
<text text-anchor="middle" x="107.5" y="-7.5" font-family="Helvetica,sans-Serif" font-size="10.00">../misc/point.h</text>
</a>
</g>
</g>
<!-- Node3&#45;&gt;Node6 -->
<g id="edge6" class="edge"><title>Node3&#45;&gt;Node6</title>
<path fill="none" stroke="midnightblue" d="M141.559,-112.489C137.492,-103.525 131.107,-88.9427 126.5,-76 120.956,-60.424 115.77,-42.3467 112.221,-29.2161"/>
<polygon fill="midnightblue" stroke="midnightblue" points="115.595,-28.2851 109.653,-19.5133 108.828,-30.076 115.595,-28.2851"/>
</g>
<!-- Node7 -->
<g id="node8" class="node"><title>Node7</title>
<g id="a_node8"><a xlink:href="animal_8h.html" target="_top" xlink:title="../animal/animal.h">
<polygon fill="none" stroke="black" points="135.5,-56.5 135.5,-75.5 229.5,-75.5 229.5,-56.5 135.5,-56.5"/>
<text text-anchor="middle" x="182.5" y="-63.5" font-family="Helvetica,sans-Serif" font-size="10.00">../animal/animal.h</text>
</a>
</g>
</g>
<!-- Node3&#45;&gt;Node7 -->
<g id="edge7" class="edge"><title>Node3&#45;&gt;Node7</title>
<path fill="none" stroke="midnightblue" d="M151.61,-112.083C156.782,-104.534 164.346,-93.4948 170.694,-84.2298"/>
<polygon fill="midnightblue" stroke="midnightblue" points="173.739,-85.9787 176.504,-75.7511 167.964,-82.0221 173.739,-85.9787"/>
</g>
<!-- Node7&#45;&gt;Node4 -->
<g id="edge8" class="edge"><title>Node7&#45;&gt;Node4</title>
<path fill="none" stroke="midnightblue" d="M158.701,-56.4482C135.523,-48.1012 99.0671,-34.9239 59.1202,-20.204"/>
<polygon fill="midnightblue" stroke="midnightblue" points="60.3197,-16.916 49.7263,-16.7377 57.8963,-23.4832 60.3197,-16.916"/>
</g>
<!-- Node7&#45;&gt;Node6 -->
<g id="edge12" class="edge"><title>Node7&#45;&gt;Node6</title>
<path fill="none" stroke="midnightblue" d="M170.45,-56.324C159.037,-48.1066 141.669,-35.6017 128.065,-25.8069"/>
<polygon fill="midnightblue" stroke="midnightblue" points="129.93,-22.8366 119.769,-19.8339 125.84,-28.5174 129.93,-22.8366"/>
</g>
<!-- Node8 -->
<g id="node9" class="node"><title>Node8</title>
<polygon fill="none" stroke="#bfbfbf" points="165,-0.5 165,-19.5 206,-19.5 206,-0.5 165,-0.5"/>
<text text-anchor="middle" x="185.5" y="-7.5" font-family="Helvetica,sans-Serif" font-size="10.00">string</text>
</g>
<!-- Node7&#45;&gt;Node8 -->
<g id="edge9" class="edge"><title>Node7&#45;&gt;Node8</title>
<path fill="none" stroke="midnightblue" d="M182.995,-56.083C183.389,-49.0059 183.952,-38.8611 184.445,-29.9865"/>
<polygon fill="midnightblue" stroke="midnightblue" points="187.954,-29.9299 185.014,-19.7511 180.964,-29.5415 187.954,-29.9299"/>
</g>
<!-- Node9 -->
<g id="node10" class="node"><title>Node9</title>
<polygon fill="none" stroke="#bfbfbf" points="224.5,-0.5 224.5,-19.5 278.5,-19.5 278.5,-0.5 224.5,-0.5"/>
<text text-anchor="middle" x="251.5" y="-7.5" font-family="Helvetica,sans-Serif" font-size="10.00">iostream</text>
</g>
<!-- Node7&#45;&gt;Node9 -->
<g id="edge10" class="edge"><title>Node7&#45;&gt;Node9</title>
<path fill="none" stroke="midnightblue" d="M193.586,-56.324C203.986,-48.1849 219.761,-35.8395 232.222,-26.0874"/>
<polygon fill="midnightblue" stroke="midnightblue" points="234.494,-28.7533 240.212,-19.8339 230.18,-23.2407 234.494,-28.7533"/>
</g>
<!-- Node10 -->
<g id="node11" class="node"><title>Node10</title>
<g id="a_node11"><a xlink:href="animalfood_8h.html" target="_top" xlink:title="animalfood.h">
<polygon fill="none" stroke="black" points="297,-0.5 297,-19.5 368,-19.5 368,-0.5 297,-0.5"/>
<text text-anchor="middle" x="332.5" y="-7.5" font-family="Helvetica,sans-Serif" font-size="10.00">animalfood.h</text>
</a>
</g>
</g>
<!-- Node7&#45;&gt;Node10 -->
<g id="edge11" class="edge"><title>Node7&#45;&gt;Node10</title>
<path fill="none" stroke="midnightblue" d="M206.268,-56.4435C231.393,-47.3986 271.211,-33.064 299.4,-22.9158"/>
<polygon fill="midnightblue" stroke="midnightblue" points="300.62,-26.1968 308.843,-19.5164 298.249,-19.6106 300.62,-26.1968"/>
</g>
</g>
</svg>
