<?xml version="1.0" encoding="UTF-8" standalone="no"?>
<!DOCTYPE svg PUBLIC "-//W3C//DTD SVG 1.1//EN"
 "http://www.w3.org/Graphics/SVG/1.1/DTD/svg11.dtd">
<!-- Generated by graphviz version 2.38.0 (20140413.2041)
 -->
<!-- Title: Person::SetPosition Pages: 1 -->
<svg width="520pt" height="66pt"
 viewBox="0.00 0.00 520.00 66.00" xmlns="http://www.w3.org/2000/svg" xmlns:xlink="http://www.w3.org/1999/xlink">
<g id="graph0" class="graph" transform="scale(1 1) rotate(0) translate(4 62)">
<title>Person::SetPosition</title>
<!-- Node31 -->
<g id="node1" class="node"><title>Node31</title>
<polygon fill="#bfbfbf" stroke="black" points="0,-19.5 0,-38.5 104,-38.5 104,-19.5 0,-19.5"/>
<text text-anchor="middle" x="52" y="-26.5" font-family="Helvetica,sans-Serif" font-size="10.00">Person::SetPosition</text>
</g>
<!-- Node32 -->
<g id="node2" class="node"><title>Node32</title>
<g id="a_node2"><a xlink:href="class_driver.html#ad9677d7807a61f0a169268f3a30b40fc" target="_top" xlink:title="Menghitung jumlah makanan yang dibutuhkan. Menghitung dan menampilkan jumlah makanan yang dikonsumsi ...">
<polygon fill="none" stroke="black" points="290,-38.5 290,-57.5 405,-57.5 405,-38.5 290,-38.5"/>
<text text-anchor="middle" x="347.5" y="-45.5" font-family="Helvetica,sans-Serif" font-size="10.00">Driver::ConsumedFood</text>
</a>
</g>
</g>
<!-- Node31&#45;&gt;Node32 -->
<g id="edge1" class="edge"><title>Node31&#45;&gt;Node32</title>
<path fill="none" stroke="midnightblue" d="M114.173,-32.9601C165.94,-36.3113 239.546,-41.0762 289.954,-44.3394"/>
<polygon fill="midnightblue" stroke="midnightblue" points="114.329,-29.463 104.124,-32.3095 113.877,-36.4483 114.329,-29.463"/>
</g>
<!-- Node34 -->
<g id="node4" class="node"><title>Node34</title>
<g id="a_node4"><a xlink:href="class_person.html#aef5cd7ad333ebfc53df29097125fb199" target="_top" xlink:title="Mengembalikan nilai posisi menjadi default. Mengubah posisi person menjadi (&#45;1,&#45;1) ...">
<polygon fill="none" stroke="black" points="140,-0.5 140,-19.5 254,-19.5 254,-0.5 140,-0.5"/>
<text text-anchor="middle" x="197" y="-7.5" font-family="Helvetica,sans-Serif" font-size="10.00">Person::ResetPosition</text>
</a>
</g>
</g>
<!-- Node31&#45;&gt;Node34 -->
<g id="edge3" class="edge"><title>Node31&#45;&gt;Node34</title>
<path fill="none" stroke="midnightblue" d="M114.39,-20.8433C122.83,-19.7218 131.463,-18.5749 139.803,-17.4667"/>
<polygon fill="midnightblue" stroke="midnightblue" points="113.674,-17.4075 104.222,-22.1942 114.596,-24.3466 113.674,-17.4075"/>
</g>
<!-- Node33 -->
<g id="node3" class="node"><title>Node33</title>
<g id="a_node3"><a xlink:href="class_driver.html#af0658d103e3e810a8e9ef0a53bb2e261" target="_top" xlink:title="Constructor Menciptakan driver yang berisi menu utama. ">
<polygon fill="none" stroke="black" points="441,-38.5 441,-57.5 512,-57.5 512,-38.5 441,-38.5"/>
<text text-anchor="middle" x="476.5" y="-45.5" font-family="Helvetica,sans-Serif" font-size="10.00">Driver::Driver</text>
</a>
</g>
</g>
<!-- Node32&#45;&gt;Node33 -->
<g id="edge2" class="edge"><title>Node32&#45;&gt;Node33</title>
<path fill="none" stroke="midnightblue" d="M415.319,-48C424.182,-48 432.958,-48 440.954,-48"/>
<polygon fill="midnightblue" stroke="midnightblue" points="415.314,-44.5001 405.314,-48 415.314,-51.5001 415.314,-44.5001"/>
</g>
<!-- Node34&#45;&gt;Node32 -->
<g id="edge4" class="edge"><title>Node34&#45;&gt;Node32</title>
<path fill="none" stroke="midnightblue" d="M245.333,-22.1121C266.015,-27.4044 289.919,-33.5213 309.297,-38.4799"/>
<polygon fill="midnightblue" stroke="midnightblue" points="246.028,-18.6774 235.473,-19.589 244.293,-25.4589 246.028,-18.6774"/>
</g>
<!-- Node35 -->
<g id="node5" class="node"><title>Node35</title>
<g id="a_node5"><a xlink:href="class_person.html#a0397c6f89fafc12e738923f612bc41a3" target="_top" xlink:title="Constructor Menciptakan person default pada posisi (&#45;1,&#45;1). ">
<polygon fill="none" stroke="black" points="305.5,-0.5 305.5,-19.5 389.5,-19.5 389.5,-0.5 305.5,-0.5"/>
<text text-anchor="middle" x="347.5" y="-7.5" font-family="Helvetica,sans-Serif" font-size="10.00">Person::Person</text>
</a>
</g>
</g>
<!-- Node34&#45;&gt;Node35 -->
<g id="edge5" class="edge"><title>Node34&#45;&gt;Node35</title>
<path fill="none" stroke="midnightblue" d="M264.18,-10C278.098,-10 292.398,-10 305.094,-10"/>
<polygon fill="midnightblue" stroke="midnightblue" points="264.142,-6.5001 254.141,-10 264.141,-13.5001 264.142,-6.5001"/>
</g>
</g>
</svg>
