<?xml version="1.0" encoding="UTF-8" standalone="no"?>
<!DOCTYPE svg PUBLIC "-//W3C//DTD SVG 1.1//EN"
 "http://www.w3.org/Graphics/SVG/1.1/DTD/svg11.dtd">
<!-- Generated by graphviz version 2.38.0 (20140413.2041)
 -->
<!-- Title: Driver::DisplayZoo Pages: 1 -->
<svg width="348pt" height="180pt"
 viewBox="0.00 0.00 348.00 180.00" xmlns="http://www.w3.org/2000/svg" xmlns:xlink="http://www.w3.org/1999/xlink">
<g id="graph0" class="graph" transform="scale(1 1) rotate(0) translate(4 176)">
<title>Driver::DisplayZoo</title>
<!-- Node56 -->
<g id="node1" class="node"><title>Node56</title>
<polygon fill="#bfbfbf" stroke="black" points="0,-57.5 0,-76.5 95,-76.5 95,-57.5 0,-57.5"/>
<text text-anchor="middle" x="47.5" y="-64.5" font-family="Helvetica,sans-Serif" font-size="10.00">Driver::DisplayZoo</text>
</g>
<!-- Node57 -->
<g id="node2" class="node"><title>Node57</title>
<g id="a_node2"><a xlink:href="class_zoo.html#a63315b0cdc36e0cbefb3f0c4956392f7" target="_top" xlink:title="Melakukan proses render untuk seisi zoo. ">
<polygon fill="none" stroke="black" points="131,-76.5 131,-95.5 200,-95.5 200,-76.5 131,-76.5"/>
<text text-anchor="middle" x="165.5" y="-83.5" font-family="Helvetica,sans-Serif" font-size="10.00">Zoo::Render</text>
</a>
</g>
</g>
<!-- Node56&#45;&gt;Node57 -->
<g id="edge1" class="edge"><title>Node56&#45;&gt;Node57</title>
<path fill="none" stroke="midnightblue" d="M95.0133,-74.6185C103.527,-76.0131 112.386,-77.464 120.814,-78.8445"/>
<polygon fill="midnightblue" stroke="midnightblue" points="120.394,-82.3224 130.829,-80.4849 121.526,-75.4144 120.394,-82.3224"/>
</g>
<!-- Node63 -->
<g id="node8" class="node"><title>Node63</title>
<g id="a_node8"><a xlink:href="class_zoo.html#aeeb130ce2285d8931562da0668e728a3" target="_top" xlink:title="Menampilkan hasil render zoo ke layar. ">
<polygon fill="none" stroke="black" points="136,-38.5 136,-57.5 195,-57.5 195,-38.5 136,-38.5"/>
<text text-anchor="middle" x="165.5" y="-45.5" font-family="Helvetica,sans-Serif" font-size="10.00">Zoo::Print</text>
</a>
</g>
</g>
<!-- Node56&#45;&gt;Node63 -->
<g id="edge7" class="edge"><title>Node56&#45;&gt;Node63</title>
<path fill="none" stroke="midnightblue" d="M95.0133,-59.3815C105.212,-57.711 115.903,-55.9598 125.758,-54.3456"/>
<polygon fill="midnightblue" stroke="midnightblue" points="126.367,-57.7926 135.67,-52.7222 125.236,-50.8847 126.367,-57.7926"/>
</g>
<!-- Node58 -->
<g id="node3" class="node"><title>Node58</title>
<g id="a_node3"><a xlink:href="class_cell.html#a895618150a1046638c30f24c23807727" target="_top" xlink:title="Mengembalikan character untuk proses render. ">
<polygon fill="none" stroke="black" points="253,-152.5 253,-171.5 323,-171.5 323,-152.5 253,-152.5"/>
<text text-anchor="middle" x="288" y="-159.5" font-family="Helvetica,sans-Serif" font-size="10.00">Cell::Render</text>
</a>
</g>
</g>
<!-- Node57&#45;&gt;Node58 -->
<g id="edge2" class="edge"><title>Node57&#45;&gt;Node58</title>
<path fill="none" stroke="midnightblue" d="M176.078,-95.6326C188.813,-107.998 212.46,-129.467 236,-143 239.449,-144.983 243.144,-146.828 246.91,-148.526"/>
<polygon fill="midnightblue" stroke="midnightblue" points="245.74,-151.83 256.317,-152.441 248.43,-145.368 245.74,-151.83"/>
</g>
<!-- Node59 -->
<g id="node4" class="node"><title>Node59</title>
<g id="a_node4"><a xlink:href="class_point.html#a28eaaae3447a8d5485a690196eb6d8da" target="_top" xlink:title="Getter nilai ordinat. ">
<polygon fill="none" stroke="black" points="254,-114.5 254,-133.5 322,-133.5 322,-114.5 254,-114.5"/>
<text text-anchor="middle" x="288" y="-121.5" font-family="Helvetica,sans-Serif" font-size="10.00">Point::GetY</text>
</a>
</g>
</g>
<!-- Node57&#45;&gt;Node59 -->
<g id="edge3" class="edge"><title>Node57&#45;&gt;Node59</title>
<path fill="none" stroke="midnightblue" d="M196.907,-95.589C212.035,-100.359 230.52,-106.189 246.8,-111.323"/>
<polygon fill="midnightblue" stroke="midnightblue" points="246.013,-114.744 256.602,-114.414 248.118,-108.069 246.013,-114.744"/>
</g>
<!-- Node60 -->
<g id="node5" class="node"><title>Node60</title>
<g id="a_node5"><a xlink:href="class_point.html#a1df5f9a8e3606705ebeec25384f58f8b" target="_top" xlink:title="Getter nilai absis. ">
<polygon fill="none" stroke="black" points="255,-76.5 255,-95.5 321,-95.5 321,-76.5 255,-76.5"/>
<text text-anchor="middle" x="288" y="-83.5" font-family="Helvetica,sans-Serif" font-size="10.00">Point::GetX</text>
</a>
</g>
</g>
<!-- Node57&#45;&gt;Node60 -->
<g id="edge4" class="edge"><title>Node57&#45;&gt;Node60</title>
<path fill="none" stroke="midnightblue" d="M200.066,-86C213.851,-86 229.972,-86 244.561,-86"/>
<polygon fill="midnightblue" stroke="midnightblue" points="244.859,-89.5001 254.859,-86 244.859,-82.5001 244.859,-89.5001"/>
</g>
<!-- Node61 -->
<g id="node6" class="node"><title>Node61</title>
<g id="a_node6"><a xlink:href="class_person.html#a011a8222d921f3a5d2acfb29904104ee" target="_top" xlink:title="Getter nilai position. ">
<polygon fill="none" stroke="black" points="236,-38.5 236,-57.5 340,-57.5 340,-38.5 236,-38.5"/>
<text text-anchor="middle" x="288" y="-45.5" font-family="Helvetica,sans-Serif" font-size="10.00">Person::GetPosition</text>
</a>
</g>
</g>
<!-- Node57&#45;&gt;Node61 -->
<g id="edge5" class="edge"><title>Node57&#45;&gt;Node61</title>
<path fill="none" stroke="midnightblue" d="M196.907,-76.411C212.035,-71.6406 230.52,-65.8112 246.8,-60.6771"/>
<polygon fill="midnightblue" stroke="midnightblue" points="248.118,-63.9315 256.602,-57.5859 246.013,-57.2556 248.118,-63.9315"/>
</g>
<!-- Node62 -->
<g id="node7" class="node"><title>Node62</title>
<g id="a_node7"><a xlink:href="class_person.html#ae0eaa14a3a6e8008ccd681f237acd804" target="_top" xlink:title="Mengembalikan character untuk proses render. ">
<polygon fill="none" stroke="black" points="246,-0.5 246,-19.5 330,-19.5 330,-0.5 246,-0.5"/>
<text text-anchor="middle" x="288" y="-7.5" font-family="Helvetica,sans-Serif" font-size="10.00">Person::Render</text>
</a>
</g>
</g>
<!-- Node57&#45;&gt;Node62 -->
<g id="edge6" class="edge"><title>Node57&#45;&gt;Node62</title>
<path fill="none" stroke="midnightblue" d="M185.557,-76.483C190.45,-73.6978 195.577,-70.462 200,-67 218.319,-52.6596 216.598,-41.8373 236,-29 238.925,-27.0644 242.075,-25.2906 245.322,-23.6724"/>
<polygon fill="midnightblue" stroke="midnightblue" points="246.922,-26.7913 254.626,-19.5188 244.068,-20.3993 246.922,-26.7913"/>
</g>
</g>
</svg>
