<?xml version="1.0" encoding="UTF-8" standalone="no"?>
<!DOCTYPE svg PUBLIC "-//W3C//DTD SVG 1.1//EN"
 "http://www.w3.org/Graphics/SVG/1.1/DTD/svg11.dtd">
<!-- Generated by graphviz version 2.38.0 (20140413.2041)
 -->
<!-- Title: Zoo::GetCages Pages: 1 -->
<svg width="348pt" height="28pt"
 viewBox="0.00 0.00 348.00 28.00" xmlns="http://www.w3.org/2000/svg" xmlns:xlink="http://www.w3.org/1999/xlink">
<g id="graph0" class="graph" transform="scale(1 1) rotate(0) translate(4 24)">
<title>Zoo::GetCages</title>
<!-- Node5 -->
<g id="node1" class="node"><title>Node5</title>
<polygon fill="#bfbfbf" stroke="black" points="0,-0.5 0,-19.5 82,-19.5 82,-0.5 0,-0.5"/>
<text text-anchor="middle" x="41" y="-7.5" font-family="Helvetica,sans-Serif" font-size="10.00">Zoo::GetCages</text>
</g>
<!-- Node6 -->
<g id="node2" class="node"><title>Node6</title>
<g id="a_node2"><a xlink:href="class_driver.html#ad9677d7807a61f0a169268f3a30b40fc" target="_top" xlink:title="Menghitung jumlah makanan yang dibutuhkan. Menghitung dan menampilkan jumlah makanan yang dikonsumsi ...">
<polygon fill="none" stroke="black" points="118,-0.5 118,-19.5 233,-19.5 233,-0.5 118,-0.5"/>
<text text-anchor="middle" x="175.5" y="-7.5" font-family="Helvetica,sans-Serif" font-size="10.00">Driver::ConsumedFood</text>
</a>
</g>
</g>
<!-- Node5&#45;&gt;Node6 -->
<g id="edge1" class="edge"><title>Node5&#45;&gt;Node6</title>
<path fill="none" stroke="midnightblue" d="M92.1515,-10C100.563,-10 109.343,-10 117.903,-10"/>
<polygon fill="midnightblue" stroke="midnightblue" points="92.114,-6.5001 82.1139,-10 92.1139,-13.5001 92.114,-6.5001"/>
</g>
<!-- Node7 -->
<g id="node3" class="node"><title>Node7</title>
<g id="a_node3"><a xlink:href="class_driver.html#af0658d103e3e810a8e9ef0a53bb2e261" target="_top" xlink:title="Constructor Menciptakan driver yang berisi menu utama. ">
<polygon fill="none" stroke="black" points="269,-0.5 269,-19.5 340,-19.5 340,-0.5 269,-0.5"/>
<text text-anchor="middle" x="304.5" y="-7.5" font-family="Helvetica,sans-Serif" font-size="10.00">Driver::Driver</text>
</a>
</g>
</g>
<!-- Node6&#45;&gt;Node7 -->
<g id="edge2" class="edge"><title>Node6&#45;&gt;Node7</title>
<path fill="none" stroke="midnightblue" d="M243.319,-10C252.182,-10 260.958,-10 268.954,-10"/>
<polygon fill="midnightblue" stroke="midnightblue" points="243.314,-6.5001 233.314,-10 243.314,-13.5001 243.314,-6.5001"/>
</g>
</g>
</svg>
