<?xml version="1.0" encoding="UTF-8" standalone="no"?>
<!DOCTYPE svg PUBLIC "-//W3C//DTD SVG 1.1//EN"
 "http://www.w3.org/Graphics/SVG/1.1/DTD/svg11.dtd">
<!-- Generated by graphviz version 2.38.0 (20140413.2041)
 -->
<!-- Title: Point::GetY Pages: 1 -->
<svg width="446pt" height="142pt"
 viewBox="0.00 0.00 446.00 142.00" xmlns="http://www.w3.org/2000/svg" xmlns:xlink="http://www.w3.org/1999/xlink">
<g id="graph0" class="graph" transform="scale(1 1) rotate(0) translate(4 138)">
<title>Point::GetY</title>
<!-- Node21 -->
<g id="node1" class="node"><title>Node21</title>
<polygon fill="#bfbfbf" stroke="black" points="0,-57.5 0,-76.5 68,-76.5 68,-57.5 0,-57.5"/>
<text text-anchor="middle" x="34" y="-64.5" font-family="Helvetica,sans-Serif" font-size="10.00">Point::GetY</text>
</g>
<!-- Node22 -->
<g id="node2" class="node"><title>Node22</title>
<g id="a_node2"><a xlink:href="class_animal.html#a01e450f2b24c367f1d9087450dea6860" target="_top" xlink:title="Menggerakkan animal dengan mengubah posisi. ">
<polygon fill="none" stroke="black" points="104.5,-114.5 104.5,-133.5 179.5,-133.5 179.5,-114.5 104.5,-114.5"/>
<text text-anchor="middle" x="142" y="-121.5" font-family="Helvetica,sans-Serif" font-size="10.00">Animal::Move</text>
</a>
</g>
</g>
<!-- Node21&#45;&gt;Node22 -->
<g id="edge1" class="edge"><title>Node21&#45;&gt;Node22</title>
<path fill="none" stroke="midnightblue" d="M60.7579,-81.4168C73.6877,-88.5946 89.6211,-97.3508 104,-105 109.865,-108.12 116.293,-111.451 122.122,-114.439"/>
<polygon fill="midnightblue" stroke="midnightblue" points="62.3789,-78.3134 51.939,-76.5076 58.9741,-84.4297 62.3789,-78.3134"/>
</g>
<!-- Node23 -->
<g id="node3" class="node"><title>Node23</title>
<g id="a_node3"><a xlink:href="class_animal.html#a3a6ab41928f4a6a59f501422e522cc14" target="_top" xlink:title="Getter nilai ordinat. ">
<polygon fill="none" stroke="black" points="104.5,-76.5 104.5,-95.5 179.5,-95.5 179.5,-76.5 104.5,-76.5"/>
<text text-anchor="middle" x="142" y="-83.5" font-family="Helvetica,sans-Serif" font-size="10.00">Animal::GetY</text>
</a>
</g>
</g>
<!-- Node21&#45;&gt;Node23 -->
<g id="edge2" class="edge"><title>Node21&#45;&gt;Node23</title>
<path fill="none" stroke="midnightblue" d="M78.1602,-74.7363C86.794,-76.2838 95.7888,-77.8961 104.184,-79.401"/>
<polygon fill="midnightblue" stroke="midnightblue" points="78.7089,-71.2789 68.2482,-72.9596 77.4738,-78.1691 78.7089,-71.2789"/>
</g>
<!-- Node24 -->
<g id="node4" class="node"><title>Node24</title>
<g id="a_node4"><a xlink:href="class_person.html#a0dcce299b3914e4b3af67a65d7837b0b" target="_top" xlink:title="Menggerakkan person dengan mengubah posisi. ">
<polygon fill="none" stroke="black" points="104,-38.5 104,-57.5 180,-57.5 180,-38.5 104,-38.5"/>
<text text-anchor="middle" x="142" y="-45.5" font-family="Helvetica,sans-Serif" font-size="10.00">Person::Move</text>
</a>
</g>
</g>
<!-- Node21&#45;&gt;Node24 -->
<g id="edge3" class="edge"><title>Node21&#45;&gt;Node24</title>
<path fill="none" stroke="midnightblue" d="M78.3309,-59.2331C86.7846,-57.7178 95.5781,-56.1417 103.811,-54.6659"/>
<polygon fill="midnightblue" stroke="midnightblue" points="77.4738,-55.8309 68.2482,-61.0404 78.7089,-62.7211 77.4738,-55.8309"/>
</g>
<!-- Node27 -->
<g id="node7" class="node"><title>Node27</title>
<g id="a_node7"><a xlink:href="class_zoo.html#a63315b0cdc36e0cbefb3f0c4956392f7" target="_top" xlink:title="Melakukan proses render untuk seisi zoo. ">
<polygon fill="none" stroke="black" points="107.5,-0.5 107.5,-19.5 176.5,-19.5 176.5,-0.5 107.5,-0.5"/>
<text text-anchor="middle" x="142" y="-7.5" font-family="Helvetica,sans-Serif" font-size="10.00">Zoo::Render</text>
</a>
</g>
</g>
<!-- Node21&#45;&gt;Node27 -->
<g id="edge6" class="edge"><title>Node21&#45;&gt;Node27</title>
<path fill="none" stroke="midnightblue" d="M60.7579,-52.5832C73.6877,-45.4054 89.6211,-36.6492 104,-29 109.865,-25.8799 116.293,-22.5485 122.122,-19.5607"/>
<polygon fill="midnightblue" stroke="midnightblue" points="58.9741,-49.5703 51.939,-57.4924 62.3789,-55.6866 58.9741,-49.5703"/>
</g>
<!-- Node25 -->
<g id="node5" class="node"><title>Node25</title>
<g id="a_node5"><a xlink:href="class_driver.html#ad9677d7807a61f0a169268f3a30b40fc" target="_top" xlink:title="Menghitung jumlah makanan yang dibutuhkan. Menghitung dan menampilkan jumlah makanan yang dikonsumsi ...">
<polygon fill="none" stroke="black" points="216,-38.5 216,-57.5 331,-57.5 331,-38.5 216,-38.5"/>
<text text-anchor="middle" x="273.5" y="-45.5" font-family="Helvetica,sans-Serif" font-size="10.00">Driver::ConsumedFood</text>
</a>
</g>
</g>
<!-- Node24&#45;&gt;Node25 -->
<g id="edge4" class="edge"><title>Node24&#45;&gt;Node25</title>
<path fill="none" stroke="midnightblue" d="M190.267,-48C198.493,-48 207.126,-48 215.579,-48"/>
<polygon fill="midnightblue" stroke="midnightblue" points="190.11,-44.5001 180.11,-48 190.109,-51.5001 190.11,-44.5001"/>
</g>
<!-- Node26 -->
<g id="node6" class="node"><title>Node26</title>
<g id="a_node6"><a xlink:href="class_driver.html#af0658d103e3e810a8e9ef0a53bb2e261" target="_top" xlink:title="Constructor Menciptakan driver yang berisi menu utama. ">
<polygon fill="none" stroke="black" points="367,-19.5 367,-38.5 438,-38.5 438,-19.5 367,-19.5"/>
<text text-anchor="middle" x="402.5" y="-26.5" font-family="Helvetica,sans-Serif" font-size="10.00">Driver::Driver</text>
</a>
</g>
</g>
<!-- Node25&#45;&gt;Node26 -->
<g id="edge5" class="edge"><title>Node25&#45;&gt;Node26</title>
<path fill="none" stroke="midnightblue" d="M341.319,-38.0034C350.182,-36.6775 358.958,-35.3646 366.954,-34.1683"/>
<polygon fill="midnightblue" stroke="midnightblue" points="340.686,-34.5591 331.314,-39.5003 341.722,-41.4821 340.686,-34.5591"/>
</g>
<!-- Node27&#45;&gt;Node25 -->
<g id="edge9" class="edge"><title>Node27&#45;&gt;Node25</title>
<path fill="none" stroke="midnightblue" d="M185.719,-22.5353C203.336,-27.7048 223.423,-33.5991 239.832,-38.4141"/>
<polygon fill="midnightblue" stroke="midnightblue" points="186.259,-19.0463 175.678,-19.589 184.288,-25.7631 186.259,-19.0463"/>
</g>
<!-- Node28 -->
<g id="node8" class="node"><title>Node28</title>
<g id="a_node8"><a xlink:href="class_driver.html#aa8b4e139b99aad4720ce86286783dcdb" target="_top" xlink:title="Menampilkan area tertentu dalam zoo. Menampilkan area dalam zoo sesuai permintaan user...">
<polygon fill="none" stroke="black" points="226,-0.5 226,-19.5 321,-19.5 321,-0.5 226,-0.5"/>
<text text-anchor="middle" x="273.5" y="-7.5" font-family="Helvetica,sans-Serif" font-size="10.00">Driver::DisplayZoo</text>
</a>
</g>
</g>
<!-- Node27&#45;&gt;Node28 -->
<g id="edge7" class="edge"><title>Node27&#45;&gt;Node28</title>
<path fill="none" stroke="midnightblue" d="M186.893,-10C199.427,-10 213.128,-10 225.822,-10"/>
<polygon fill="midnightblue" stroke="midnightblue" points="186.687,-6.5001 176.687,-10 186.687,-13.5001 186.687,-6.5001"/>
</g>
<!-- Node28&#45;&gt;Node26 -->
<g id="edge8" class="edge"><title>Node28&#45;&gt;Node26</title>
<path fill="none" stroke="midnightblue" d="M331.17,-18.4782C343.338,-20.2985 355.843,-22.1695 366.873,-23.8195"/>
<polygon fill="midnightblue" stroke="midnightblue" points="331.477,-14.9852 321.069,-16.967 330.441,-21.9082 331.477,-14.9852"/>
</g>
</g>
</svg>
