<?xml version="1.0" encoding="UTF-8" standalone="no"?>
<!DOCTYPE svg PUBLIC "-//W3C//DTD SVG 1.1//EN"
 "http://www.w3.org/Graphics/SVG/1.1/DTD/svg11.dtd">
<!-- Generated by graphviz version 2.38.0 (20140413.2041)
 -->
<!-- Title: Person::Person Pages: 1 -->
<svg width="382pt" height="28pt"
 viewBox="0.00 0.00 382.00 28.00" xmlns="http://www.w3.org/2000/svg" xmlns:xlink="http://www.w3.org/1999/xlink">
<g id="graph0" class="graph" transform="scale(1 1) rotate(0) translate(4 24)">
<title>Person::Person</title>
<!-- Node0 -->
<g id="node1" class="node"><title>Node0</title>
<polygon fill="#bfbfbf" stroke="black" points="0,-0.5 0,-19.5 84,-19.5 84,-0.5 0,-0.5"/>
<text text-anchor="middle" x="42" y="-7.5" font-family="Helvetica,sans-Serif" font-size="10.00">Person::Person</text>
</g>
<!-- Node1 -->
<g id="node2" class="node"><title>Node1</title>
<g id="a_node2"><a xlink:href="class_person.html#aef5cd7ad333ebfc53df29097125fb199" target="_top" xlink:title="Mengembalikan nilai posisi menjadi default. Mengubah posisi person menjadi (&#45;1,&#45;1) ...">
<polygon fill="none" stroke="black" points="120,-0.5 120,-19.5 234,-19.5 234,-0.5 120,-0.5"/>
<text text-anchor="middle" x="177" y="-7.5" font-family="Helvetica,sans-Serif" font-size="10.00">Person::ResetPosition</text>
</a>
</g>
</g>
<!-- Node0&#45;&gt;Node1 -->
<g id="edge1" class="edge"><title>Node0&#45;&gt;Node1</title>
<path fill="none" stroke="midnightblue" d="M84.353,-10C92.355,-10 100.927,-10 109.498,-10"/>
<polygon fill="midnightblue" stroke="midnightblue" points="109.527,-13.5001 119.527,-10 109.527,-6.5001 109.527,-13.5001"/>
</g>
<!-- Node2 -->
<g id="node3" class="node"><title>Node2</title>
<g id="a_node3"><a xlink:href="class_person.html#aaa59e5682de803c631498648a4aa1775" target="_top" xlink:title="Menetapkan nilai position berdasarkan point p. ">
<polygon fill="none" stroke="black" points="270,-0.5 270,-19.5 374,-19.5 374,-0.5 270,-0.5"/>
<text text-anchor="middle" x="322" y="-7.5" font-family="Helvetica,sans-Serif" font-size="10.00">Person::SetPosition</text>
</a>
</g>
</g>
<!-- Node1&#45;&gt;Node2 -->
<g id="edge2" class="edge"><title>Node1&#45;&gt;Node2</title>
<path fill="none" stroke="midnightblue" d="M234.107,-10C242.451,-10 251.089,-10 259.536,-10"/>
<polygon fill="midnightblue" stroke="midnightblue" points="259.713,-13.5001 269.713,-10 259.713,-6.5001 259.713,-13.5001"/>
</g>
</g>
</svg>
