<?xml version="1.0" encoding="UTF-8" standalone="no"?>
<!DOCTYPE svg PUBLIC "-//W3C//DTD SVG 1.1//EN"
 "http://www.w3.org/Graphics/SVG/1.1/DTD/svg11.dtd">
<!-- Generated by graphviz version 2.38.0 (20140413.2041)
 -->
<!-- Title: Zoo::Render Pages: 1 -->
<svg width="217pt" height="180pt"
 viewBox="0.00 0.00 217.00 180.00" xmlns="http://www.w3.org/2000/svg" xmlns:xlink="http://www.w3.org/1999/xlink">
<g id="graph0" class="graph" transform="scale(1 1) rotate(0) translate(4 176)">
<title>Zoo::Render</title>
<!-- Node37 -->
<g id="node1" class="node"><title>Node37</title>
<polygon fill="#bfbfbf" stroke="black" points="0,-76.5 0,-95.5 69,-95.5 69,-76.5 0,-76.5"/>
<text text-anchor="middle" x="34.5" y="-83.5" font-family="Helvetica,sans-Serif" font-size="10.00">Zoo::Render</text>
</g>
<!-- Node38 -->
<g id="node2" class="node"><title>Node38</title>
<g id="a_node2"><a xlink:href="class_cell.html#a895618150a1046638c30f24c23807727" target="_top" xlink:title="Mengembalikan character untuk proses render. ">
<polygon fill="none" stroke="black" points="122,-152.5 122,-171.5 192,-171.5 192,-152.5 122,-152.5"/>
<text text-anchor="middle" x="157" y="-159.5" font-family="Helvetica,sans-Serif" font-size="10.00">Cell::Render</text>
</a>
</g>
</g>
<!-- Node37&#45;&gt;Node38 -->
<g id="edge1" class="edge"><title>Node37&#45;&gt;Node38</title>
<path fill="none" stroke="midnightblue" d="M45.0785,-95.6326C57.8126,-107.998 81.4602,-129.467 105,-143 108.449,-144.983 112.144,-146.828 115.91,-148.526"/>
<polygon fill="midnightblue" stroke="midnightblue" points="114.74,-151.83 125.317,-152.441 117.43,-145.368 114.74,-151.83"/>
</g>
<!-- Node39 -->
<g id="node3" class="node"><title>Node39</title>
<g id="a_node3"><a xlink:href="class_point.html#a28eaaae3447a8d5485a690196eb6d8da" target="_top" xlink:title="Getter nilai ordinat. ">
<polygon fill="none" stroke="black" points="123,-114.5 123,-133.5 191,-133.5 191,-114.5 123,-114.5"/>
<text text-anchor="middle" x="157" y="-121.5" font-family="Helvetica,sans-Serif" font-size="10.00">Point::GetY</text>
</a>
</g>
</g>
<!-- Node37&#45;&gt;Node39 -->
<g id="edge2" class="edge"><title>Node37&#45;&gt;Node39</title>
<path fill="none" stroke="midnightblue" d="M65.9072,-95.589C81.0345,-100.359 99.5196,-106.189 115.8,-111.323"/>
<polygon fill="midnightblue" stroke="midnightblue" points="115.013,-114.744 125.602,-114.414 117.118,-108.069 115.013,-114.744"/>
</g>
<!-- Node40 -->
<g id="node4" class="node"><title>Node40</title>
<g id="a_node4"><a xlink:href="class_point.html#a1df5f9a8e3606705ebeec25384f58f8b" target="_top" xlink:title="Getter nilai absis. ">
<polygon fill="none" stroke="black" points="124,-76.5 124,-95.5 190,-95.5 190,-76.5 124,-76.5"/>
<text text-anchor="middle" x="157" y="-83.5" font-family="Helvetica,sans-Serif" font-size="10.00">Point::GetX</text>
</a>
</g>
</g>
<!-- Node37&#45;&gt;Node40 -->
<g id="edge3" class="edge"><title>Node37&#45;&gt;Node40</title>
<path fill="none" stroke="midnightblue" d="M69.066,-86C82.8511,-86 98.9718,-86 113.561,-86"/>
<polygon fill="midnightblue" stroke="midnightblue" points="113.859,-89.5001 123.859,-86 113.859,-82.5001 113.859,-89.5001"/>
</g>
<!-- Node41 -->
<g id="node5" class="node"><title>Node41</title>
<g id="a_node5"><a xlink:href="class_person.html#a011a8222d921f3a5d2acfb29904104ee" target="_top" xlink:title="Getter nilai position. ">
<polygon fill="none" stroke="black" points="105,-38.5 105,-57.5 209,-57.5 209,-38.5 105,-38.5"/>
<text text-anchor="middle" x="157" y="-45.5" font-family="Helvetica,sans-Serif" font-size="10.00">Person::GetPosition</text>
</a>
</g>
</g>
<!-- Node37&#45;&gt;Node41 -->
<g id="edge4" class="edge"><title>Node37&#45;&gt;Node41</title>
<path fill="none" stroke="midnightblue" d="M65.9072,-76.411C81.0345,-71.6406 99.5196,-65.8112 115.8,-60.6771"/>
<polygon fill="midnightblue" stroke="midnightblue" points="117.118,-63.9315 125.602,-57.5859 115.013,-57.2556 117.118,-63.9315"/>
</g>
<!-- Node42 -->
<g id="node6" class="node"><title>Node42</title>
<g id="a_node6"><a xlink:href="class_person.html#ae0eaa14a3a6e8008ccd681f237acd804" target="_top" xlink:title="Mengembalikan character untuk proses render. ">
<polygon fill="none" stroke="black" points="115,-0.5 115,-19.5 199,-19.5 199,-0.5 115,-0.5"/>
<text text-anchor="middle" x="157" y="-7.5" font-family="Helvetica,sans-Serif" font-size="10.00">Person::Render</text>
</a>
</g>
</g>
<!-- Node37&#45;&gt;Node42 -->
<g id="edge5" class="edge"><title>Node37&#45;&gt;Node42</title>
<path fill="none" stroke="midnightblue" d="M45.0785,-76.3674C57.8126,-64.0022 81.4602,-42.5331 105,-29 108.449,-27.0169 112.144,-25.1722 115.91,-23.4739"/>
<polygon fill="midnightblue" stroke="midnightblue" points="117.43,-26.6323 125.317,-19.5587 114.74,-20.1696 117.43,-26.6323"/>
</g>
</g>
</svg>
