<?xml version="1.0" encoding="UTF-8" standalone="no"?>
<!DOCTYPE svg PUBLIC "-//W3C//DTD SVG 1.1//EN"
 "http://www.w3.org/Graphics/SVG/1.1/DTD/svg11.dtd">
<!-- Generated by graphviz version 2.38.0 (20140413.2041)
 -->
<!-- Title: Animal::GetBehavior Pages: 1 -->
<svg width="499pt" height="28pt"
 viewBox="0.00 0.00 499.00 28.00" xmlns="http://www.w3.org/2000/svg" xmlns:xlink="http://www.w3.org/1999/xlink">
<g id="graph0" class="graph" transform="scale(1 1) rotate(0) translate(4 24)">
<title>Animal::GetBehavior</title>
<!-- Node11 -->
<g id="node1" class="node"><title>Node11</title>
<polygon fill="#bfbfbf" stroke="black" points="0,-0.5 0,-19.5 105,-19.5 105,-0.5 0,-0.5"/>
<text text-anchor="middle" x="52.5" y="-7.5" font-family="Helvetica,sans-Serif" font-size="10.00">Animal::GetBehavior</text>
</g>
<!-- Node12 -->
<g id="node2" class="node"><title>Node12</title>
<g id="a_node2"><a xlink:href="class_cage.html#acb411270086907509e7422401de13ca4" target="_top" xlink:title="Menambahkan animal ke dalam cage. Akan dicek terlebih dahulu apakah cage sudah penuh. ">
<polygon fill="none" stroke="black" points="141,-0.5 141,-19.5 233,-19.5 233,-0.5 141,-0.5"/>
<text text-anchor="middle" x="187" y="-7.5" font-family="Helvetica,sans-Serif" font-size="10.00">Cage::AddAnimal</text>
</a>
</g>
</g>
<!-- Node11&#45;&gt;Node12 -->
<g id="edge1" class="edge"><title>Node11&#45;&gt;Node12</title>
<path fill="none" stroke="midnightblue" d="M115.158,-10C123.791,-10 132.529,-10 140.78,-10"/>
<polygon fill="midnightblue" stroke="midnightblue" points="115.107,-6.5001 105.107,-10 115.107,-13.5001 115.107,-6.5001"/>
</g>
<!-- Node13 -->
<g id="node3" class="node"><title>Node13</title>
<g id="a_node3"><a xlink:href="class_driver.html#ad9677d7807a61f0a169268f3a30b40fc" target="_top" xlink:title="Menghitung jumlah makanan yang dibutuhkan. Menghitung dan menampilkan jumlah makanan yang dikonsumsi ...">
<polygon fill="none" stroke="black" points="269,-0.5 269,-19.5 384,-19.5 384,-0.5 269,-0.5"/>
<text text-anchor="middle" x="326.5" y="-7.5" font-family="Helvetica,sans-Serif" font-size="10.00">Driver::ConsumedFood</text>
</a>
</g>
</g>
<!-- Node12&#45;&gt;Node13 -->
<g id="edge2" class="edge"><title>Node12&#45;&gt;Node13</title>
<path fill="none" stroke="midnightblue" d="M243.153,-10C251.604,-10 260.34,-10 268.823,-10"/>
<polygon fill="midnightblue" stroke="midnightblue" points="243.023,-6.5001 233.023,-10 243.023,-13.5001 243.023,-6.5001"/>
</g>
<!-- Node14 -->
<g id="node4" class="node"><title>Node14</title>
<g id="a_node4"><a xlink:href="class_driver.html#af0658d103e3e810a8e9ef0a53bb2e261" target="_top" xlink:title="Constructor Menciptakan driver yang berisi menu utama. ">
<polygon fill="none" stroke="black" points="420,-0.5 420,-19.5 491,-19.5 491,-0.5 420,-0.5"/>
<text text-anchor="middle" x="455.5" y="-7.5" font-family="Helvetica,sans-Serif" font-size="10.00">Driver::Driver</text>
</a>
</g>
</g>
<!-- Node13&#45;&gt;Node14 -->
<g id="edge3" class="edge"><title>Node13&#45;&gt;Node14</title>
<path fill="none" stroke="midnightblue" d="M394.319,-10C403.182,-10 411.958,-10 419.954,-10"/>
<polygon fill="midnightblue" stroke="midnightblue" points="394.314,-6.5001 384.314,-10 394.314,-13.5001 394.314,-6.5001"/>
</g>
</g>
</svg>
