<?xml version="1.0" encoding="UTF-8" standalone="no"?>
<!DOCTYPE svg PUBLIC "-//W3C//DTD SVG 1.1//EN"
 "http://www.w3.org/Graphics/SVG/1.1/DTD/svg11.dtd">
<!-- Generated by graphviz version 2.38.0 (20140413.2041)
 -->
<!-- Title: Animal::Animal Pages: 1 -->
<svg width="262pt" height="180pt"
 viewBox="0.00 0.00 262.00 180.00" xmlns="http://www.w3.org/2000/svg" xmlns:xlink="http://www.w3.org/1999/xlink">
<g id="graph0" class="graph" transform="scale(1 1) rotate(0) translate(4 176)">
<title>Animal::Animal</title>
<!-- Node0 -->
<g id="node1" class="node"><title>Node0</title>
<polygon fill="#bfbfbf" stroke="black" points="0,-76.5 0,-95.5 83,-95.5 83,-76.5 0,-76.5"/>
<text text-anchor="middle" x="41.5" y="-83.5" font-family="Helvetica,sans-Serif" font-size="10.00">Animal::Animal</text>
</g>
<!-- Node1 -->
<g id="node2" class="node"><title>Node1</title>
<g id="a_node2"><a xlink:href="class_point.html#a919355c70ffb8d6a97fabfbff301d541" target="_top" xlink:title="Menetapkan nilai absis Mengganti nilai absis menjadi _x. ">
<polygon fill="none" stroke="black" points="154,-152.5 154,-171.5 219,-171.5 219,-152.5 154,-152.5"/>
<text text-anchor="middle" x="186.5" y="-159.5" font-family="Helvetica,sans-Serif" font-size="10.00">Point::SetX</text>
</a>
</g>
</g>
<!-- Node0&#45;&gt;Node1 -->
<g id="edge1" class="edge"><title>Node0&#45;&gt;Node1</title>
<path fill="none" stroke="midnightblue" d="M53.0675,-95.8654C67.1104,-108.482 93.1682,-130.223 119,-143 126.813,-146.864 135.542,-150.065 144.04,-152.667"/>
<polygon fill="midnightblue" stroke="midnightblue" points="143.264,-156.086 153.84,-155.452 145.178,-149.352 143.264,-156.086"/>
</g>
<!-- Node2 -->
<g id="node3" class="node"><title>Node2</title>
<g id="a_node3"><a xlink:href="class_point.html#a5f7931b69b7e2c34ec7dfab9ca82019c" target="_top" xlink:title="Menetapkan nilai ordinat Mengganti nilai ordinat menjadi _y. ">
<polygon fill="none" stroke="black" points="153,-114.5 153,-133.5 220,-133.5 220,-114.5 153,-114.5"/>
<text text-anchor="middle" x="186.5" y="-121.5" font-family="Helvetica,sans-Serif" font-size="10.00">Point::SetY</text>
</a>
</g>
</g>
<!-- Node0&#45;&gt;Node2 -->
<g id="edge2" class="edge"><title>Node0&#45;&gt;Node2</title>
<path fill="none" stroke="midnightblue" d="M78.5849,-95.589C98.2097,-100.804 122.597,-107.284 143.122,-112.739"/>
<polygon fill="midnightblue" stroke="midnightblue" points="142.286,-116.138 152.85,-115.324 144.084,-109.373 142.286,-116.138"/>
</g>
<!-- Node3 -->
<g id="node4" class="node"><title>Node3</title>
<g id="a_node4"><a xlink:href="class_animal_food.html#a409b9a8bcd8596e5156552fdd5ed85b9" target="_top" xlink:title="Menambahkan jumlah tumbuhan yang dibutuhkan ke total_req_plant. ">
<polygon fill="none" stroke="black" points="119,-76.5 119,-95.5 254,-95.5 254,-76.5 119,-76.5"/>
<text text-anchor="middle" x="186.5" y="-83.5" font-family="Helvetica,sans-Serif" font-size="10.00">AnimalFood::AddTotalPlant</text>
</a>
</g>
</g>
<!-- Node0&#45;&gt;Node3 -->
<g id="edge3" class="edge"><title>Node0&#45;&gt;Node3</title>
<path fill="none" stroke="midnightblue" d="M83.0956,-86C91.1947,-86 99.9491,-86 108.81,-86"/>
<polygon fill="midnightblue" stroke="midnightblue" points="108.831,-89.5001 118.831,-86 108.831,-82.5001 108.831,-89.5001"/>
</g>
<!-- Node4 -->
<g id="node5" class="node"><title>Node4</title>
<g id="a_node5"><a xlink:href="class_animal.html#af798a4e38f7d29b5500a1d7b014dc103" target="_top" xlink:title="Menambah musuh Animal. Menambahkan Animal dengan ID x dari set. ">
<polygon fill="none" stroke="black" points="136,-38.5 136,-57.5 237,-57.5 237,-38.5 136,-38.5"/>
<text text-anchor="middle" x="186.5" y="-45.5" font-family="Helvetica,sans-Serif" font-size="10.00">Animal::AddEnemy</text>
</a>
</g>
</g>
<!-- Node0&#45;&gt;Node4 -->
<g id="edge4" class="edge"><title>Node0&#45;&gt;Node4</title>
<path fill="none" stroke="midnightblue" d="M78.5849,-76.411C97.1296,-71.4831 119.926,-65.4251 139.699,-60.1709"/>
<polygon fill="midnightblue" stroke="midnightblue" points="140.661,-63.5368 149.427,-57.5859 138.863,-56.7716 140.661,-63.5368"/>
</g>
<!-- Node5 -->
<g id="node6" class="node"><title>Node5</title>
<g id="a_node6"><a xlink:href="class_animal_food.html#a7823aec7163b9b7f9af70cbb1a01c09a" target="_top" xlink:title="Menambahkan jumlah daging yang dibutuhken ke total_req_meat. ">
<polygon fill="none" stroke="black" points="119.5,-0.5 119.5,-19.5 253.5,-19.5 253.5,-0.5 119.5,-0.5"/>
<text text-anchor="middle" x="186.5" y="-7.5" font-family="Helvetica,sans-Serif" font-size="10.00">AnimalFood::AddTotalMeat</text>
</a>
</g>
</g>
<!-- Node0&#45;&gt;Node5 -->
<g id="edge5" class="edge"><title>Node0&#45;&gt;Node5</title>
<path fill="none" stroke="midnightblue" d="M53.0675,-76.1346C67.1104,-63.5177 93.1682,-41.7767 119,-29 123.657,-26.6968 128.638,-24.6295 133.703,-22.784"/>
<polygon fill="midnightblue" stroke="midnightblue" points="135.112,-26.0031 143.48,-19.5048 132.886,-19.3664 135.112,-26.0031"/>
</g>
</g>
</svg>
