<?xml version="1.0" encoding="UTF-8" standalone="no"?>
<!DOCTYPE svg PUBLIC "-//W3C//DTD SVG 1.1//EN"
 "http://www.w3.org/Graphics/SVG/1.1/DTD/svg11.dtd">
<!-- Generated by graphviz version 2.38.0 (20140413.2041)
 -->
<!-- Title: Point::GetX Pages: 1 -->
<svg width="444pt" height="142pt"
 viewBox="0.00 0.00 444.00 142.00" xmlns="http://www.w3.org/2000/svg" xmlns:xlink="http://www.w3.org/1999/xlink">
<g id="graph0" class="graph" transform="scale(1 1) rotate(0) translate(4 138)">
<title>Point::GetX</title>
<!-- Node12 -->
<g id="node1" class="node"><title>Node12</title>
<polygon fill="#bfbfbf" stroke="black" points="0,-57.5 0,-76.5 66,-76.5 66,-57.5 0,-57.5"/>
<text text-anchor="middle" x="33" y="-64.5" font-family="Helvetica,sans-Serif" font-size="10.00">Point::GetX</text>
</g>
<!-- Node13 -->
<g id="node2" class="node"><title>Node13</title>
<g id="a_node2"><a xlink:href="class_animal.html#a01e450f2b24c367f1d9087450dea6860" target="_top" xlink:title="Menggerakkan animal dengan mengubah posisi. ">
<polygon fill="none" stroke="black" points="102.5,-114.5 102.5,-133.5 177.5,-133.5 177.5,-114.5 102.5,-114.5"/>
<text text-anchor="middle" x="140" y="-121.5" font-family="Helvetica,sans-Serif" font-size="10.00">Animal::Move</text>
</a>
</g>
</g>
<!-- Node12&#45;&gt;Node13 -->
<g id="edge1" class="edge"><title>Node12&#45;&gt;Node13</title>
<path fill="none" stroke="midnightblue" d="M59.7347,-81.6617C72.4047,-88.8082 87.9421,-97.4656 102,-105 107.855,-108.138 114.281,-111.475 120.11,-114.462"/>
<polygon fill="midnightblue" stroke="midnightblue" points="61.1035,-78.4147 50.6768,-76.5348 57.6554,-84.5066 61.1035,-78.4147"/>
</g>
<!-- Node14 -->
<g id="node3" class="node"><title>Node14</title>
<g id="a_node3"><a xlink:href="class_animal.html#ab997c26aef0bc729d7b1be6a90b68450" target="_top" xlink:title="Getter nilai absis. ">
<polygon fill="none" stroke="black" points="103,-76.5 103,-95.5 177,-95.5 177,-76.5 103,-76.5"/>
<text text-anchor="middle" x="140" y="-83.5" font-family="Helvetica,sans-Serif" font-size="10.00">Animal::GetX</text>
</a>
</g>
</g>
<!-- Node12&#45;&gt;Node14 -->
<g id="edge2" class="edge"><title>Node12&#45;&gt;Node14</title>
<path fill="none" stroke="midnightblue" d="M76.1545,-74.6279C84.9526,-76.22 94.1545,-77.8851 102.718,-79.4347"/>
<polygon fill="midnightblue" stroke="midnightblue" points="76.5374,-71.1405 66.074,-72.8039 75.291,-78.0286 76.5374,-71.1405"/>
</g>
<!-- Node15 -->
<g id="node4" class="node"><title>Node15</title>
<g id="a_node4"><a xlink:href="class_person.html#a0dcce299b3914e4b3af67a65d7837b0b" target="_top" xlink:title="Menggerakkan person dengan mengubah posisi. ">
<polygon fill="none" stroke="black" points="102,-38.5 102,-57.5 178,-57.5 178,-38.5 102,-38.5"/>
<text text-anchor="middle" x="140" y="-45.5" font-family="Helvetica,sans-Serif" font-size="10.00">Person::Move</text>
</a>
</g>
</g>
<!-- Node12&#45;&gt;Node15 -->
<g id="edge3" class="edge"><title>Node12&#45;&gt;Node15</title>
<path fill="none" stroke="midnightblue" d="M75.9394,-59.411C84.5477,-57.8533 93.5513,-56.2241 101.972,-54.7004"/>
<polygon fill="midnightblue" stroke="midnightblue" points="75.291,-55.9714 66.074,-61.1961 76.5374,-62.8595 75.291,-55.9714"/>
</g>
<!-- Node18 -->
<g id="node7" class="node"><title>Node18</title>
<g id="a_node7"><a xlink:href="class_zoo.html#a63315b0cdc36e0cbefb3f0c4956392f7" target="_top" xlink:title="Melakukan proses render untuk seisi zoo. ">
<polygon fill="none" stroke="black" points="105.5,-0.5 105.5,-19.5 174.5,-19.5 174.5,-0.5 105.5,-0.5"/>
<text text-anchor="middle" x="140" y="-7.5" font-family="Helvetica,sans-Serif" font-size="10.00">Zoo::Render</text>
</a>
</g>
</g>
<!-- Node12&#45;&gt;Node18 -->
<g id="edge6" class="edge"><title>Node12&#45;&gt;Node18</title>
<path fill="none" stroke="midnightblue" d="M59.7347,-52.3383C72.4047,-45.1918 87.9421,-36.5344 102,-29 107.855,-25.8618 114.281,-22.5253 120.11,-19.5383"/>
<polygon fill="midnightblue" stroke="midnightblue" points="57.6554,-49.4934 50.6768,-57.4652 61.1035,-55.5853 57.6554,-49.4934"/>
</g>
<!-- Node16 -->
<g id="node5" class="node"><title>Node16</title>
<g id="a_node5"><a xlink:href="class_driver.html#ad9677d7807a61f0a169268f3a30b40fc" target="_top" xlink:title="Menghitung jumlah makanan yang dibutuhkan. Menghitung dan menampilkan jumlah makanan yang dikonsumsi ...">
<polygon fill="none" stroke="black" points="214,-38.5 214,-57.5 329,-57.5 329,-38.5 214,-38.5"/>
<text text-anchor="middle" x="271.5" y="-45.5" font-family="Helvetica,sans-Serif" font-size="10.00">Driver::ConsumedFood</text>
</a>
</g>
</g>
<!-- Node15&#45;&gt;Node16 -->
<g id="edge4" class="edge"><title>Node15&#45;&gt;Node16</title>
<path fill="none" stroke="midnightblue" d="M188.267,-48C196.493,-48 205.126,-48 213.579,-48"/>
<polygon fill="midnightblue" stroke="midnightblue" points="188.11,-44.5001 178.11,-48 188.109,-51.5001 188.11,-44.5001"/>
</g>
<!-- Node17 -->
<g id="node6" class="node"><title>Node17</title>
<g id="a_node6"><a xlink:href="class_driver.html#af0658d103e3e810a8e9ef0a53bb2e261" target="_top" xlink:title="Constructor Menciptakan driver yang berisi menu utama. ">
<polygon fill="none" stroke="black" points="365,-19.5 365,-38.5 436,-38.5 436,-19.5 365,-19.5"/>
<text text-anchor="middle" x="400.5" y="-26.5" font-family="Helvetica,sans-Serif" font-size="10.00">Driver::Driver</text>
</a>
</g>
</g>
<!-- Node16&#45;&gt;Node17 -->
<g id="edge5" class="edge"><title>Node16&#45;&gt;Node17</title>
<path fill="none" stroke="midnightblue" d="M339.319,-38.0034C348.182,-36.6775 356.958,-35.3646 364.954,-34.1683"/>
<polygon fill="midnightblue" stroke="midnightblue" points="338.686,-34.5591 329.314,-39.5003 339.722,-41.4821 338.686,-34.5591"/>
</g>
<!-- Node18&#45;&gt;Node16 -->
<g id="edge9" class="edge"><title>Node18&#45;&gt;Node16</title>
<path fill="none" stroke="midnightblue" d="M183.719,-22.5353C201.336,-27.7048 221.423,-33.5991 237.832,-38.4141"/>
<polygon fill="midnightblue" stroke="midnightblue" points="184.259,-19.0463 173.678,-19.589 182.288,-25.7631 184.259,-19.0463"/>
</g>
<!-- Node19 -->
<g id="node8" class="node"><title>Node19</title>
<g id="a_node8"><a xlink:href="class_driver.html#aa8b4e139b99aad4720ce86286783dcdb" target="_top" xlink:title="Menampilkan area tertentu dalam zoo. Menampilkan area dalam zoo sesuai permintaan user...">
<polygon fill="none" stroke="black" points="224,-0.5 224,-19.5 319,-19.5 319,-0.5 224,-0.5"/>
<text text-anchor="middle" x="271.5" y="-7.5" font-family="Helvetica,sans-Serif" font-size="10.00">Driver::DisplayZoo</text>
</a>
</g>
</g>
<!-- Node18&#45;&gt;Node19 -->
<g id="edge7" class="edge"><title>Node18&#45;&gt;Node19</title>
<path fill="none" stroke="midnightblue" d="M184.893,-10C197.427,-10 211.128,-10 223.822,-10"/>
<polygon fill="midnightblue" stroke="midnightblue" points="184.687,-6.5001 174.687,-10 184.687,-13.5001 184.687,-6.5001"/>
</g>
<!-- Node19&#45;&gt;Node17 -->
<g id="edge8" class="edge"><title>Node19&#45;&gt;Node17</title>
<path fill="none" stroke="midnightblue" d="M329.17,-18.4782C341.338,-20.2985 353.843,-22.1695 364.873,-23.8195"/>
<polygon fill="midnightblue" stroke="midnightblue" points="329.477,-14.9852 319.069,-16.967 328.441,-21.9082 329.477,-14.9852"/>
</g>
</g>
</svg>
