<?xml version="1.0" encoding="UTF-8" standalone="no"?>
<!DOCTYPE svg PUBLIC "-//W3C//DTD SVG 1.1//EN"
 "http://www.w3.org/Graphics/SVG/1.1/DTD/svg11.dtd">
<!-- Generated by graphviz version 2.38.0 (20140413.2041)
 -->
<!-- Title: Cage::AddAnimal Pages: 1 -->
<svg width="241pt" height="66pt"
 viewBox="0.00 0.00 241.00 66.00" xmlns="http://www.w3.org/2000/svg" xmlns:xlink="http://www.w3.org/1999/xlink">
<g id="graph0" class="graph" transform="scale(1 1) rotate(0) translate(4 62)">
<title>Cage::AddAnimal</title>
<!-- Node2 -->
<g id="node1" class="node"><title>Node2</title>
<polygon fill="#bfbfbf" stroke="black" points="0,-19.5 0,-38.5 92,-38.5 92,-19.5 0,-19.5"/>
<text text-anchor="middle" x="46" y="-26.5" font-family="Helvetica,sans-Serif" font-size="10.00">Cage::AddAnimal</text>
</g>
<!-- Node3 -->
<g id="node2" class="node"><title>Node3</title>
<g id="a_node2"><a xlink:href="class_animal.html#aa90fda50322c8bea43b45b60e1d40ede" target="_top" xlink:title="Getter nilai is_wild. ">
<polygon fill="none" stroke="black" points="128,-38.5 128,-57.5 233,-57.5 233,-38.5 128,-38.5"/>
<text text-anchor="middle" x="180.5" y="-45.5" font-family="Helvetica,sans-Serif" font-size="10.00">Animal::GetBehavior</text>
</a>
</g>
</g>
<!-- Node2&#45;&gt;Node3 -->
<g id="edge1" class="edge"><title>Node2&#45;&gt;Node3</title>
<path fill="none" stroke="midnightblue" d="M92.2284,-35.4856C100.419,-36.6601 109.087,-37.9031 117.657,-39.132"/>
<polygon fill="midnightblue" stroke="midnightblue" points="117.242,-42.6081 127.637,-40.5631 118.236,-35.679 117.242,-42.6081"/>
</g>
<!-- Node4 -->
<g id="node3" class="node"><title>Node4</title>
<g id="a_node3"><a xlink:href="class_animal.html#a72c2b5893bb874a791d3f9ac6caf2a0d" target="_top" xlink:title="Mengecek status Animal. Memeriksa apakah Animal dengan ID x merupakan musuh. ">
<polygon fill="none" stroke="black" points="135,-0.5 135,-19.5 226,-19.5 226,-0.5 135,-0.5"/>
<text text-anchor="middle" x="180.5" y="-7.5" font-family="Helvetica,sans-Serif" font-size="10.00">Animal::IsEnemy</text>
</a>
</g>
</g>
<!-- Node2&#45;&gt;Node4 -->
<g id="edge2" class="edge"><title>Node2&#45;&gt;Node4</title>
<path fill="none" stroke="midnightblue" d="M92.2284,-22.5144C102.682,-21.0154 113.914,-19.4047 124.726,-17.8543"/>
<polygon fill="midnightblue" stroke="midnightblue" points="125.522,-21.2761 134.924,-16.392 124.529,-14.3469 125.522,-21.2761"/>
</g>
</g>
</svg>
