<?xml version="1.0" encoding="UTF-8" standalone="no"?>
<!DOCTYPE svg PUBLIC "-//W3C//DTD SVG 1.1//EN"
 "http://www.w3.org/Graphics/SVG/1.1/DTD/svg11.dtd">
<!-- Generated by graphviz version 2.38.0 (20140413.2041)
 -->
<!-- Title: Zoo::Render Pages: 1 -->
<svg width="335pt" height="66pt"
 viewBox="0.00 0.00 335.00 66.00" xmlns="http://www.w3.org/2000/svg" xmlns:xlink="http://www.w3.org/1999/xlink">
<g id="graph0" class="graph" transform="scale(1 1) rotate(0) translate(4 62)">
<title>Zoo::Render</title>
<!-- Node43 -->
<g id="node1" class="node"><title>Node43</title>
<polygon fill="#bfbfbf" stroke="black" points="0,-19.5 0,-38.5 69,-38.5 69,-19.5 0,-19.5"/>
<text text-anchor="middle" x="34.5" y="-26.5" font-family="Helvetica,sans-Serif" font-size="10.00">Zoo::Render</text>
</g>
<!-- Node44 -->
<g id="node2" class="node"><title>Node44</title>
<g id="a_node2"><a xlink:href="class_driver.html#aa8b4e139b99aad4720ce86286783dcdb" target="_top" xlink:title="Menampilkan area tertentu dalam zoo. Menampilkan area dalam zoo sesuai permintaan user...">
<polygon fill="none" stroke="black" points="115,-38.5 115,-57.5 210,-57.5 210,-38.5 115,-38.5"/>
<text text-anchor="middle" x="162.5" y="-45.5" font-family="Helvetica,sans-Serif" font-size="10.00">Driver::DisplayZoo</text>
</a>
</g>
</g>
<!-- Node43&#45;&gt;Node44 -->
<g id="edge1" class="edge"><title>Node43&#45;&gt;Node44</title>
<path fill="none" stroke="midnightblue" d="M79.465,-35.6296C90.9076,-37.3551 103.275,-39.22 114.851,-40.9656"/>
<polygon fill="midnightblue" stroke="midnightblue" points="79.6758,-32.1219 69.2657,-34.0917 78.632,-39.0437 79.6758,-32.1219"/>
</g>
<!-- Node46 -->
<g id="node4" class="node"><title>Node46</title>
<g id="a_node4"><a xlink:href="class_driver.html#ad9677d7807a61f0a169268f3a30b40fc" target="_top" xlink:title="Menghitung jumlah makanan yang dibutuhkan. Menghitung dan menampilkan jumlah makanan yang dikonsumsi ...">
<polygon fill="none" stroke="black" points="105,-0.5 105,-19.5 220,-19.5 220,-0.5 105,-0.5"/>
<text text-anchor="middle" x="162.5" y="-7.5" font-family="Helvetica,sans-Serif" font-size="10.00">Driver::ConsumedFood</text>
</a>
</g>
</g>
<!-- Node43&#45;&gt;Node46 -->
<g id="edge3" class="edge"><title>Node43&#45;&gt;Node46</title>
<path fill="none" stroke="midnightblue" d="M79.3556,-22.3869C87.5611,-21.1495 96.2454,-19.84 104.775,-18.5538"/>
<polygon fill="midnightblue" stroke="midnightblue" points="78.632,-18.9563 69.2657,-23.9083 79.6758,-25.8781 78.632,-18.9563"/>
</g>
<!-- Node45 -->
<g id="node3" class="node"><title>Node45</title>
<g id="a_node3"><a xlink:href="class_driver.html#af0658d103e3e810a8e9ef0a53bb2e261" target="_top" xlink:title="Constructor Menciptakan driver yang berisi menu utama. ">
<polygon fill="none" stroke="black" points="256,-19.5 256,-38.5 327,-38.5 327,-19.5 256,-19.5"/>
<text text-anchor="middle" x="291.5" y="-26.5" font-family="Helvetica,sans-Serif" font-size="10.00">Driver::Driver</text>
</a>
</g>
</g>
<!-- Node44&#45;&gt;Node45 -->
<g id="edge2" class="edge"><title>Node44&#45;&gt;Node45</title>
<path fill="none" stroke="midnightblue" d="M220.17,-39.5218C232.338,-37.7015 244.843,-35.8305 255.873,-34.1805"/>
<polygon fill="midnightblue" stroke="midnightblue" points="219.441,-36.0918 210.069,-41.033 220.477,-43.0148 219.441,-36.0918"/>
</g>
<!-- Node46&#45;&gt;Node45 -->
<g id="edge4" class="edge"><title>Node46&#45;&gt;Node45</title>
<path fill="none" stroke="midnightblue" d="M230.319,-19.9966C239.182,-21.3225 247.958,-22.6354 255.954,-23.8317"/>
<polygon fill="midnightblue" stroke="midnightblue" points="230.722,-16.5179 220.314,-18.4997 229.686,-23.4409 230.722,-16.5179"/>
</g>
</g>
</svg>
