<?xml version="1.0" encoding="UTF-8" standalone="no"?>
<!DOCTYPE svg PUBLIC "-//W3C//DTD SVG 1.1//EN"
 "http://www.w3.org/Graphics/SVG/1.1/DTD/svg11.dtd">
<!-- Generated by graphviz version 2.38.0 (20140413.2041)
 -->
<!-- Title: Person::ResetPosition Pages: 1 -->
<svg width="380pt" height="66pt"
 viewBox="0.00 0.00 380.00 66.00" xmlns="http://www.w3.org/2000/svg" xmlns:xlink="http://www.w3.org/1999/xlink">
<g id="graph0" class="graph" transform="scale(1 1) rotate(0) translate(4 62)">
<title>Person::ResetPosition</title>
<!-- Node26 -->
<g id="node1" class="node"><title>Node26</title>
<polygon fill="#bfbfbf" stroke="black" points="0,-19.5 0,-38.5 114,-38.5 114,-19.5 0,-19.5"/>
<text text-anchor="middle" x="57" y="-26.5" font-family="Helvetica,sans-Serif" font-size="10.00">Person::ResetPosition</text>
</g>
<!-- Node27 -->
<g id="node2" class="node"><title>Node27</title>
<g id="a_node2"><a xlink:href="class_driver.html#ad9677d7807a61f0a169268f3a30b40fc" target="_top" xlink:title="Menghitung jumlah makanan yang dibutuhkan. Menghitung dan menampilkan jumlah makanan yang dikonsumsi ...">
<polygon fill="none" stroke="black" points="150,-38.5 150,-57.5 265,-57.5 265,-38.5 150,-38.5"/>
<text text-anchor="middle" x="207.5" y="-45.5" font-family="Helvetica,sans-Serif" font-size="10.00">Driver::ConsumedFood</text>
</a>
</g>
</g>
<!-- Node26&#45;&gt;Node27 -->
<g id="edge1" class="edge"><title>Node26&#45;&gt;Node27</title>
<path fill="none" stroke="midnightblue" d="M124.105,-37.4579C132.673,-38.5542 141.388,-39.6692 149.786,-40.7436"/>
<polygon fill="midnightblue" stroke="midnightblue" points="124.505,-33.9806 114.141,-36.1831 123.616,-40.924 124.505,-33.9806"/>
</g>
<!-- Node29 -->
<g id="node4" class="node"><title>Node29</title>
<g id="a_node4"><a xlink:href="class_person.html#a0397c6f89fafc12e738923f612bc41a3" target="_top" xlink:title="Constructor Menciptakan person default pada posisi (&#45;1,&#45;1). ">
<polygon fill="none" stroke="black" points="165.5,-0.5 165.5,-19.5 249.5,-19.5 249.5,-0.5 165.5,-0.5"/>
<text text-anchor="middle" x="207.5" y="-7.5" font-family="Helvetica,sans-Serif" font-size="10.00">Person::Person</text>
</a>
</g>
</g>
<!-- Node26&#45;&gt;Node29 -->
<g id="edge3" class="edge"><title>Node26&#45;&gt;Node29</title>
<path fill="none" stroke="midnightblue" d="M124.18,-20.5326C138.098,-18.7518 152.398,-16.9221 165.094,-15.2977"/>
<polygon fill="midnightblue" stroke="midnightblue" points="123.616,-17.076 114.141,-21.8169 124.505,-24.0194 123.616,-17.076"/>
</g>
<!-- Node28 -->
<g id="node3" class="node"><title>Node28</title>
<g id="a_node3"><a xlink:href="class_driver.html#af0658d103e3e810a8e9ef0a53bb2e261" target="_top" xlink:title="Constructor Menciptakan driver yang berisi menu utama. ">
<polygon fill="none" stroke="black" points="301,-38.5 301,-57.5 372,-57.5 372,-38.5 301,-38.5"/>
<text text-anchor="middle" x="336.5" y="-45.5" font-family="Helvetica,sans-Serif" font-size="10.00">Driver::Driver</text>
</a>
</g>
</g>
<!-- Node27&#45;&gt;Node28 -->
<g id="edge2" class="edge"><title>Node27&#45;&gt;Node28</title>
<path fill="none" stroke="midnightblue" d="M275.319,-48C284.182,-48 292.958,-48 300.954,-48"/>
<polygon fill="midnightblue" stroke="midnightblue" points="275.314,-44.5001 265.314,-48 275.314,-51.5001 275.314,-44.5001"/>
</g>
</g>
</svg>
