<?xml version="1.0" encoding="UTF-8" standalone="no"?>
<!DOCTYPE svg PUBLIC "-//W3C//DTD SVG 1.1//EN"
 "http://www.w3.org/Graphics/SVG/1.1/DTD/svg11.dtd">
<!-- Generated by graphviz version 2.38.0 (20140413.2041)
 -->
<!-- Title: src Pages: 1 -->
<svg width="114pt" height="292pt"
 viewBox="0.00 0.00 114.00 292.00" xmlns="http://www.w3.org/2000/svg" xmlns:xlink="http://www.w3.org/1999/xlink">
<g id="graph0" class="graph" transform="scale(1 1) rotate(0) translate(4 288)">
<title>src</title>
<g id="clust1" class="cluster"><title>clusterdir_68267d1309a1af8e8297ef4c3efbcdba</title>
<g id="a_clust1"><a xlink:href="dir_68267d1309a1af8e8297ef4c3efbcdba.html" target="_top">
<polygon fill="#eeeeff" stroke="black" points="8,-8 8,-276 98,-276 98,-8 8,-8"/>
</a>
</g>
</g>
<!-- dir_68267d1309a1af8e8297ef4c3efbcdba -->
<g id="node1" class="node"><title>dir_68267d1309a1af8e8297ef4c3efbcdba</title>
<text text-anchor="middle" x="53" y="-247.5" font-family="Helvetica,sans-Serif" font-size="10.00">src</text>
</g>
<!-- dir_d3bbb1a6ea37ce79c51816f370217227 -->
<g id="node3" class="node"><title>dir_d3bbb1a6ea37ce79c51816f370217227</title>
<g id="a_node3"><a xlink:href="dir_d3bbb1a6ea37ce79c51816f370217227.html" target="_top" xlink:title="infrastructure">
<polygon fill="white" stroke="black" points="89.5,-196 16.5,-196 16.5,-160 89.5,-160 89.5,-196"/>
<text text-anchor="middle" x="53" y="-175.5" font-family="Helvetica,sans-Serif" font-size="10.00">infrastructure</text>
</a>
</g>
</g>
<!-- dir_68267d1309a1af8e8297ef4c3efbcdba&#45;&gt;dir_d3bbb1a6ea37ce79c51816f370217227 -->
<g id="edge1" class="edge"><title>dir_68267d1309a1af8e8297ef4c3efbcdba&#45;&gt;dir_d3bbb1a6ea37ce79c51816f370217227</title>
<path fill="none" stroke="black" d="M53,-231.697C53,-223.983 53,-214.712 53,-206.112"/>
<polygon fill="black" stroke="black" points="56.5001,-206.104 53,-196.104 49.5001,-206.104 56.5001,-206.104"/>
<g id="a_edge1&#45;headlabel"><a xlink:href="dir_000000_000002.html" target="_top" xlink:title="2">
<text text-anchor="middle" x="59.3393" y="-207.199" font-family="Helvetica,sans-Serif" font-size="10.00">2</text>
</a>
</g>
</g>
<!-- dir_ce4d07e8f4adf65ff639bdd4fb209ca6 -->
<g id="node2" class="node"><title>dir_ce4d07e8f4adf65ff639bdd4fb209ca6</title>
<g id="a_node2"><a xlink:href="dir_ce4d07e8f4adf65ff639bdd4fb209ca6.html" target="_top" xlink:title="animal">
<polygon fill="white" stroke="black" points="70,-124 16,-124 16,-88 70,-88 70,-124"/>
<text text-anchor="middle" x="43" y="-103.5" font-family="Helvetica,sans-Serif" font-size="10.00">animal</text>
</a>
</g>
</g>
<!-- dir_88826aa2a10e1882b573f502bc7f4b55 -->
<g id="node4" class="node"><title>dir_88826aa2a10e1882b573f502bc7f4b55</title>
<g id="a_node4"><a xlink:href="dir_88826aa2a10e1882b573f502bc7f4b55.html" target="_top" xlink:title="misc">
<polygon fill="white" stroke="black" points="80,-52 26,-52 26,-16 80,-16 80,-52"/>
<text text-anchor="middle" x="53" y="-31.5" font-family="Helvetica,sans-Serif" font-size="10.00">misc</text>
</a>
</g>
</g>
<!-- dir_ce4d07e8f4adf65ff639bdd4fb209ca6&#45;&gt;dir_88826aa2a10e1882b573f502bc7f4b55 -->
<g id="edge4" class="edge"><title>dir_ce4d07e8f4adf65ff639bdd4fb209ca6&#45;&gt;dir_88826aa2a10e1882b573f502bc7f4b55</title>
<path fill="none" stroke="black" d="M45.4719,-87.6966C46.5739,-79.9827 47.8982,-70.7125 49.1268,-62.1124"/>
<polygon fill="black" stroke="black" points="52.607,-62.4988 50.5565,-52.1043 45.6774,-61.5088 52.607,-62.4988"/>
<g id="a_edge4&#45;headlabel"><a xlink:href="dir_000001_000003.html" target="_top" xlink:title="1">
<text text-anchor="middle" x="54.9095" y="-63.9588" font-family="Helvetica,sans-Serif" font-size="10.00">1</text>
</a>
</g>
</g>
<!-- dir_d3bbb1a6ea37ce79c51816f370217227&#45;&gt;dir_ce4d07e8f4adf65ff639bdd4fb209ca6 -->
<g id="edge2" class="edge"><title>dir_d3bbb1a6ea37ce79c51816f370217227&#45;&gt;dir_ce4d07e8f4adf65ff639bdd4fb209ca6</title>
<path fill="none" stroke="black" d="M50.5281,-159.697C49.4261,-151.983 48.1018,-142.712 46.8732,-134.112"/>
<polygon fill="black" stroke="black" points="50.3226,-133.509 45.4435,-124.104 43.393,-134.499 50.3226,-133.509"/>
<g id="a_edge2&#45;headlabel"><a xlink:href="dir_000002_000001.html" target="_top" xlink:title="1">
<text text-anchor="middle" x="53.6416" y="-134.166" font-family="Helvetica,sans-Serif" font-size="10.00">1</text>
</a>
</g>
</g>
<!-- dir_d3bbb1a6ea37ce79c51816f370217227&#45;&gt;dir_88826aa2a10e1882b573f502bc7f4b55 -->
<g id="edge3" class="edge"><title>dir_d3bbb1a6ea37ce79c51816f370217227&#45;&gt;dir_88826aa2a10e1882b573f502bc7f4b55</title>
<path fill="none" stroke="black" d="M64.0462,-159.611C69.7366,-149.615 76.0807,-136.579 79,-124 82.617,-108.414 82.617,-103.586 79,-88 76.9017,-78.9586 73.0342,-69.6814 68.9119,-61.4668"/>
<polygon fill="black" stroke="black" points="71.8554,-59.5496 64.0462,-52.3894 65.6858,-62.8566 71.8554,-59.5496"/>
<g id="a_edge3&#45;headlabel"><a xlink:href="dir_000002_000003.html" target="_top" xlink:title="1">
<text text-anchor="middle" x="76.056" y="-58.8764" font-family="Helvetica,sans-Serif" font-size="10.00">1</text>
</a>
</g>
</g>
</g>
</svg>
