<?xml version="1.0" encoding="UTF-8" standalone="no"?>
<!DOCTYPE svg PUBLIC "-//W3C//DTD SVG 1.1//EN"
 "http://www.w3.org/Graphics/SVG/1.1/DTD/svg11.dtd">
<!-- Generated by graphviz version 2.38.0 (20140413.2041)
 -->
<!-- Title: src/driver.h Pages: 1 -->
<svg width="427pt" height="252pt"
 viewBox="0.00 0.00 426.53 252.00" xmlns="http://www.w3.org/2000/svg" xmlns:xlink="http://www.w3.org/1999/xlink">
<g id="graph0" class="graph" transform="scale(1 1) rotate(0) translate(4 248)">
<title>src/driver.h</title>
<!-- Node0 -->
<g id="node1" class="node"><title>Node0</title>
<polygon fill="#bfbfbf" stroke="black" points="186.025,-224.5 186.025,-243.5 250.025,-243.5 250.025,-224.5 186.025,-224.5"/>
<text text-anchor="middle" x="218.025" y="-231.5" font-family="Helvetica,sans-Serif" font-size="10.00">src/driver.h</text>
</g>
<!-- Node1 -->
<g id="node2" class="node"><title>Node1</title>
<g id="a_node2"><a xlink:href="zoo_8h.html" target="_top" xlink:title="zoo.h">
<polygon fill="none" stroke="black" points="197.525,-168.5 197.525,-187.5 238.525,-187.5 238.525,-168.5 197.525,-168.5"/>
<text text-anchor="middle" x="218.025" y="-175.5" font-family="Helvetica,sans-Serif" font-size="10.00">zoo.h</text>
</a>
</g>
</g>
<!-- Node0&#45;&gt;Node1 -->
<g id="edge1" class="edge"><title>Node0&#45;&gt;Node1</title>
<path fill="none" stroke="midnightblue" d="M218.025,-224.083C218.025,-217.006 218.025,-206.861 218.025,-197.986"/>
<polygon fill="midnightblue" stroke="midnightblue" points="221.526,-197.751 218.025,-187.751 214.526,-197.751 221.526,-197.751"/>
</g>
<!-- Node2 -->
<g id="node3" class="node"><title>Node2</title>
<polygon fill="none" stroke="#bfbfbf" points="67.0254,-0.5 67.0254,-19.5 97.0254,-19.5 97.0254,-0.5 67.0254,-0.5"/>
<text text-anchor="middle" x="82.0254" y="-7.5" font-family="Helvetica,sans-Serif" font-size="10.00">set</text>
</g>
<!-- Node1&#45;&gt;Node2 -->
<g id="edge2" class="edge"><title>Node1&#45;&gt;Node2</title>
<path fill="none" stroke="midnightblue" d="M197.325,-175.804C149.415,-171.721 32.7164,-153.834 3.02544,-76 -0.142688,-67.6949 -1.44138,-63.685 3.02544,-56 14.6035,-36.0802 38.6624,-24.2463 57.205,-17.7536"/>
<polygon fill="midnightblue" stroke="midnightblue" points="58.3652,-21.0573 66.8247,-14.6785 56.2338,-14.3896 58.3652,-21.0573"/>
</g>
<!-- Node3 -->
<g id="node4" class="node"><title>Node3</title>
<polygon fill="none" stroke="#bfbfbf" points="12.0254,-56.5 12.0254,-75.5 54.0254,-75.5 54.0254,-56.5 12.0254,-56.5"/>
<text text-anchor="middle" x="33.0254" y="-63.5" font-family="Helvetica,sans-Serif" font-size="10.00">vector</text>
</g>
<!-- Node1&#45;&gt;Node3 -->
<g id="edge3" class="edge"><title>Node1&#45;&gt;Node3</title>
<path fill="none" stroke="midnightblue" d="M197.304,-174.931C167.541,-171.044 112.188,-160.31 75.0254,-132 59.029,-119.814 47.3809,-99.6589 40.4644,-85.0184"/>
<polygon fill="midnightblue" stroke="midnightblue" points="43.5129,-83.2576 36.2699,-75.5252 37.1101,-86.0867 43.5129,-83.2576"/>
</g>
<!-- Node4 -->
<g id="node5" class="node"><title>Node4</title>
<g id="a_node5"><a xlink:href="animal_8h.html" target="_top" xlink:title="animal/animal.h">
<polygon fill="none" stroke="black" points="110.525,-56.5 110.525,-75.5 195.525,-75.5 195.525,-56.5 110.525,-56.5"/>
<text text-anchor="middle" x="153.025" y="-63.5" font-family="Helvetica,sans-Serif" font-size="10.00">animal/animal.h</text>
</a>
</g>
</g>
<!-- Node1&#45;&gt;Node4 -->
<g id="edge4" class="edge"><title>Node1&#45;&gt;Node4</title>
<path fill="none" stroke="midnightblue" d="M216.757,-168.461C214.542,-155.496 209.109,-130.409 198.025,-112 191.306,-100.84 181.231,-90.414 172.316,-82.4136"/>
<polygon fill="midnightblue" stroke="midnightblue" points="174.458,-79.6399 164.584,-75.7966 169.906,-84.9581 174.458,-79.6399"/>
</g>
<!-- Node8 -->
<g id="node9" class="node"><title>Node8</title>
<g id="a_node9"><a xlink:href="point_8h.html" target="_top" xlink:title="../misc/point.h">
<polygon fill="none" stroke="black" points="339.525,-0.5 339.525,-19.5 418.525,-19.5 418.525,-0.5 339.525,-0.5"/>
<text text-anchor="middle" x="379.025" y="-7.5" font-family="Helvetica,sans-Serif" font-size="10.00">../misc/point.h</text>
</a>
</g>
</g>
<!-- Node1&#45;&gt;Node8 -->
<g id="edge19" class="edge"><title>Node1&#45;&gt;Node8</title>
<path fill="none" stroke="midnightblue" d="M238.695,-174.747C280.429,-169.726 372.375,-156.122 391.025,-132 414.177,-102.056 399.012,-54.7024 387.847,-29.014"/>
<polygon fill="midnightblue" stroke="midnightblue" points="390.934,-27.3497 383.57,-19.7321 384.576,-30.2791 390.934,-27.3497"/>
</g>
<!-- Node9 -->
<g id="node10" class="node"><title>Node9</title>
<g id="a_node10"><a xlink:href="cage_8h.html" target="_top" xlink:title="infrastructure/cage.h">
<polygon fill="none" stroke="black" points="84.5254,-112.5 84.5254,-131.5 189.525,-131.5 189.525,-112.5 84.5254,-112.5"/>
<text text-anchor="middle" x="137.025" y="-119.5" font-family="Helvetica,sans-Serif" font-size="10.00">infrastructure/cage.h</text>
</a>
</g>
</g>
<!-- Node1&#45;&gt;Node9 -->
<g id="edge10" class="edge"><title>Node1&#45;&gt;Node9</title>
<path fill="none" stroke="midnightblue" d="M205.011,-168.324C192.494,-159.979 173.344,-147.212 158.554,-137.352"/>
<polygon fill="midnightblue" stroke="midnightblue" points="160.269,-134.289 150.007,-131.655 156.386,-140.114 160.269,-134.289"/>
</g>
<!-- Node10 -->
<g id="node11" class="node"><title>Node10</title>
<g id="a_node11"><a xlink:href="cell_8h.html" target="_top" xlink:title="infrastructure/cell.h">
<polygon fill="none" stroke="black" points="252.525,-56.5 252.525,-75.5 351.525,-75.5 351.525,-56.5 252.525,-56.5"/>
<text text-anchor="middle" x="302.025" y="-63.5" font-family="Helvetica,sans-Serif" font-size="10.00">infrastructure/cell.h</text>
</a>
</g>
</g>
<!-- Node1&#45;&gt;Node10 -->
<g id="edge15" class="edge"><title>Node1&#45;&gt;Node10</title>
<path fill="none" stroke="midnightblue" d="M224.617,-168.368C238.541,-150.135 271.155,-107.426 289.292,-83.6752"/>
<polygon fill="midnightblue" stroke="midnightblue" points="292.177,-85.6633 295.465,-75.5914 286.614,-81.4149 292.177,-85.6633"/>
</g>
<!-- Node11 -->
<g id="node12" class="node"><title>Node11</title>
<g id="a_node12"><a xlink:href="person_8h.html" target="_top" xlink:title="misc/person.h">
<polygon fill="none" stroke="black" points="304.025,-112.5 304.025,-131.5 382.025,-131.5 382.025,-112.5 304.025,-112.5"/>
<text text-anchor="middle" x="343.025" y="-119.5" font-family="Helvetica,sans-Serif" font-size="10.00">misc/person.h</text>
</a>
</g>
</g>
<!-- Node1&#45;&gt;Node11 -->
<g id="edge17" class="edge"><title>Node1&#45;&gt;Node11</title>
<path fill="none" stroke="midnightblue" d="M237.832,-168.444C258.312,-159.596 290.508,-145.687 313.89,-135.586"/>
<polygon fill="midnightblue" stroke="midnightblue" points="315.519,-138.695 323.311,-131.516 312.743,-132.269 315.519,-138.695"/>
</g>
<!-- Node4&#45;&gt;Node2 -->
<g id="edge5" class="edge"><title>Node4&#45;&gt;Node2</title>
<path fill="none" stroke="midnightblue" d="M141.618,-56.324C130.917,-48.1849 114.685,-35.8395 101.863,-26.0874"/>
<polygon fill="midnightblue" stroke="midnightblue" points="103.719,-23.1018 93.6404,-19.8339 99.4811,-28.6734 103.719,-23.1018"/>
</g>
<!-- Node5 -->
<g id="node6" class="node"><title>Node5</title>
<polygon fill="none" stroke="#bfbfbf" points="279.525,-0.5 279.525,-19.5 320.525,-19.5 320.525,-0.5 279.525,-0.5"/>
<text text-anchor="middle" x="300.025" y="-7.5" font-family="Helvetica,sans-Serif" font-size="10.00">string</text>
</g>
<!-- Node4&#45;&gt;Node5 -->
<g id="edge6" class="edge"><title>Node4&#45;&gt;Node5</title>
<path fill="none" stroke="midnightblue" d="M176.318,-56.4435C201.554,-47.1732 241.916,-32.3464 269.631,-22.1652"/>
<polygon fill="midnightblue" stroke="midnightblue" points="271.039,-25.3769 279.219,-18.6433 268.625,-18.8062 271.039,-25.3769"/>
</g>
<!-- Node6 -->
<g id="node7" class="node"><title>Node6</title>
<polygon fill="none" stroke="#bfbfbf" points="206.025,-0.5 206.025,-19.5 260.025,-19.5 260.025,-0.5 206.025,-0.5"/>
<text text-anchor="middle" x="233.025" y="-7.5" font-family="Helvetica,sans-Serif" font-size="10.00">iostream</text>
</g>
<!-- Node4&#45;&gt;Node6 -->
<g id="edge7" class="edge"><title>Node4&#45;&gt;Node6</title>
<path fill="none" stroke="midnightblue" d="M165.879,-56.324C178.242,-47.979 197.156,-35.2122 211.763,-25.3524"/>
<polygon fill="midnightblue" stroke="midnightblue" points="213.874,-28.1503 220.204,-19.6545 209.957,-22.3483 213.874,-28.1503"/>
</g>
<!-- Node7 -->
<g id="node8" class="node"><title>Node7</title>
<g id="a_node8"><a xlink:href="animalfood_8h.html" target="_top" xlink:title="animalfood.h">
<polygon fill="none" stroke="black" points="116.525,-0.5 116.525,-19.5 187.525,-19.5 187.525,-0.5 116.525,-0.5"/>
<text text-anchor="middle" x="152.025" y="-7.5" font-family="Helvetica,sans-Serif" font-size="10.00">animalfood.h</text>
</a>
</g>
</g>
<!-- Node4&#45;&gt;Node7 -->
<g id="edge8" class="edge"><title>Node4&#45;&gt;Node7</title>
<path fill="none" stroke="midnightblue" d="M152.86,-56.083C152.729,-49.0059 152.541,-38.8611 152.377,-29.9865"/>
<polygon fill="midnightblue" stroke="midnightblue" points="155.872,-29.6845 152.187,-19.7511 148.873,-29.8142 155.872,-29.6845"/>
</g>
<!-- Node4&#45;&gt;Node8 -->
<g id="edge9" class="edge"><title>Node4&#45;&gt;Node8</title>
<path fill="none" stroke="midnightblue" d="M188.836,-56.4435C228.013,-47.0826 290.902,-32.0561 333.541,-21.868"/>
<polygon fill="midnightblue" stroke="midnightblue" points="334.47,-25.2446 343.383,-19.5164 332.843,-18.4363 334.47,-25.2446"/>
</g>
<!-- Node9&#45;&gt;Node2 -->
<g id="edge11" class="edge"><title>Node9&#45;&gt;Node2</title>
<path fill="none" stroke="midnightblue" d="M128.444,-112.431C120.323,-103.879 108.319,-90.0246 101.025,-76 93.3972,-61.3318 88.4163,-43.1649 85.4762,-29.7692"/>
<polygon fill="midnightblue" stroke="midnightblue" points="88.8782,-28.933 83.4732,-19.8206 82.0159,-30.3147 88.8782,-28.933"/>
</g>
<!-- Node9&#45;&gt;Node3 -->
<g id="edge12" class="edge"><title>Node9&#45;&gt;Node3</title>
<path fill="none" stroke="midnightblue" d="M120.316,-112.324C103.714,-103.703 78.0233,-90.3643 58.8049,-80.3855"/>
<polygon fill="midnightblue" stroke="midnightblue" points="60.1812,-77.1565 49.6934,-75.6545 56.9555,-83.3689 60.1812,-77.1565"/>
</g>
<!-- Node9&#45;&gt;Node4 -->
<g id="edge14" class="edge"><title>Node9&#45;&gt;Node4</title>
<path fill="none" stroke="midnightblue" d="M139.668,-112.083C141.811,-104.849 144.904,-94.4087 147.575,-85.3968"/>
<polygon fill="midnightblue" stroke="midnightblue" points="150.947,-86.3334 150.433,-75.7511 144.236,-84.3447 150.947,-86.3334"/>
</g>
<!-- Node9&#45;&gt;Node8 -->
<g id="edge13" class="edge"><title>Node9&#45;&gt;Node8</title>
<path fill="none" stroke="midnightblue" d="M148.915,-112.438C168.002,-98.9907 207.001,-72.7317 243.025,-56 273.36,-41.9112 309.355,-30.2062 336.692,-22.2686"/>
<polygon fill="midnightblue" stroke="midnightblue" points="337.688,-25.6242 346.346,-19.5172 335.769,-18.8923 337.688,-25.6242"/>
</g>
<!-- Node10&#45;&gt;Node5 -->
<g id="edge16" class="edge"><title>Node10&#45;&gt;Node5</title>
<path fill="none" stroke="midnightblue" d="M301.695,-56.083C301.433,-49.0059 301.057,-38.8611 300.729,-29.9865"/>
<polygon fill="midnightblue" stroke="midnightblue" points="304.217,-29.6147 300.35,-19.7511 297.222,-29.8738 304.217,-29.6147"/>
</g>
<!-- Node11&#45;&gt;Node8 -->
<g id="edge18" class="edge"><title>Node11&#45;&gt;Node8</title>
<path fill="none" stroke="midnightblue" d="M346.762,-112.478C350.618,-103.506 356.669,-88.9162 361.025,-76 366.236,-60.5534 371.103,-42.6839 374.458,-29.595"/>
<polygon fill="midnightblue" stroke="midnightblue" points="377.951,-30.0554 376.989,-19.5043 371.162,-28.3524 377.951,-30.0554"/>
</g>
</g>
</svg>
