<?xml version="1.0" encoding="UTF-8" standalone="no"?>
<!DOCTYPE svg PUBLIC "-//W3C//DTD SVG 1.1//EN"
 "http://www.w3.org/Graphics/SVG/1.1/DTD/svg11.dtd">
<!-- Generated by graphviz version 2.38.0 (20140413.2041)
 -->
<!-- Title: src/driver.cpp Pages: 1 -->
<svg width="785pt" height="308pt"
 viewBox="0.00 0.00 784.50 308.00" xmlns="http://www.w3.org/2000/svg" xmlns:xlink="http://www.w3.org/1999/xlink">
<g id="graph0" class="graph" transform="scale(1 1) rotate(0) translate(4 304)">
<title>src/driver.cpp</title>
<!-- Node0 -->
<g id="node1" class="node"><title>Node0</title>
<polygon fill="#bfbfbf" stroke="black" points="181.5,-280.5 181.5,-299.5 255.5,-299.5 255.5,-280.5 181.5,-280.5"/>
<text text-anchor="middle" x="218.5" y="-287.5" font-family="Helvetica,sans-Serif" font-size="10.00">src/driver.cpp</text>
</g>
<!-- Node1 -->
<g id="node2" class="node"><title>Node1</title>
<polygon fill="none" stroke="#bfbfbf" points="0,-224.5 0,-243.5 45,-243.5 45,-224.5 0,-224.5"/>
<text text-anchor="middle" x="22.5" y="-231.5" font-family="Helvetica,sans-Serif" font-size="10.00">cstdlib</text>
</g>
<!-- Node0&#45;&gt;Node1 -->
<g id="edge1" class="edge"><title>Node0&#45;&gt;Node1</title>
<path fill="none" stroke="midnightblue" d="M187.044,-280.433C155.952,-271.95 106.776,-258.497 54.9289,-244.106"/>
<polygon fill="midnightblue" stroke="midnightblue" points="55.7926,-240.714 45.2206,-241.409 53.9189,-247.458 55.7926,-240.714"/>
</g>
<!-- Node2 -->
<g id="node3" class="node"><title>Node2</title>
<polygon fill="none" stroke="#bfbfbf" points="63,-224.5 63,-243.5 104,-243.5 104,-224.5 63,-224.5"/>
<text text-anchor="middle" x="83.5" y="-231.5" font-family="Helvetica,sans-Serif" font-size="10.00">ctime</text>
</g>
<!-- Node0&#45;&gt;Node2 -->
<g id="edge2" class="edge"><title>Node0&#45;&gt;Node2</title>
<path fill="none" stroke="midnightblue" d="M197.109,-280.444C174.661,-271.465 139.182,-257.273 113.847,-247.139"/>
<polygon fill="midnightblue" stroke="midnightblue" points="114.932,-243.803 104.347,-243.339 112.332,-250.303 114.932,-243.803"/>
</g>
<!-- Node3 -->
<g id="node4" class="node"><title>Node3</title>
<polygon fill="none" stroke="#bfbfbf" points="122,-224.5 122,-243.5 171,-243.5 171,-224.5 122,-224.5"/>
<text text-anchor="middle" x="146.5" y="-231.5" font-family="Helvetica,sans-Serif" font-size="10.00">fstream</text>
</g>
<!-- Node0&#45;&gt;Node3 -->
<g id="edge3" class="edge"><title>Node0&#45;&gt;Node3</title>
<path fill="none" stroke="midnightblue" d="M206.932,-280.324C196.08,-272.185 179.619,-259.839 166.617,-250.087"/>
<polygon fill="midnightblue" stroke="midnightblue" points="168.379,-247.034 158.279,-243.834 164.179,-252.634 168.379,-247.034"/>
</g>
<!-- Node4 -->
<g id="node5" class="node"><title>Node4</title>
<polygon fill="none" stroke="#bfbfbf" points="197.5,-0.5 197.5,-19.5 251.5,-19.5 251.5,-0.5 197.5,-0.5"/>
<text text-anchor="middle" x="224.5" y="-7.5" font-family="Helvetica,sans-Serif" font-size="10.00">iostream</text>
</g>
<!-- Node0&#45;&gt;Node4 -->
<g id="edge4" class="edge"><title>Node0&#45;&gt;Node4</title>
<path fill="none" stroke="midnightblue" d="M215.938,-280.249C210.751,-261.738 199.5,-217.179 199.5,-179 199.5,-179 199.5,-179 199.5,-121 199.5,-87.9952 210.334,-50.7743 217.738,-29.1916"/>
<polygon fill="midnightblue" stroke="midnightblue" points="221.065,-30.282 221.128,-19.6873 214.472,-27.9302 221.065,-30.282"/>
</g>
<!-- Node5 -->
<g id="node6" class="node"><title>Node5</title>
<polygon fill="none" stroke="#bfbfbf" points="331,-224.5 331,-243.5 374,-243.5 374,-224.5 331,-224.5"/>
<text text-anchor="middle" x="352.5" y="-231.5" font-family="Helvetica,sans-Serif" font-size="10.00">queue</text>
</g>
<!-- Node0&#45;&gt;Node5 -->
<g id="edge5" class="edge"><title>Node0&#45;&gt;Node5</title>
<path fill="none" stroke="midnightblue" d="M239.733,-280.444C261.884,-271.517 296.819,-257.439 321.936,-247.317"/>
<polygon fill="midnightblue" stroke="midnightblue" points="323.4,-250.501 331.367,-243.516 320.783,-244.008 323.4,-250.501"/>
</g>
<!-- Node6 -->
<g id="node7" class="node"><title>Node6</title>
<polygon fill="none" stroke="#bfbfbf" points="392.5,-224.5 392.5,-243.5 444.5,-243.5 444.5,-224.5 392.5,-224.5"/>
<text text-anchor="middle" x="418.5" y="-231.5" font-family="Helvetica,sans-Serif" font-size="10.00">sstream</text>
</g>
<!-- Node0&#45;&gt;Node6 -->
<g id="edge6" class="edge"><title>Node0&#45;&gt;Node6</title>
<path fill="none" stroke="midnightblue" d="M250.191,-280.444C286.133,-270.739 344.629,-254.945 382.329,-244.766"/>
<polygon fill="midnightblue" stroke="midnightblue" points="383.633,-248.039 392.375,-242.054 381.808,-241.281 383.633,-248.039"/>
</g>
<!-- Node7 -->
<g id="node8" class="node"><title>Node7</title>
<polygon fill="none" stroke="#bfbfbf" points="295,-0.5 295,-19.5 336,-19.5 336,-0.5 295,-0.5"/>
<text text-anchor="middle" x="315.5" y="-7.5" font-family="Helvetica,sans-Serif" font-size="10.00">string</text>
</g>
<!-- Node0&#45;&gt;Node7 -->
<g id="edge7" class="edge"><title>Node0&#45;&gt;Node7</title>
<path fill="none" stroke="midnightblue" d="M221.062,-280.249C226.249,-261.738 237.5,-217.179 237.5,-179 237.5,-179 237.5,-179 237.5,-121 237.5,-90.7745 240.316,-80.8653 257.5,-56 266.219,-43.3841 279.555,-32.6861 291.242,-24.8903"/>
<polygon fill="midnightblue" stroke="midnightblue" points="293.171,-27.812 299.754,-19.5108 289.431,-21.8947 293.171,-27.812"/>
</g>
<!-- Node8 -->
<g id="node9" class="node"><title>Node8</title>
<g id="a_node9"><a xlink:href="driver_8h.html" target="_top" xlink:title="driver.h">
<polygon fill="none" stroke="black" points="266,-224.5 266,-243.5 313,-243.5 313,-224.5 266,-224.5"/>
<text text-anchor="middle" x="289.5" y="-231.5" font-family="Helvetica,sans-Serif" font-size="10.00">driver.h</text>
</a>
</g>
</g>
<!-- Node0&#45;&gt;Node8 -->
<g id="edge8" class="edge"><title>Node0&#45;&gt;Node8</title>
<path fill="none" stroke="midnightblue" d="M229.907,-280.324C240.609,-272.185 256.841,-259.839 269.663,-250.087"/>
<polygon fill="midnightblue" stroke="midnightblue" points="272.044,-252.673 277.885,-243.834 267.807,-247.102 272.044,-252.673"/>
</g>
<!-- Node9 -->
<g id="node10" class="node"><title>Node9</title>
<g id="a_node10"><a xlink:href="zoo_8h.html" target="_top" xlink:title="zoo.h">
<polygon fill="none" stroke="black" points="490,-168.5 490,-187.5 531,-187.5 531,-168.5 490,-168.5"/>
<text text-anchor="middle" x="510.5" y="-175.5" font-family="Helvetica,sans-Serif" font-size="10.00">zoo.h</text>
</a>
</g>
</g>
<!-- Node8&#45;&gt;Node9 -->
<g id="edge9" class="edge"><title>Node8&#45;&gt;Node9</title>
<path fill="none" stroke="midnightblue" d="M313.269,-226.422C316.371,-225.592 319.508,-224.766 322.5,-224 377.688,-209.873 442.345,-194.696 479.65,-186.072"/>
<polygon fill="midnightblue" stroke="midnightblue" points="480.904,-189.375 489.862,-183.717 479.331,-182.554 480.904,-189.375"/>
</g>
<!-- Node10 -->
<g id="node11" class="node"><title>Node10</title>
<polygon fill="none" stroke="#bfbfbf" points="481.5,-0.5 481.5,-19.5 511.5,-19.5 511.5,-0.5 481.5,-0.5"/>
<text text-anchor="middle" x="496.5" y="-7.5" font-family="Helvetica,sans-Serif" font-size="10.00">set</text>
</g>
<!-- Node9&#45;&gt;Node10 -->
<g id="edge10" class="edge"><title>Node9&#45;&gt;Node10</title>
<path fill="none" stroke="midnightblue" d="M505.37,-168.407C500.442,-159.614 493.34,-145.381 490.5,-132 482.924,-96.2991 488.375,-53.4044 492.673,-29.4699"/>
<polygon fill="midnightblue" stroke="midnightblue" points="496.114,-30.111 494.573,-19.6289 489.241,-28.7843 496.114,-30.111"/>
</g>
<!-- Node11 -->
<g id="node12" class="node"><title>Node11</title>
<polygon fill="none" stroke="#bfbfbf" points="600.5,-56.5 600.5,-75.5 642.5,-75.5 642.5,-56.5 600.5,-56.5"/>
<text text-anchor="middle" x="621.5" y="-63.5" font-family="Helvetica,sans-Serif" font-size="10.00">vector</text>
</g>
<!-- Node9&#45;&gt;Node11 -->
<g id="edge11" class="edge"><title>Node9&#45;&gt;Node11</title>
<path fill="none" stroke="midnightblue" d="M531.272,-174.101C555.213,-169.581 593.787,-158.439 613.5,-132 623.367,-118.766 624.615,-99.636 623.847,-85.5544"/>
<polygon fill="midnightblue" stroke="midnightblue" points="627.329,-85.189 622.925,-75.5526 620.358,-85.8318 627.329,-85.189"/>
</g>
<!-- Node12 -->
<g id="node13" class="node"><title>Node12</title>
<g id="a_node13"><a xlink:href="animal_8h.html" target="_top" xlink:title="animal/animal.h">
<polygon fill="none" stroke="black" points="383,-56.5 383,-75.5 468,-75.5 468,-56.5 383,-56.5"/>
<text text-anchor="middle" x="425.5" y="-63.5" font-family="Helvetica,sans-Serif" font-size="10.00">animal/animal.h</text>
</a>
</g>
</g>
<!-- Node9&#45;&gt;Node12 -->
<g id="edge12" class="edge"><title>Node9&#45;&gt;Node12</title>
<path fill="none" stroke="midnightblue" d="M497.105,-168.329C485.23,-160.11 468.031,-146.84 456.5,-132 445.484,-117.822 437.072,-99.0959 431.809,-85.3863"/>
<polygon fill="midnightblue" stroke="midnightblue" points="434.977,-83.8547 428.274,-75.6496 428.397,-86.2437 434.977,-83.8547"/>
</g>
<!-- Node14 -->
<g id="node15" class="node"><title>Node14</title>
<g id="a_node15"><a xlink:href="point_8h.html" target="_top" xlink:title="../misc/point.h">
<polygon fill="none" stroke="black" points="582,-0.5 582,-19.5 661,-19.5 661,-0.5 582,-0.5"/>
<text text-anchor="middle" x="621.5" y="-7.5" font-family="Helvetica,sans-Serif" font-size="10.00">../misc/point.h</text>
</a>
</g>
</g>
<!-- Node9&#45;&gt;Node14 -->
<g id="edge27" class="edge"><title>Node9&#45;&gt;Node14</title>
<path fill="none" stroke="midnightblue" d="M531.358,-174.65C558.051,-170.569 604.104,-159.755 631.5,-132 656.036,-107.142 661.622,-89.4291 651.5,-56 648.383,-45.7048 642.048,-35.612 635.999,-27.6023"/>
<polygon fill="midnightblue" stroke="midnightblue" points="638.719,-25.3995 629.714,-19.8175 633.272,-29.7968 638.719,-25.3995"/>
</g>
<!-- Node15 -->
<g id="node16" class="node"><title>Node15</title>
<g id="a_node16"><a xlink:href="cage_8h.html" target="_top" xlink:title="infrastructure/cage.h">
<polygon fill="none" stroke="black" points="499,-112.5 499,-131.5 604,-131.5 604,-112.5 499,-112.5"/>
<text text-anchor="middle" x="551.5" y="-119.5" font-family="Helvetica,sans-Serif" font-size="10.00">infrastructure/cage.h</text>
</a>
</g>
</g>
<!-- Node9&#45;&gt;Node15 -->
<g id="edge18" class="edge"><title>Node9&#45;&gt;Node15</title>
<path fill="none" stroke="midnightblue" d="M517.27,-168.083C523.062,-160.455 531.558,-149.264 538.638,-139.941"/>
<polygon fill="midnightblue" stroke="midnightblue" points="541.596,-141.832 544.856,-131.751 536.021,-137.599 541.596,-141.832"/>
</g>
<!-- Node16 -->
<g id="node17" class="node"><title>Node16</title>
<g id="a_node17"><a xlink:href="cell_8h.html" target="_top" xlink:title="infrastructure/cell.h">
<polygon fill="none" stroke="black" points="266,-56.5 266,-75.5 365,-75.5 365,-56.5 266,-56.5"/>
<text text-anchor="middle" x="315.5" y="-63.5" font-family="Helvetica,sans-Serif" font-size="10.00">infrastructure/cell.h</text>
</a>
</g>
</g>
<!-- Node9&#45;&gt;Node16 -->
<g id="edge23" class="edge"><title>Node9&#45;&gt;Node16</title>
<path fill="none" stroke="midnightblue" d="M495.199,-168.368C461.381,-149.292 380.067,-103.422 339.441,-80.5054"/>
<polygon fill="midnightblue" stroke="midnightblue" points="341.16,-77.4563 330.73,-75.5914 337.72,-83.5531 341.16,-77.4563"/>
</g>
<!-- Node17 -->
<g id="node18" class="node"><title>Node17</title>
<g id="a_node18"><a xlink:href="person_8h.html" target="_top" xlink:title="misc/person.h">
<polygon fill="none" stroke="black" points="698.5,-112.5 698.5,-131.5 776.5,-131.5 776.5,-112.5 698.5,-112.5"/>
<text text-anchor="middle" x="737.5" y="-119.5" font-family="Helvetica,sans-Serif" font-size="10.00">misc/person.h</text>
</a>
</g>
</g>
<!-- Node9&#45;&gt;Node17 -->
<g id="edge25" class="edge"><title>Node9&#45;&gt;Node17</title>
<path fill="none" stroke="midnightblue" d="M531.045,-172.113C567.114,-163.532 642.64,-145.566 691.656,-133.906"/>
<polygon fill="midnightblue" stroke="midnightblue" points="692.771,-137.238 701.69,-131.519 691.151,-130.428 692.771,-137.238"/>
</g>
<!-- Node12&#45;&gt;Node4 -->
<g id="edge15" class="edge"><title>Node12&#45;&gt;Node4</title>
<path fill="none" stroke="midnightblue" d="M393.651,-56.4435C357.832,-46.8205 299.727,-31.2102 261.811,-21.0239"/>
<polygon fill="midnightblue" stroke="midnightblue" points="262.253,-17.5187 251.688,-18.3042 260.437,-24.279 262.253,-17.5187"/>
</g>
<!-- Node12&#45;&gt;Node7 -->
<g id="edge14" class="edge"><title>Node12&#45;&gt;Node7</title>
<path fill="none" stroke="midnightblue" d="M407.827,-56.324C390.106,-47.6247 362.597,-34.1202 342.212,-24.113"/>
<polygon fill="midnightblue" stroke="midnightblue" points="343.649,-20.9195 333.13,-19.6545 340.564,-27.2031 343.649,-20.9195"/>
</g>
<!-- Node12&#45;&gt;Node10 -->
<g id="edge13" class="edge"><title>Node12&#45;&gt;Node10</title>
<path fill="none" stroke="midnightblue" d="M436.907,-56.324C447.609,-48.1849 463.841,-35.8395 476.663,-26.0874"/>
<polygon fill="midnightblue" stroke="midnightblue" points="479.044,-28.6734 484.885,-19.8339 474.807,-23.1018 479.044,-28.6734"/>
</g>
<!-- Node13 -->
<g id="node14" class="node"><title>Node13</title>
<g id="a_node14"><a xlink:href="animalfood_8h.html" target="_top" xlink:title="animalfood.h">
<polygon fill="none" stroke="black" points="390,-0.5 390,-19.5 461,-19.5 461,-0.5 390,-0.5"/>
<text text-anchor="middle" x="425.5" y="-7.5" font-family="Helvetica,sans-Serif" font-size="10.00">animalfood.h</text>
</a>
</g>
</g>
<!-- Node12&#45;&gt;Node13 -->
<g id="edge16" class="edge"><title>Node12&#45;&gt;Node13</title>
<path fill="none" stroke="midnightblue" d="M425.5,-56.083C425.5,-49.0059 425.5,-38.8611 425.5,-29.9865"/>
<polygon fill="midnightblue" stroke="midnightblue" points="429,-29.751 425.5,-19.7511 422,-29.7511 429,-29.751"/>
</g>
<!-- Node12&#45;&gt;Node14 -->
<g id="edge17" class="edge"><title>Node12&#45;&gt;Node14</title>
<path fill="none" stroke="midnightblue" d="M456.557,-56.4435C490.103,-47.2011 543.697,-32.4356 580.641,-22.2572"/>
<polygon fill="midnightblue" stroke="midnightblue" points="581.877,-25.5469 590.589,-19.5164 580.018,-18.7984 581.877,-25.5469"/>
</g>
<!-- Node15&#45;&gt;Node10 -->
<g id="edge19" class="edge"><title>Node15&#45;&gt;Node10</title>
<path fill="none" stroke="midnightblue" d="M547.184,-112.368C538.188,-94.376 517.275,-52.5503 505.313,-28.6267"/>
<polygon fill="midnightblue" stroke="midnightblue" points="508.398,-26.9704 500.796,-19.5914 502.137,-30.101 508.398,-26.9704"/>
</g>
<!-- Node15&#45;&gt;Node11 -->
<g id="edge20" class="edge"><title>Node15&#45;&gt;Node11</title>
<path fill="none" stroke="midnightblue" d="M562.747,-112.324C573.297,-104.185 589.301,-91.8395 601.942,-82.0874"/>
<polygon fill="midnightblue" stroke="midnightblue" points="604.269,-84.7132 610.049,-75.8339 599.993,-79.1707 604.269,-84.7132"/>
</g>
<!-- Node15&#45;&gt;Node12 -->
<g id="edge22" class="edge"><title>Node15&#45;&gt;Node12</title>
<path fill="none" stroke="midnightblue" d="M531.535,-112.444C510.891,-103.596 478.437,-89.6875 454.868,-79.5865"/>
<polygon fill="midnightblue" stroke="midnightblue" points="455.942,-76.2387 445.372,-75.5164 453.184,-82.6727 455.942,-76.2387"/>
</g>
<!-- Node15&#45;&gt;Node14 -->
<g id="edge21" class="edge"><title>Node15&#45;&gt;Node14</title>
<path fill="none" stroke="midnightblue" d="M556.834,-112.105C564.408,-99.5264 578.776,-75.8589 591.5,-56 597.462,-46.6946 604.284,-36.4332 609.914,-28.062"/>
<polygon fill="midnightblue" stroke="midnightblue" points="612.956,-29.811 615.655,-19.5656 607.156,-25.8917 612.956,-29.811"/>
</g>
<!-- Node16&#45;&gt;Node7 -->
<g id="edge24" class="edge"><title>Node16&#45;&gt;Node7</title>
<path fill="none" stroke="midnightblue" d="M315.5,-56.083C315.5,-49.0059 315.5,-38.8611 315.5,-29.9865"/>
<polygon fill="midnightblue" stroke="midnightblue" points="319,-29.751 315.5,-19.7511 312,-29.7511 319,-29.751"/>
</g>
<!-- Node17&#45;&gt;Node14 -->
<g id="edge26" class="edge"><title>Node17&#45;&gt;Node14</title>
<path fill="none" stroke="midnightblue" d="M731.619,-112.391C722.461,-99.3352 703.827,-74.1313 684.5,-56 672.116,-44.3817 656.612,-33.2713 644.083,-24.997"/>
<polygon fill="midnightblue" stroke="midnightblue" points="645.874,-21.9871 635.573,-19.5066 642.079,-27.8691 645.874,-21.9871"/>
</g>
</g>
</svg>
