<?xml version="1.0" encoding="UTF-8" standalone="no"?>
<!DOCTYPE svg PUBLIC "-//W3C//DTD SVG 1.1//EN"
 "http://www.w3.org/Graphics/SVG/1.1/DTD/svg11.dtd">
<!-- Generated by graphviz version 2.38.0 (20140413.2041)
 -->
<!-- Title: src/misc/point.h Pages: 1 -->
<svg width="532pt" height="330pt"
 viewBox="0.00 0.00 532.00 330.00" xmlns="http://www.w3.org/2000/svg" xmlns:xlink="http://www.w3.org/1999/xlink">
<g id="graph0" class="graph" transform="scale(1 1) rotate(0) translate(4 326)">
<title>src/misc/point.h</title>
<!-- Node1 -->
<g id="node1" class="node"><title>Node1</title>
<polygon fill="#bfbfbf" stroke="black" points="242.5,-302.5 242.5,-321.5 328.5,-321.5 328.5,-302.5 242.5,-302.5"/>
<text text-anchor="middle" x="285.5" y="-309.5" font-family="Helvetica,sans-Serif" font-size="10.00">src/misc/point.h</text>
</g>
<!-- Node2 -->
<g id="node2" class="node"><title>Node2</title>
<g id="a_node2"><a xlink:href="animal_8h.html" target="_top" xlink:title="src/animal/animal.h">
<polygon fill="none" stroke="black" points="135,-246.5 135,-265.5 236,-265.5 236,-246.5 135,-246.5"/>
<text text-anchor="middle" x="185.5" y="-253.5" font-family="Helvetica,sans-Serif" font-size="10.00">src/animal/animal.h</text>
</a>
</g>
</g>
<!-- Node1&#45;&gt;Node2 -->
<g id="edge1" class="edge"><title>Node1&#45;&gt;Node2</title>
<path fill="none" stroke="midnightblue" d="M260.412,-297.453C241.951,-287.483 217.403,-274.228 201.527,-265.655"/>
<polygon fill="midnightblue" stroke="midnightblue" points="258.971,-300.652 269.433,-302.324 262.297,-294.493 258.971,-300.652"/>
</g>
<!-- Node4 -->
<g id="node4" class="node"><title>Node4</title>
<g id="a_node4"><a xlink:href="zoo_8h.html" target="_top" xlink:title="src/zoo.h">
<polygon fill="none" stroke="black" points="238,-118 238,-137 295,-137 295,-118 238,-118"/>
<text text-anchor="middle" x="266.5" y="-125" font-family="Helvetica,sans-Serif" font-size="10.00">src/zoo.h</text>
</a>
</g>
</g>
<!-- Node1&#45;&gt;Node4 -->
<g id="edge15" class="edge"><title>Node1&#45;&gt;Node4</title>
<path fill="none" stroke="midnightblue" d="M283.545,-292.22C279.495,-253.317 270.322,-165.213 267.407,-137.214"/>
<polygon fill="midnightblue" stroke="midnightblue" points="280.067,-292.614 284.584,-302.198 287.029,-291.889 280.067,-292.614"/>
</g>
<!-- Node9 -->
<g id="node9" class="node"><title>Node9</title>
<g id="a_node9"><a xlink:href="cage_8h.html" target="_top" xlink:title="src/infrastructure\l/cage.h">
<polygon fill="none" stroke="black" points="0,-179.5 0,-209.5 89,-209.5 89,-179.5 0,-179.5"/>
<text text-anchor="start" x="8" y="-197.5" font-family="Helvetica,sans-Serif" font-size="10.00">src/infrastructure</text>
<text text-anchor="middle" x="44.5" y="-186.5" font-family="Helvetica,sans-Serif" font-size="10.00">/cage.h</text>
</a>
</g>
</g>
<!-- Node1&#45;&gt;Node9 -->
<g id="edge11" class="edge"><title>Node1&#45;&gt;Node9</title>
<path fill="none" stroke="midnightblue" d="M232.316,-302.184C200.06,-295.376 158.834,-284.003 125.5,-266 98.106,-251.205 71.9828,-225.712 57.1301,-209.774"/>
<polygon fill="midnightblue" stroke="midnightblue" points="231.956,-305.682 242.452,-304.237 233.346,-298.822 231.956,-305.682"/>
</g>
<!-- Node11 -->
<g id="node11" class="node"><title>Node11</title>
<g id="a_node11"><a xlink:href="person_8h.html" target="_top" xlink:title="src/misc/person.h">
<polygon fill="none" stroke="black" points="314,-246.5 314,-265.5 409,-265.5 409,-246.5 314,-246.5"/>
<text text-anchor="middle" x="361.5" y="-253.5" font-family="Helvetica,sans-Serif" font-size="10.00">src/misc/person.h</text>
</a>
</g>
</g>
<!-- Node1&#45;&gt;Node11 -->
<g id="edge12" class="edge"><title>Node1&#45;&gt;Node11</title>
<path fill="none" stroke="midnightblue" d="M306.076,-296.38C319.812,-286.62 337.425,-274.106 349.067,-265.834"/>
<polygon fill="midnightblue" stroke="midnightblue" points="303.835,-293.679 297.711,-302.324 307.89,-299.385 303.835,-293.679"/>
</g>
<!-- Node13 -->
<g id="node13" class="node"><title>Node13</title>
<g id="a_node13"><a xlink:href="point_8cpp.html" target="_top" xlink:title="src/misc/point.cpp">
<polygon fill="none" stroke="black" points="427,-246.5 427,-265.5 524,-265.5 524,-246.5 427,-246.5"/>
<text text-anchor="middle" x="475.5" y="-253.5" font-family="Helvetica,sans-Serif" font-size="10.00">src/misc/point.cpp</text>
</a>
</g>
</g>
<!-- Node1&#45;&gt;Node13 -->
<g id="edge16" class="edge"><title>Node1&#45;&gt;Node13</title>
<path fill="none" stroke="midnightblue" d="M325.264,-299.699C361.123,-289.507 413.071,-274.743 445.535,-265.516"/>
<polygon fill="midnightblue" stroke="midnightblue" points="324.268,-296.343 315.606,-302.444 326.182,-303.076 324.268,-296.343"/>
</g>
<!-- Node3 -->
<g id="node3" class="node"><title>Node3</title>
<g id="a_node3"><a xlink:href="animal_8cpp.html" target="_top" xlink:title="src/animal/animal.cpp">
<polygon fill="none" stroke="black" points="107.5,-185 107.5,-204 219.5,-204 219.5,-185 107.5,-185"/>
<text text-anchor="middle" x="163.5" y="-192" font-family="Helvetica,sans-Serif" font-size="10.00">src/animal/animal.cpp</text>
</a>
</g>
</g>
<!-- Node2&#45;&gt;Node3 -->
<g id="edge2" class="edge"><title>Node2&#45;&gt;Node3</title>
<path fill="none" stroke="midnightblue" d="M178.843,-236.997C174.796,-226.05 169.813,-212.575 166.646,-204.009"/>
<polygon fill="midnightblue" stroke="midnightblue" points="175.597,-238.31 182.348,-246.475 182.163,-235.882 175.597,-238.31"/>
</g>
<!-- Node2&#45;&gt;Node4 -->
<g id="edge3" class="edge"><title>Node2&#45;&gt;Node4</title>
<path fill="none" stroke="midnightblue" d="M202.875,-239.403C211.322,-231.216 221.2,-220.682 228.5,-210 245.236,-185.51 258.061,-152.479 263.562,-137.075"/>
<polygon fill="midnightblue" stroke="midnightblue" points="200.247,-237.07 195.345,-246.462 205.034,-242.177 200.247,-237.07"/>
</g>
<!-- Node2&#45;&gt;Node9 -->
<g id="edge8" class="edge"><title>Node2&#45;&gt;Node9</title>
<path fill="none" stroke="midnightblue" d="M155.785,-242.461C132.946,-232.823 101.404,-219.513 77.7309,-209.523"/>
<polygon fill="midnightblue" stroke="midnightblue" points="154.724,-245.812 165.298,-246.475 157.446,-239.363 154.724,-245.812"/>
</g>
<!-- Node5 -->
<g id="node5" class="node"><title>Node5</title>
<g id="a_node5"><a xlink:href="driver_8h.html" target="_top" xlink:title="src/driver.h">
<polygon fill="none" stroke="black" points="192.5,-56.5 192.5,-75.5 256.5,-75.5 256.5,-56.5 192.5,-56.5"/>
<text text-anchor="middle" x="224.5" y="-63.5" font-family="Helvetica,sans-Serif" font-size="10.00">src/driver.h</text>
</a>
</g>
</g>
<!-- Node4&#45;&gt;Node5 -->
<g id="edge4" class="edge"><title>Node4&#45;&gt;Node5</title>
<path fill="none" stroke="midnightblue" d="M254.504,-109.505C246.656,-98.388 236.74,-84.3395 230.506,-75.5091"/>
<polygon fill="midnightblue" stroke="midnightblue" points="251.856,-111.824 260.482,-117.975 257.575,-107.787 251.856,-111.824"/>
</g>
<!-- Node8 -->
<g id="node8" class="node"><title>Node8</title>
<g id="a_node8"><a xlink:href="zoo_8cpp.html" target="_top" xlink:title="src/zoo.cpp">
<polygon fill="none" stroke="black" points="274.5,-56.5 274.5,-75.5 342.5,-75.5 342.5,-56.5 274.5,-56.5"/>
<text text-anchor="middle" x="308.5" y="-63.5" font-family="Helvetica,sans-Serif" font-size="10.00">src/zoo.cpp</text>
</a>
</g>
</g>
<!-- Node4&#45;&gt;Node8 -->
<g id="edge7" class="edge"><title>Node4&#45;&gt;Node8</title>
<path fill="none" stroke="midnightblue" d="M278.496,-109.505C286.344,-98.388 296.26,-84.3395 302.494,-75.5091"/>
<polygon fill="midnightblue" stroke="midnightblue" points="275.425,-107.787 272.518,-117.975 281.144,-111.824 275.425,-107.787"/>
</g>
<!-- Node6 -->
<g id="node6" class="node"><title>Node6</title>
<g id="a_node6"><a xlink:href="driver_8cpp.html" target="_top" xlink:title="src/driver.cpp">
<polygon fill="none" stroke="black" points="141.5,-0.5 141.5,-19.5 215.5,-19.5 215.5,-0.5 141.5,-0.5"/>
<text text-anchor="middle" x="178.5" y="-7.5" font-family="Helvetica,sans-Serif" font-size="10.00">src/driver.cpp</text>
</a>
</g>
</g>
<!-- Node5&#45;&gt;Node6 -->
<g id="edge5" class="edge"><title>Node5&#45;&gt;Node6</title>
<path fill="none" stroke="midnightblue" d="M210.386,-48.4314C202.324,-38.9673 192.541,-27.4827 185.955,-19.7511"/>
<polygon fill="midnightblue" stroke="midnightblue" points="207.755,-50.7402 216.904,-56.083 213.084,-46.2009 207.755,-50.7402"/>
</g>
<!-- Node7 -->
<g id="node7" class="node"><title>Node7</title>
<g id="a_node7"><a xlink:href="main_8cpp.html" target="_top" xlink:title="src/main.cpp">
<polygon fill="none" stroke="black" points="234,-0.5 234,-19.5 307,-19.5 307,-0.5 234,-0.5"/>
<text text-anchor="middle" x="270.5" y="-7.5" font-family="Helvetica,sans-Serif" font-size="10.00">src/main.cpp</text>
</a>
</g>
</g>
<!-- Node5&#45;&gt;Node7 -->
<g id="edge6" class="edge"><title>Node5&#45;&gt;Node7</title>
<path fill="none" stroke="midnightblue" d="M238.614,-48.4314C246.676,-38.9673 256.459,-27.4827 263.045,-19.7511"/>
<polygon fill="midnightblue" stroke="midnightblue" points="235.916,-46.2009 232.096,-56.083 241.245,-50.7402 235.916,-46.2009"/>
</g>
<!-- Node9&#45;&gt;Node4 -->
<g id="edge9" class="edge"><title>Node9&#45;&gt;Node4</title>
<path fill="none" stroke="midnightblue" d="M98.8185,-177.596C142.696,-164.749 202.725,-147.173 237.782,-136.908"/>
<polygon fill="midnightblue" stroke="midnightblue" points="97.7715,-174.255 89.158,-180.424 99.7386,-180.973 97.7715,-174.255"/>
</g>
<!-- Node10 -->
<g id="node10" class="node"><title>Node10</title>
<g id="a_node10"><a xlink:href="cage_8cpp.html" target="_top" xlink:title="src/infrastructure\l/cage.cpp">
<polygon fill="none" stroke="black" points="0,-112.5 0,-142.5 89,-142.5 89,-112.5 0,-112.5"/>
<text text-anchor="start" x="8" y="-130.5" font-family="Helvetica,sans-Serif" font-size="10.00">src/infrastructure</text>
<text text-anchor="middle" x="44.5" y="-119.5" font-family="Helvetica,sans-Serif" font-size="10.00">/cage.cpp</text>
</a>
</g>
</g>
<!-- Node9&#45;&gt;Node10 -->
<g id="edge10" class="edge"><title>Node9&#45;&gt;Node10</title>
<path fill="none" stroke="midnightblue" d="M44.5,-169.108C44.5,-160.154 44.5,-150.323 44.5,-142.577"/>
<polygon fill="midnightblue" stroke="midnightblue" points="41.0001,-169.396 44.5,-179.396 48.0001,-169.396 41.0001,-169.396"/>
</g>
<!-- Node11&#45;&gt;Node4 -->
<g id="edge13" class="edge"><title>Node11&#45;&gt;Node4</title>
<path fill="none" stroke="midnightblue" d="M348.823,-238.12C328.348,-210.856 288.715,-158.081 273.075,-137.256"/>
<polygon fill="midnightblue" stroke="midnightblue" points="346.166,-240.411 354.97,-246.305 351.764,-236.207 346.166,-240.411"/>
</g>
<!-- Node12 -->
<g id="node12" class="node"><title>Node12</title>
<g id="a_node12"><a xlink:href="person_8cpp.html" target="_top" xlink:title="src/misc/person.cpp">
<polygon fill="none" stroke="black" points="352,-185 352,-204 457,-204 457,-185 352,-185"/>
<text text-anchor="middle" x="404.5" y="-192" font-family="Helvetica,sans-Serif" font-size="10.00">src/misc/person.cpp</text>
</a>
</g>
</g>
<!-- Node11&#45;&gt;Node12 -->
<g id="edge14" class="edge"><title>Node11&#45;&gt;Node12</title>
<path fill="none" stroke="midnightblue" d="M373.542,-238.338C381.613,-227.169 391.905,-212.928 398.351,-204.009"/>
<polygon fill="midnightblue" stroke="midnightblue" points="370.682,-236.32 367.661,-246.475 376.355,-240.42 370.682,-236.32"/>
</g>
</g>
</svg>
