<?xml version="1.0" encoding="UTF-8" standalone="no"?>
<!DOCTYPE svg PUBLIC "-//W3C//DTD SVG 1.1//EN"
 "http://www.w3.org/Graphics/SVG/1.1/DTD/svg11.dtd">
<!-- Generated by graphviz version 2.38.0 (20140413.2041)
 -->
<!-- Title: src/infrastructure/cell.h Pages: 1 -->
<svg width="269pt" height="218pt"
 viewBox="0.00 0.00 268.50 218.00" xmlns="http://www.w3.org/2000/svg" xmlns:xlink="http://www.w3.org/1999/xlink">
<g id="graph0" class="graph" transform="scale(1 1) rotate(0) translate(4 214)">
<title>src/infrastructure/cell.h</title>
<!-- Node2 -->
<g id="node1" class="node"><title>Node2</title>
<polygon fill="#bfbfbf" stroke="black" points="125.5,-179.5 125.5,-209.5 214.5,-209.5 214.5,-179.5 125.5,-179.5"/>
<text text-anchor="start" x="133.5" y="-197.5" font-family="Helvetica,sans-Serif" font-size="10.00">src/infrastructure</text>
<text text-anchor="middle" x="170" y="-186.5" font-family="Helvetica,sans-Serif" font-size="10.00">/cell.h</text>
</g>
<!-- Node3 -->
<g id="node2" class="node"><title>Node3</title>
<g id="a_node2"><a xlink:href="zoo_8h.html" target="_top" xlink:title="src/zoo.h">
<polygon fill="none" stroke="black" points="96.5,-118 96.5,-137 153.5,-137 153.5,-118 96.5,-118"/>
<text text-anchor="middle" x="125" y="-125" font-family="Helvetica,sans-Serif" font-size="10.00">src/zoo.h</text>
</a>
</g>
</g>
<!-- Node2&#45;&gt;Node3 -->
<g id="edge1" class="edge"><title>Node2&#45;&gt;Node3</title>
<path fill="none" stroke="midnightblue" d="M154.405,-170.974C146.345,-159.332 136.976,-145.799 131.019,-137.195"/>
<polygon fill="midnightblue" stroke="midnightblue" points="151.666,-173.166 160.236,-179.396 157.421,-169.182 151.666,-173.166"/>
</g>
<!-- Node8 -->
<g id="node7" class="node"><title>Node8</title>
<g id="a_node7"><a xlink:href="cell_8cpp.html" target="_top" xlink:title="src/infrastructure\l/cell.cpp">
<polygon fill="none" stroke="black" points="171.5,-112.5 171.5,-142.5 260.5,-142.5 260.5,-112.5 171.5,-112.5"/>
<text text-anchor="start" x="179.5" y="-130.5" font-family="Helvetica,sans-Serif" font-size="10.00">src/infrastructure</text>
<text text-anchor="middle" x="216" y="-119.5" font-family="Helvetica,sans-Serif" font-size="10.00">/cell.cpp</text>
</a>
</g>
</g>
<!-- Node2&#45;&gt;Node8 -->
<g id="edge6" class="edge"><title>Node2&#45;&gt;Node8</title>
<path fill="none" stroke="midnightblue" d="M185.812,-171.157C192.52,-161.679 200.135,-150.919 206.038,-142.577"/>
<polygon fill="midnightblue" stroke="midnightblue" points="182.901,-169.211 179.981,-179.396 188.615,-173.255 182.901,-169.211"/>
</g>
<!-- Node4 -->
<g id="node3" class="node"><title>Node4</title>
<g id="a_node3"><a xlink:href="driver_8h.html" target="_top" xlink:title="src/driver.h">
<polygon fill="none" stroke="black" points="51,-56.5 51,-75.5 115,-75.5 115,-56.5 51,-56.5"/>
<text text-anchor="middle" x="83" y="-63.5" font-family="Helvetica,sans-Serif" font-size="10.00">src/driver.h</text>
</a>
</g>
</g>
<!-- Node3&#45;&gt;Node4 -->
<g id="edge2" class="edge"><title>Node3&#45;&gt;Node4</title>
<path fill="none" stroke="midnightblue" d="M113.004,-109.505C105.156,-98.388 95.2397,-84.3395 89.0064,-75.5091"/>
<polygon fill="midnightblue" stroke="midnightblue" points="110.356,-111.824 118.982,-117.975 116.075,-107.787 110.356,-111.824"/>
</g>
<!-- Node7 -->
<g id="node6" class="node"><title>Node7</title>
<g id="a_node6"><a xlink:href="zoo_8cpp.html" target="_top" xlink:title="src/zoo.cpp">
<polygon fill="none" stroke="black" points="133,-56.5 133,-75.5 201,-75.5 201,-56.5 133,-56.5"/>
<text text-anchor="middle" x="167" y="-63.5" font-family="Helvetica,sans-Serif" font-size="10.00">src/zoo.cpp</text>
</a>
</g>
</g>
<!-- Node3&#45;&gt;Node7 -->
<g id="edge5" class="edge"><title>Node3&#45;&gt;Node7</title>
<path fill="none" stroke="midnightblue" d="M136.996,-109.505C144.844,-98.388 154.76,-84.3395 160.994,-75.5091"/>
<polygon fill="midnightblue" stroke="midnightblue" points="133.925,-107.787 131.018,-117.975 139.644,-111.824 133.925,-107.787"/>
</g>
<!-- Node5 -->
<g id="node4" class="node"><title>Node5</title>
<g id="a_node4"><a xlink:href="driver_8cpp.html" target="_top" xlink:title="src/driver.cpp">
<polygon fill="none" stroke="black" points="0,-0.5 0,-19.5 74,-19.5 74,-0.5 0,-0.5"/>
<text text-anchor="middle" x="37" y="-7.5" font-family="Helvetica,sans-Serif" font-size="10.00">src/driver.cpp</text>
</a>
</g>
</g>
<!-- Node4&#45;&gt;Node5 -->
<g id="edge3" class="edge"><title>Node4&#45;&gt;Node5</title>
<path fill="none" stroke="midnightblue" d="M68.886,-48.4314C60.824,-38.9673 51.0408,-27.4827 44.4546,-19.7511"/>
<polygon fill="midnightblue" stroke="midnightblue" points="66.255,-50.7402 75.404,-56.083 71.5837,-46.2009 66.255,-50.7402"/>
</g>
<!-- Node6 -->
<g id="node5" class="node"><title>Node6</title>
<g id="a_node5"><a xlink:href="main_8cpp.html" target="_top" xlink:title="src/main.cpp">
<polygon fill="none" stroke="black" points="92.5,-0.5 92.5,-19.5 165.5,-19.5 165.5,-0.5 92.5,-0.5"/>
<text text-anchor="middle" x="129" y="-7.5" font-family="Helvetica,sans-Serif" font-size="10.00">src/main.cpp</text>
</a>
</g>
</g>
<!-- Node4&#45;&gt;Node6 -->
<g id="edge4" class="edge"><title>Node4&#45;&gt;Node6</title>
<path fill="none" stroke="midnightblue" d="M97.114,-48.4314C105.176,-38.9673 114.959,-27.4827 121.545,-19.7511"/>
<polygon fill="midnightblue" stroke="midnightblue" points="94.4163,-46.2009 90.596,-56.083 99.745,-50.7402 94.4163,-46.2009"/>
</g>
</g>
</svg>
