<?xml version="1.0" encoding="UTF-8" standalone="no"?>
<!DOCTYPE svg PUBLIC "-//W3C//DTD SVG 1.1//EN"
 "http://www.w3.org/Graphics/SVG/1.1/DTD/svg11.dtd">
<!-- Generated by graphviz version 2.38.0 (20140413.2041)
 -->
<!-- Title: Driver::Driver Pages: 1 -->
<svg width="529pt" height="598pt"
 viewBox="0.00 0.00 529.00 598.00" xmlns="http://www.w3.org/2000/svg" xmlns:xlink="http://www.w3.org/1999/xlink">
<g id="graph0" class="graph" transform="scale(1 1) rotate(0) translate(4 594)">
<title>Driver::Driver</title>
<!-- Node0 -->
<g id="node1" class="node"><title>Node0</title>
<polygon fill="#bfbfbf" stroke="black" points="0,-418.5 0,-437.5 71,-437.5 71,-418.5 0,-418.5"/>
<text text-anchor="middle" x="35.5" y="-425.5" font-family="Helvetica,sans-Serif" font-size="10.00">Driver::Driver</text>
</g>
<!-- Node1 -->
<g id="node2" class="node"><title>Node1</title>
<g id="a_node2"><a xlink:href="class_driver.html#aa8b4e139b99aad4720ce86286783dcdb" target="_top" xlink:title="Menampilkan area tertentu dalam zoo. Menampilkan area dalam zoo sesuai permintaan user...">
<polygon fill="none" stroke="black" points="117,-532.5 117,-551.5 212,-551.5 212,-532.5 117,-532.5"/>
<text text-anchor="middle" x="164.5" y="-539.5" font-family="Helvetica,sans-Serif" font-size="10.00">Driver::DisplayZoo</text>
</a>
</g>
</g>
<!-- Node0&#45;&gt;Node1 -->
<g id="edge1" class="edge"><title>Node0&#45;&gt;Node1</title>
<path fill="none" stroke="midnightblue" d="M47.3279,-437.72C69.0724,-457.238 118.261,-501.391 145.132,-525.512"/>
<polygon fill="midnightblue" stroke="midnightblue" points="142.92,-528.23 152.699,-532.305 147.596,-523.02 142.92,-528.23"/>
</g>
<!-- Node9 -->
<g id="node10" class="node"><title>Node9</title>
<g id="a_node10"><a xlink:href="class_driver.html#aa56ed0eaa789f78765708e15032d6534" target="_top" xlink:title="Melakukan tour dalam zoo. Melakukan tour sebagai Person di dalam virtual zoo. ">
<polygon fill="none" stroke="black" points="124,-418.5 124,-437.5 205,-437.5 205,-418.5 124,-418.5"/>
<text text-anchor="middle" x="164.5" y="-425.5" font-family="Helvetica,sans-Serif" font-size="10.00">Driver::TourZoo</text>
</a>
</g>
</g>
<!-- Node0&#45;&gt;Node9 -->
<g id="edge9" class="edge"><title>Node0&#45;&gt;Node9</title>
<path fill="none" stroke="midnightblue" d="M71.2033,-428C84.3231,-428 99.5235,-428 113.756,-428"/>
<polygon fill="midnightblue" stroke="midnightblue" points="113.904,-431.5 123.904,-428 113.904,-424.5 113.904,-431.5"/>
</g>
<!-- Node10 -->
<g id="node11" class="node"><title>Node10</title>
<g id="a_node11"><a xlink:href="class_driver.html#ad9677d7807a61f0a169268f3a30b40fc" target="_top" xlink:title="Menghitung jumlah makanan yang dibutuhkan. Menghitung dan menampilkan jumlah makanan yang dikonsumsi ...">
<polygon fill="none" stroke="black" points="107,-304.5 107,-323.5 222,-323.5 222,-304.5 107,-304.5"/>
<text text-anchor="middle" x="164.5" y="-311.5" font-family="Helvetica,sans-Serif" font-size="10.00">Driver::ConsumedFood</text>
</a>
</g>
</g>
<!-- Node0&#45;&gt;Node10 -->
<g id="edge10" class="edge"><title>Node0&#45;&gt;Node10</title>
<path fill="none" stroke="midnightblue" d="M47.3279,-418.28C69.0724,-398.762 118.261,-354.609 145.132,-330.488"/>
<polygon fill="midnightblue" stroke="midnightblue" points="147.596,-332.98 152.699,-323.695 142.92,-327.77 147.596,-332.98"/>
</g>
<!-- Node2 -->
<g id="node3" class="node"><title>Node2</title>
<g id="a_node3"><a xlink:href="class_zoo.html#a63315b0cdc36e0cbefb3f0c4956392f7" target="_top" xlink:title="Melakukan proses render untuk seisi zoo. ">
<polygon fill="none" stroke="black" points="284.5,-532.5 284.5,-551.5 353.5,-551.5 353.5,-532.5 284.5,-532.5"/>
<text text-anchor="middle" x="319" y="-539.5" font-family="Helvetica,sans-Serif" font-size="10.00">Zoo::Render</text>
</a>
</g>
</g>
<!-- Node1&#45;&gt;Node2 -->
<g id="edge2" class="edge"><title>Node1&#45;&gt;Node2</title>
<path fill="none" stroke="midnightblue" d="M212.084,-542C231.834,-542 254.73,-542 274.171,-542"/>
<polygon fill="midnightblue" stroke="midnightblue" points="274.279,-545.5 284.279,-542 274.279,-538.5 274.279,-545.5"/>
</g>
<!-- Node8 -->
<g id="node9" class="node"><title>Node8</title>
<g id="a_node9"><a xlink:href="class_zoo.html#aeeb130ce2285d8931562da0668e728a3" target="_top" xlink:title="Menampilkan hasil render zoo ke layar. ">
<polygon fill="none" stroke="black" points="289.5,-570.5 289.5,-589.5 348.5,-589.5 348.5,-570.5 289.5,-570.5"/>
<text text-anchor="middle" x="319" y="-577.5" font-family="Helvetica,sans-Serif" font-size="10.00">Zoo::Print</text>
</a>
</g>
</g>
<!-- Node1&#45;&gt;Node8 -->
<g id="edge8" class="edge"><title>Node1&#45;&gt;Node8</title>
<path fill="none" stroke="midnightblue" d="M203.982,-551.589C227.041,-557.335 256.264,-564.617 279.352,-570.37"/>
<polygon fill="midnightblue" stroke="midnightblue" points="278.609,-573.792 289.159,-572.813 280.302,-566.999 278.609,-573.792"/>
</g>
<!-- Node3 -->
<g id="node4" class="node"><title>Node3</title>
<g id="a_node4"><a xlink:href="class_cell.html#a895618150a1046638c30f24c23807727" target="_top" xlink:title="Mengembalikan character untuk proses render. ">
<polygon fill="none" stroke="black" points="433.5,-568.5 433.5,-587.5 503.5,-587.5 503.5,-568.5 433.5,-568.5"/>
<text text-anchor="middle" x="468.5" y="-575.5" font-family="Helvetica,sans-Serif" font-size="10.00">Cell::Render</text>
</a>
</g>
</g>
<!-- Node2&#45;&gt;Node3 -->
<g id="edge3" class="edge"><title>Node2&#45;&gt;Node3</title>
<path fill="none" stroke="midnightblue" d="M353.839,-550.259C374.491,-555.3 401.118,-561.798 423.408,-567.239"/>
<polygon fill="midnightblue" stroke="midnightblue" points="422.762,-570.684 433.307,-569.655 424.422,-563.883 422.762,-570.684"/>
</g>
<!-- Node4 -->
<g id="node5" class="node"><title>Node4</title>
<g id="a_node5"><a xlink:href="class_point.html#a28eaaae3447a8d5485a690196eb6d8da" target="_top" xlink:title="Getter nilai ordinat. ">
<polygon fill="none" stroke="black" points="434.5,-447.5 434.5,-466.5 502.5,-466.5 502.5,-447.5 434.5,-447.5"/>
<text text-anchor="middle" x="468.5" y="-454.5" font-family="Helvetica,sans-Serif" font-size="10.00">Point::GetY</text>
</a>
</g>
</g>
<!-- Node2&#45;&gt;Node4 -->
<g id="edge4" class="edge"><title>Node2&#45;&gt;Node4</title>
<path fill="none" stroke="midnightblue" d="M353.555,-534.949C362.603,-532.119 372.072,-528.245 380,-523 400.505,-509.436 396.415,-495.862 416,-481 420.883,-477.295 426.43,-473.974 432.031,-471.07"/>
<polygon fill="midnightblue" stroke="midnightblue" points="433.894,-474.058 441.399,-466.581 430.869,-467.745 433.894,-474.058"/>
</g>
<!-- Node5 -->
<g id="node6" class="node"><title>Node5</title>
<g id="a_node6"><a xlink:href="class_point.html#a1df5f9a8e3606705ebeec25384f58f8b" target="_top" xlink:title="Getter nilai absis. ">
<polygon fill="none" stroke="black" points="435.5,-400.5 435.5,-419.5 501.5,-419.5 501.5,-400.5 435.5,-400.5"/>
<text text-anchor="middle" x="468.5" y="-407.5" font-family="Helvetica,sans-Serif" font-size="10.00">Point::GetX</text>
</a>
</g>
</g>
<!-- Node2&#45;&gt;Node5 -->
<g id="edge5" class="edge"><title>Node2&#45;&gt;Node5</title>
<path fill="none" stroke="midnightblue" d="M353.793,-536.744C363.153,-533.933 372.728,-529.619 380,-523 410.34,-495.384 388.436,-468.387 416,-438 420.778,-432.733 426.784,-428.255 432.992,-424.528"/>
<polygon fill="midnightblue" stroke="midnightblue" points="434.979,-427.433 442.113,-419.6 431.652,-421.274 434.979,-427.433"/>
</g>
<!-- Node6 -->
<g id="node7" class="node"><title>Node6</title>
<g id="a_node7"><a xlink:href="class_person.html#a011a8222d921f3a5d2acfb29904104ee" target="_top" xlink:title="Getter nilai position. ">
<polygon fill="none" stroke="black" points="416.5,-490.5 416.5,-509.5 520.5,-509.5 520.5,-490.5 416.5,-490.5"/>
<text text-anchor="middle" x="468.5" y="-497.5" font-family="Helvetica,sans-Serif" font-size="10.00">Person::GetPosition</text>
</a>
</g>
</g>
<!-- Node2&#45;&gt;Node6 -->
<g id="edge6" class="edge"><title>Node2&#45;&gt;Node6</title>
<path fill="none" stroke="midnightblue" d="M353.47,-532.47C374.424,-526.503 401.635,-518.755 424.22,-512.324"/>
<polygon fill="midnightblue" stroke="midnightblue" points="425.248,-515.67 433.907,-509.565 423.331,-508.938 425.248,-515.67"/>
</g>
<!-- Node7 -->
<g id="node8" class="node"><title>Node7</title>
<g id="a_node8"><a xlink:href="class_person.html#ae0eaa14a3a6e8008ccd681f237acd804" target="_top" xlink:title="Mengembalikan character untuk proses render. ">
<polygon fill="none" stroke="black" points="426.5,-530.5 426.5,-549.5 510.5,-549.5 510.5,-530.5 426.5,-530.5"/>
<text text-anchor="middle" x="468.5" y="-537.5" font-family="Helvetica,sans-Serif" font-size="10.00">Person::Render</text>
</a>
</g>
</g>
<!-- Node2&#45;&gt;Node7 -->
<g id="edge7" class="edge"><title>Node2&#45;&gt;Node7</title>
<path fill="none" stroke="midnightblue" d="M353.839,-541.541C372.321,-541.291 395.586,-540.975 416.247,-540.695"/>
<polygon fill="midnightblue" stroke="midnightblue" points="416.509,-544.192 426.46,-540.556 416.414,-537.192 416.509,-544.192"/>
</g>
<!-- Node10&#45;&gt;Node2 -->
<g id="edge23" class="edge"><title>Node10&#45;&gt;Node2</title>
<path fill="none" stroke="midnightblue" d="M172.219,-323.579C183.693,-340.275 207.25,-376.077 222,-409 243.724,-457.489 220.444,-485.414 258,-523 262.663,-527.667 268.464,-531.189 274.606,-533.847"/>
<polygon fill="midnightblue" stroke="midnightblue" points="273.831,-537.286 284.425,-537.353 276.185,-530.694 273.831,-537.286"/>
</g>
<!-- Node10&#45;&gt;Node6 -->
<g id="edge26" class="edge"><title>Node10&#45;&gt;Node6</title>
<path fill="none" stroke="midnightblue" d="M172.236,-323.612C186.096,-342.692 219.739,-385.524 258,-409 306.406,-438.701 329.892,-420.271 380,-447 398.128,-456.67 398.561,-465.137 416,-476 421.85,-479.644 428.344,-483.087 434.693,-486.167"/>
<polygon fill="midnightblue" stroke="midnightblue" points="433.258,-489.36 443.802,-490.401 436.209,-483.012 433.258,-489.36"/>
</g>
<!-- Node10&#45;&gt;Node8 -->
<g id="edge24" class="edge"><title>Node10&#45;&gt;Node8</title>
<path fill="none" stroke="midnightblue" d="M172.667,-323.735C184.596,-340.378 208.538,-375.736 222,-409 248.044,-473.354 210.762,-510.124 258,-561 263.761,-567.205 271.532,-571.394 279.569,-574.22"/>
<polygon fill="midnightblue" stroke="midnightblue" points="278.808,-577.643 289.385,-577.034 280.737,-570.914 278.808,-577.643"/>
</g>
<!-- Node11 -->
<g id="node12" class="node"><title>Node11</title>
<g id="a_node12"><a xlink:href="class_zoo.html#a39e3e3a3ef00b301387a3244c83f5649" target="_top" xlink:title="Getter list cage dalam zoo. ">
<polygon fill="none" stroke="black" points="278,-228.5 278,-247.5 360,-247.5 360,-228.5 278,-228.5"/>
<text text-anchor="middle" x="319" y="-235.5" font-family="Helvetica,sans-Serif" font-size="10.00">Zoo::GetCages</text>
</a>
</g>
</g>
<!-- Node10&#45;&gt;Node11 -->
<g id="edge11" class="edge"><title>Node10&#45;&gt;Node11</title>
<path fill="none" stroke="midnightblue" d="M181.204,-304.33C199.34,-293.362 230.248,-275.28 258,-262 265.856,-258.241 274.464,-254.555 282.646,-251.243"/>
<polygon fill="midnightblue" stroke="midnightblue" points="283.976,-254.481 291.985,-247.545 281.399,-247.973 283.976,-254.481"/>
</g>
<!-- Node12 -->
<g id="node13" class="node"><title>Node12</title>
<g id="a_node13"><a xlink:href="class_zoo.html#a6ba87d67a1a46669b4ebcc3e429e2f4b" target="_top" xlink:title="Menetapkan jenis cell pada titik (i,j). ">
<polygon fill="none" stroke="black" points="285,-190.5 285,-209.5 353,-209.5 353,-190.5 285,-190.5"/>
<text text-anchor="middle" x="319" y="-197.5" font-family="Helvetica,sans-Serif" font-size="10.00">Zoo::SetTile</text>
</a>
</g>
</g>
<!-- Node10&#45;&gt;Node12 -->
<g id="edge12" class="edge"><title>Node10&#45;&gt;Node12</title>
<path fill="none" stroke="midnightblue" d="M172.245,-304.403C186.123,-285.351 219.795,-242.566 258,-219 263.371,-215.687 269.371,-212.902 275.445,-210.575"/>
<polygon fill="midnightblue" stroke="midnightblue" points="276.659,-213.859 284.968,-207.286 274.374,-207.243 276.659,-213.859"/>
</g>
<!-- Node13 -->
<g id="node14" class="node"><title>Node13</title>
<g id="a_node14"><a xlink:href="class_cage.html#a9c31f975197ee948dd2245c0e71d3ed9" target="_top" xlink:title="Menambahkan point P menjadi area dalam cage. ">
<polygon fill="none" stroke="black" points="276.5,-152.5 276.5,-171.5 361.5,-171.5 361.5,-152.5 276.5,-152.5"/>
<text text-anchor="middle" x="319" y="-159.5" font-family="Helvetica,sans-Serif" font-size="10.00">Cage::AddPoint</text>
</a>
</g>
</g>
<!-- Node10&#45;&gt;Node13 -->
<g id="edge13" class="edge"><title>Node10&#45;&gt;Node13</title>
<path fill="none" stroke="midnightblue" d="M169.523,-304.339C180.188,-279.911 211.578,-215.196 258,-181 260.812,-178.928 263.858,-177.078 267.035,-175.425"/>
<polygon fill="midnightblue" stroke="midnightblue" points="268.57,-178.573 276.25,-171.274 265.695,-172.19 268.57,-178.573"/>
</g>
<!-- Node14 -->
<g id="node15" class="node"><title>Node14</title>
<g id="a_node15"><a xlink:href="class_cage.html#acb411270086907509e7422401de13ca4" target="_top" xlink:title="Menambahkan animal ke dalam cage. Akan dicek terlebih dahulu apakah cage sudah penuh. ">
<polygon fill="none" stroke="black" points="273,-114.5 273,-133.5 365,-133.5 365,-114.5 273,-114.5"/>
<text text-anchor="middle" x="319" y="-121.5" font-family="Helvetica,sans-Serif" font-size="10.00">Cage::AddAnimal</text>
</a>
</g>
</g>
<!-- Node10&#45;&gt;Node14 -->
<g id="edge14" class="edge"><title>Node10&#45;&gt;Node14</title>
<path fill="none" stroke="midnightblue" d="M167.982,-304.213C175.864,-275.12 203.11,-188.377 258,-143 260.063,-141.294 262.281,-139.741 264.605,-138.327"/>
<polygon fill="midnightblue" stroke="midnightblue" points="266.679,-141.198 273.992,-133.532 263.495,-134.964 266.679,-141.198"/>
</g>
<!-- Node17 -->
<g id="node18" class="node"><title>Node17</title>
<g id="a_node18"><a xlink:href="class_zoo.html#a29c8061f54217928683bf1974647ca71" target="_top" xlink:title="Menambahkan cage baru dalam zoo. ">
<polygon fill="none" stroke="black" points="276.5,-76.5 276.5,-95.5 361.5,-95.5 361.5,-76.5 276.5,-76.5"/>
<text text-anchor="middle" x="319" y="-83.5" font-family="Helvetica,sans-Serif" font-size="10.00">Zoo::InsertCage</text>
</a>
</g>
</g>
<!-- Node10&#45;&gt;Node17 -->
<g id="edge17" class="edge"><title>Node10&#45;&gt;Node17</title>
<path fill="none" stroke="midnightblue" d="M166.893,-304.475C172.197,-271.659 194.156,-162.182 258,-105 260.811,-102.483 263.955,-100.299 267.291,-98.4043"/>
<polygon fill="midnightblue" stroke="midnightblue" points="268.949,-101.491 276.475,-94.0344 265.941,-95.1705 268.949,-101.491"/>
</g>
<!-- Node18 -->
<g id="node19" class="node"><title>Node18</title>
<g id="a_node19"><a xlink:href="class_zoo.html#ae3a73ce4c9dc8d6b53e37861371aa540" target="_top" xlink:title="Getter map. ">
<polygon fill="none" stroke="black" points="282.5,-38.5 282.5,-57.5 355.5,-57.5 355.5,-38.5 282.5,-38.5"/>
<text text-anchor="middle" x="319" y="-45.5" font-family="Helvetica,sans-Serif" font-size="10.00">Zoo::GetMap</text>
</a>
</g>
</g>
<!-- Node10&#45;&gt;Node18 -->
<g id="edge18" class="edge"><title>Node10&#45;&gt;Node18</title>
<path fill="none" stroke="midnightblue" d="M166.181,-304.34C169.286,-267.722 185.283,-136.055 258,-67 262.314,-62.9029 267.508,-59.6891 273.012,-57.1682"/>
<polygon fill="midnightblue" stroke="midnightblue" points="274.38,-60.3922 282.466,-53.5464 271.876,-53.8554 274.38,-60.3922"/>
</g>
<!-- Node19 -->
<g id="node20" class="node"><title>Node19</title>
<g id="a_node20"><a xlink:href="class_cell.html#a0f5c1240f61ab9f3cf946b133cf4c76e" target="_top" xlink:title="Getter nilai is_accessible. ">
<polygon fill="none" stroke="black" points="271.5,-0.5 271.5,-19.5 366.5,-19.5 366.5,-0.5 271.5,-0.5"/>
<text text-anchor="middle" x="319" y="-7.5" font-family="Helvetica,sans-Serif" font-size="10.00">Cell::IsAccessible</text>
</a>
</g>
</g>
<!-- Node10&#45;&gt;Node19 -->
<g id="edge19" class="edge"><title>Node10&#45;&gt;Node19</title>
<path fill="none" stroke="midnightblue" d="M165.632,-304.29C166.713,-264.241 176.233,-110.184 258,-29 259.454,-27.5565 261.017,-26.2226 262.664,-24.9899"/>
<polygon fill="midnightblue" stroke="midnightblue" points="264.767,-27.8085 271.504,-19.6313 261.138,-21.8225 264.767,-27.8085"/>
</g>
<!-- Node20 -->
<g id="node21" class="node"><title>Node20</title>
<g id="a_node21"><a xlink:href="class_zoo.html#acea4c4687f9b4edbf63761d464b6d4d3" target="_top" xlink:title="Melist semua entrance dan exit dari zoo. Mencari semua entrance dan exit dari zoo dan menyimpannya...">
<polygon fill="none" stroke="black" points="258,-494.5 258,-513.5 380,-513.5 380,-494.5 258,-494.5"/>
<text text-anchor="middle" x="319" y="-501.5" font-family="Helvetica,sans-Serif" font-size="10.00">Zoo::ListAllEntranceExit</text>
</a>
</g>
</g>
<!-- Node10&#45;&gt;Node20 -->
<g id="edge20" class="edge"><title>Node10&#45;&gt;Node20</title>
<path fill="none" stroke="midnightblue" d="M171.581,-323.538C182.279,-340.464 204.949,-376.99 222,-409 239.572,-441.987 229.84,-460.424 258,-485 259.945,-486.697 262.042,-488.243 264.246,-489.651"/>
<polygon fill="midnightblue" stroke="midnightblue" points="262.717,-492.802 273.186,-494.426 266.014,-486.628 262.717,-492.802"/>
</g>
<!-- Node21 -->
<g id="node22" class="node"><title>Node21</title>
<g id="a_node22"><a xlink:href="class_zoo.html#ae76f5003de892d1c3e389ee9726c6aaf" target="_top" xlink:title="Getter list entrance zoo. ">
<polygon fill="none" stroke="black" points="272.5,-456.5 272.5,-475.5 365.5,-475.5 365.5,-456.5 272.5,-456.5"/>
<text text-anchor="middle" x="319" y="-463.5" font-family="Helvetica,sans-Serif" font-size="10.00">Zoo::GetEntrance</text>
</a>
</g>
</g>
<!-- Node10&#45;&gt;Node21 -->
<g id="edge21" class="edge"><title>Node10&#45;&gt;Node21</title>
<path fill="none" stroke="midnightblue" d="M170.111,-323.784C181.669,-347.334 214.126,-407.754 258,-442 263.107,-445.987 268.964,-449.396 274.971,-452.285"/>
<polygon fill="midnightblue" stroke="midnightblue" points="273.884,-455.629 284.45,-456.407 276.675,-449.21 273.884,-455.629"/>
</g>
<!-- Node22 -->
<g id="node23" class="node"><title>Node22</title>
<g id="a_node23"><a xlink:href="class_person.html#aaa59e5682de803c631498648a4aa1775" target="_top" xlink:title="Menetapkan nilai position berdasarkan point p. ">
<polygon fill="none" stroke="black" points="416.5,-266.5 416.5,-285.5 520.5,-285.5 520.5,-266.5 416.5,-266.5"/>
<text text-anchor="middle" x="468.5" y="-273.5" font-family="Helvetica,sans-Serif" font-size="10.00">Person::SetPosition</text>
</a>
</g>
</g>
<!-- Node10&#45;&gt;Node22 -->
<g id="edge22" class="edge"><title>Node10&#45;&gt;Node22</title>
<path fill="none" stroke="midnightblue" d="M206.766,-304.492C222.704,-301.092 241.133,-297.489 258,-295 307.566,-287.685 364.172,-282.754 406.038,-279.752"/>
<polygon fill="midnightblue" stroke="midnightblue" points="406.351,-283.239 416.082,-279.049 405.862,-276.256 406.351,-283.239"/>
</g>
<!-- Node23 -->
<g id="node24" class="node"><title>Node23</title>
<g id="a_node24"><a xlink:href="class_zoo.html#a96521c1ca8b1c2b9c1348894f37bd5ba" target="_top" xlink:title="Getter list exit zoo. ">
<polygon fill="none" stroke="black" points="283.5,-380.5 283.5,-399.5 354.5,-399.5 354.5,-380.5 283.5,-380.5"/>
<text text-anchor="middle" x="319" y="-387.5" font-family="Helvetica,sans-Serif" font-size="10.00">Zoo::GetExit</text>
</a>
</g>
</g>
<!-- Node10&#45;&gt;Node23 -->
<g id="edge25" class="edge"><title>Node10&#45;&gt;Node23</title>
<path fill="none" stroke="midnightblue" d="M178.707,-323.592C196.15,-335.912 228.159,-357.333 258,-371 263.029,-373.303 268.416,-375.439 273.822,-377.382"/>
<polygon fill="midnightblue" stroke="midnightblue" points="272.905,-380.767 283.5,-380.669 275.156,-374.139 272.905,-380.767"/>
</g>
<!-- Node24 -->
<g id="node25" class="node"><title>Node24</title>
<g id="a_node25"><a xlink:href="class_person.html#a0dcce299b3914e4b3af67a65d7837b0b" target="_top" xlink:title="Menggerakkan person dengan mengubah posisi. ">
<polygon fill="none" stroke="black" points="281,-342.5 281,-361.5 357,-361.5 357,-342.5 281,-342.5"/>
<text text-anchor="middle" x="319" y="-349.5" font-family="Helvetica,sans-Serif" font-size="10.00">Person::Move</text>
</a>
</g>
</g>
<!-- Node10&#45;&gt;Node24 -->
<g id="edge27" class="edge"><title>Node10&#45;&gt;Node24</title>
<path fill="none" stroke="midnightblue" d="M203.982,-323.589C224.32,-328.657 249.454,-334.92 270.944,-340.275"/>
<polygon fill="midnightblue" stroke="midnightblue" points="270.297,-343.72 280.847,-342.742 271.99,-336.928 270.297,-343.72"/>
</g>
<!-- Node27 -->
<g id="node28" class="node"><title>Node27</title>
<g id="a_node28"><a xlink:href="class_person.html#aef5cd7ad333ebfc53df29097125fb199" target="_top" xlink:title="Mengembalikan nilai posisi menjadi default. Mengubah posisi person menjadi (&#45;1,&#45;1) ...">
<polygon fill="none" stroke="black" points="262,-304.5 262,-323.5 376,-323.5 376,-304.5 262,-304.5"/>
<text text-anchor="middle" x="319" y="-311.5" font-family="Helvetica,sans-Serif" font-size="10.00">Person::ResetPosition</text>
</a>
</g>
</g>
<!-- Node10&#45;&gt;Node27 -->
<g id="edge32" class="edge"><title>Node10&#45;&gt;Node27</title>
<path fill="none" stroke="midnightblue" d="M222.285,-314C231.902,-314 241.96,-314 251.793,-314"/>
<polygon fill="midnightblue" stroke="midnightblue" points="251.929,-317.5 261.929,-314 251.928,-310.5 251.929,-317.5"/>
</g>
<!-- Node15 -->
<g id="node16" class="node"><title>Node15</title>
<g id="a_node16"><a xlink:href="class_animal.html#aa90fda50322c8bea43b45b60e1d40ede" target="_top" xlink:title="Getter nilai is_wild. ">
<polygon fill="none" stroke="black" points="416,-133.5 416,-152.5 521,-152.5 521,-133.5 416,-133.5"/>
<text text-anchor="middle" x="468.5" y="-140.5" font-family="Helvetica,sans-Serif" font-size="10.00">Animal::GetBehavior</text>
</a>
</g>
</g>
<!-- Node14&#45;&gt;Node15 -->
<g id="edge15" class="edge"><title>Node14&#45;&gt;Node15</title>
<path fill="none" stroke="midnightblue" d="M365.056,-129.804C377.816,-131.447 391.933,-133.266 405.506,-135.014"/>
<polygon fill="midnightblue" stroke="midnightblue" points="405.381,-138.527 415.747,-136.333 406.276,-131.584 405.381,-138.527"/>
</g>
<!-- Node16 -->
<g id="node17" class="node"><title>Node16</title>
<g id="a_node17"><a xlink:href="class_animal.html#a72c2b5893bb874a791d3f9ac6caf2a0d" target="_top" xlink:title="Mengecek status Animal. Memeriksa apakah Animal dengan ID x merupakan musuh. ">
<polygon fill="none" stroke="black" points="423,-95.5 423,-114.5 514,-114.5 514,-95.5 423,-95.5"/>
<text text-anchor="middle" x="468.5" y="-102.5" font-family="Helvetica,sans-Serif" font-size="10.00">Animal::IsEnemy</text>
</a>
</g>
</g>
<!-- Node14&#45;&gt;Node16 -->
<g id="edge16" class="edge"><title>Node14&#45;&gt;Node16</title>
<path fill="none" stroke="midnightblue" d="M365.056,-118.196C380.137,-116.254 397.115,-114.067 412.847,-112.04"/>
<polygon fill="midnightblue" stroke="midnightblue" points="413.502,-115.485 422.973,-110.736 412.608,-108.542 413.502,-115.485"/>
</g>
<!-- Node24&#45;&gt;Node4 -->
<g id="edge29" class="edge"><title>Node24&#45;&gt;Node4</title>
<path fill="none" stroke="midnightblue" d="M357.24,-359.302C365.284,-362.058 373.359,-365.835 380,-371 403.95,-389.625 393.939,-408.172 416,-429 421.545,-434.235 428.257,-438.805 434.977,-442.65"/>
<polygon fill="midnightblue" stroke="midnightblue" points="433.561,-445.86 444.038,-447.438 436.832,-439.671 433.561,-445.86"/>
</g>
<!-- Node24&#45;&gt;Node5 -->
<g id="edge31" class="edge"><title>Node24&#45;&gt;Node5</title>
<path fill="none" stroke="midnightblue" d="M352.614,-361.594C361.562,-364.425 371.216,-367.664 380,-371 399.756,-378.503 421.456,-388.166 438.304,-395.996"/>
<polygon fill="midnightblue" stroke="midnightblue" points="437.072,-399.284 447.612,-400.364 440.046,-392.947 437.072,-399.284"/>
</g>
<!-- Node25 -->
<g id="node26" class="node"><title>Node25</title>
<g id="a_node26"><a xlink:href="class_point.html#a5f7931b69b7e2c34ec7dfab9ca82019c" target="_top" xlink:title="Menetapkan nilai ordinat Mengganti nilai ordinat menjadi _y. ">
<polygon fill="none" stroke="black" points="435,-343.5 435,-362.5 502,-362.5 502,-343.5 435,-343.5"/>
<text text-anchor="middle" x="468.5" y="-350.5" font-family="Helvetica,sans-Serif" font-size="10.00">Point::SetY</text>
</a>
</g>
</g>
<!-- Node24&#45;&gt;Node25 -->
<g id="edge28" class="edge"><title>Node24&#45;&gt;Node25</title>
<path fill="none" stroke="midnightblue" d="M357.22,-352.252C377.756,-352.392 403.347,-352.565 424.706,-352.71"/>
<polygon fill="midnightblue" stroke="midnightblue" points="424.787,-356.21 434.811,-352.778 424.835,-349.211 424.787,-356.21"/>
</g>
<!-- Node26 -->
<g id="node27" class="node"><title>Node26</title>
<g id="a_node27"><a xlink:href="class_point.html#a919355c70ffb8d6a97fabfbff301d541" target="_top" xlink:title="Menetapkan nilai absis Mengganti nilai absis menjadi _x. ">
<polygon fill="none" stroke="black" points="436,-305.5 436,-324.5 501,-324.5 501,-305.5 436,-305.5"/>
<text text-anchor="middle" x="468.5" y="-312.5" font-family="Helvetica,sans-Serif" font-size="10.00">Point::SetX</text>
</a>
</g>
</g>
<!-- Node24&#45;&gt;Node26 -->
<g id="edge30" class="edge"><title>Node24&#45;&gt;Node26</title>
<path fill="none" stroke="midnightblue" d="M357.22,-342.663C378.144,-337.415 404.316,-330.85 425.912,-325.432"/>
<polygon fill="midnightblue" stroke="midnightblue" points="426.942,-328.782 435.79,-322.954 425.239,-321.993 426.942,-328.782"/>
</g>
<!-- Node27&#45;&gt;Node22 -->
<g id="edge33" class="edge"><title>Node27&#45;&gt;Node22</title>
<path fill="none" stroke="midnightblue" d="M357.22,-304.411C376.509,-299.442 400.258,-293.323 420.771,-288.039"/>
<polygon fill="midnightblue" stroke="midnightblue" points="421.737,-291.404 430.547,-285.52 419.99,-284.626 421.737,-291.404"/>
</g>
</g>
</svg>
