<?xml version="1.0" encoding="UTF-8" standalone="no"?>
<!DOCTYPE svg PUBLIC "-//W3C//DTD SVG 1.1//EN"
 "http://www.w3.org/Graphics/SVG/1.1/DTD/svg11.dtd">
<!-- Generated by graphviz version 2.38.0 (20140413.2041)
 -->
<!-- Title: Cell::Render Pages: 1 -->
<svg width="441pt" height="66pt"
 viewBox="0.00 0.00 441.00 66.00" xmlns="http://www.w3.org/2000/svg" xmlns:xlink="http://www.w3.org/1999/xlink">
<g id="graph0" class="graph" transform="scale(1 1) rotate(0) translate(4 62)">
<title>Cell::Render</title>
<!-- Node17 -->
<g id="node1" class="node"><title>Node17</title>
<polygon fill="#bfbfbf" stroke="black" points="0,-19.5 0,-38.5 70,-38.5 70,-19.5 0,-19.5"/>
<text text-anchor="middle" x="35" y="-26.5" font-family="Helvetica,sans-Serif" font-size="10.00">Cell::Render</text>
</g>
<!-- Node18 -->
<g id="node2" class="node"><title>Node18</title>
<g id="a_node2"><a xlink:href="class_zoo.html#a63315b0cdc36e0cbefb3f0c4956392f7" target="_top" xlink:title="Melakukan proses render untuk seisi zoo. ">
<polygon fill="none" stroke="black" points="106,-19.5 106,-38.5 175,-38.5 175,-19.5 106,-19.5"/>
<text text-anchor="middle" x="140.5" y="-26.5" font-family="Helvetica,sans-Serif" font-size="10.00">Zoo::Render</text>
</a>
</g>
</g>
<!-- Node17&#45;&gt;Node18 -->
<g id="edge1" class="edge"><title>Node17&#45;&gt;Node18</title>
<path fill="none" stroke="midnightblue" d="M80.3441,-29C88.8421,-29 97.6122,-29 105.712,-29"/>
<polygon fill="midnightblue" stroke="midnightblue" points="80.1766,-25.5001 70.1766,-29 80.1766,-32.5001 80.1766,-25.5001"/>
</g>
<!-- Node19 -->
<g id="node3" class="node"><title>Node19</title>
<g id="a_node3"><a xlink:href="class_driver.html#aa8b4e139b99aad4720ce86286783dcdb" target="_top" xlink:title="Menampilkan area tertentu dalam zoo. Menampilkan area dalam zoo sesuai permintaan user...">
<polygon fill="none" stroke="black" points="221,-38.5 221,-57.5 316,-57.5 316,-38.5 221,-38.5"/>
<text text-anchor="middle" x="268.5" y="-45.5" font-family="Helvetica,sans-Serif" font-size="10.00">Driver::DisplayZoo</text>
</a>
</g>
</g>
<!-- Node18&#45;&gt;Node19 -->
<g id="edge2" class="edge"><title>Node18&#45;&gt;Node19</title>
<path fill="none" stroke="midnightblue" d="M185.465,-35.6296C196.908,-37.3551 209.275,-39.22 220.851,-40.9656"/>
<polygon fill="midnightblue" stroke="midnightblue" points="185.676,-32.1219 175.266,-34.0917 184.632,-39.0437 185.676,-32.1219"/>
</g>
<!-- Node21 -->
<g id="node5" class="node"><title>Node21</title>
<g id="a_node5"><a xlink:href="class_driver.html#ad9677d7807a61f0a169268f3a30b40fc" target="_top" xlink:title="Menghitung jumlah makanan yang dibutuhkan. Menghitung dan menampilkan jumlah makanan yang dikonsumsi ...">
<polygon fill="none" stroke="black" points="211,-0.5 211,-19.5 326,-19.5 326,-0.5 211,-0.5"/>
<text text-anchor="middle" x="268.5" y="-7.5" font-family="Helvetica,sans-Serif" font-size="10.00">Driver::ConsumedFood</text>
</a>
</g>
</g>
<!-- Node18&#45;&gt;Node21 -->
<g id="edge4" class="edge"><title>Node18&#45;&gt;Node21</title>
<path fill="none" stroke="midnightblue" d="M185.356,-22.3869C193.561,-21.1495 202.245,-19.84 210.775,-18.5538"/>
<polygon fill="midnightblue" stroke="midnightblue" points="184.632,-18.9563 175.266,-23.9083 185.676,-25.8781 184.632,-18.9563"/>
</g>
<!-- Node20 -->
<g id="node4" class="node"><title>Node20</title>
<g id="a_node4"><a xlink:href="class_driver.html#af0658d103e3e810a8e9ef0a53bb2e261" target="_top" xlink:title="Constructor Menciptakan driver yang berisi menu utama. ">
<polygon fill="none" stroke="black" points="362,-19.5 362,-38.5 433,-38.5 433,-19.5 362,-19.5"/>
<text text-anchor="middle" x="397.5" y="-26.5" font-family="Helvetica,sans-Serif" font-size="10.00">Driver::Driver</text>
</a>
</g>
</g>
<!-- Node19&#45;&gt;Node20 -->
<g id="edge3" class="edge"><title>Node19&#45;&gt;Node20</title>
<path fill="none" stroke="midnightblue" d="M326.17,-39.5218C338.338,-37.7015 350.843,-35.8305 361.873,-34.1805"/>
<polygon fill="midnightblue" stroke="midnightblue" points="325.441,-36.0918 316.069,-41.033 326.477,-43.0148 325.441,-36.0918"/>
</g>
<!-- Node21&#45;&gt;Node20 -->
<g id="edge5" class="edge"><title>Node21&#45;&gt;Node20</title>
<path fill="none" stroke="midnightblue" d="M336.319,-19.9966C345.182,-21.3225 353.958,-22.6354 361.954,-23.8317"/>
<polygon fill="midnightblue" stroke="midnightblue" points="336.722,-16.5179 326.314,-18.4997 335.686,-23.4409 336.722,-16.5179"/>
</g>
</g>
</svg>
