<?xml version="1.0" encoding="UTF-8" standalone="no"?>
<!DOCTYPE svg PUBLIC "-//W3C//DTD SVG 1.1//EN"
 "http://www.w3.org/Graphics/SVG/1.1/DTD/svg11.dtd">
<!-- Generated by graphviz version 2.38.0 (20140413.2041)
 -->
<!-- Title: Cell Pages: 1 -->
<svg width="141pt" height="270pt"
 viewBox="0.00 0.00 140.50 270.00" xmlns="http://www.w3.org/2000/svg" xmlns:xlink="http://www.w3.org/1999/xlink">
<g id="graph0" class="graph" transform="scale(1 1) rotate(0) translate(4 266)">
<title>Cell</title>
<!-- Node1 -->
<g id="node1" class="node"><title>Node1</title>
<polygon fill="#bfbfbf" stroke="black" points="5,-0.5 5,-134.5 92,-134.5 92,-0.5 5,-0.5"/>
<text text-anchor="middle" x="48.5" y="-122.5" font-family="Helvetica,sans-Serif" font-size="10.00">Cell</text>
<polyline fill="none" stroke="black" points="5,-115.5 92,-115.5 "/>
<text text-anchor="middle" x="48.5" y="-103.5" font-family="Helvetica,sans-Serif" font-size="10.00"> </text>
<polyline fill="none" stroke="black" points="5,-96.5 92,-96.5 "/>
<text text-anchor="start" x="13" y="-84.5" font-family="Helvetica,sans-Serif" font-size="10.00">+ Cell()</text>
<text text-anchor="start" x="13" y="-73.5" font-family="Helvetica,sans-Serif" font-size="10.00">+ Cell()</text>
<text text-anchor="start" x="13" y="-62.5" font-family="Helvetica,sans-Serif" font-size="10.00">+ IsAccessible()</text>
<text text-anchor="start" x="13" y="-51.5" font-family="Helvetica,sans-Serif" font-size="10.00">+ GetType()</text>
<text text-anchor="start" x="13" y="-40.5" font-family="Helvetica,sans-Serif" font-size="10.00">+ GetName()</text>
<text text-anchor="start" x="13" y="-29.5" font-family="Helvetica,sans-Serif" font-size="10.00">+ IsEntrance()</text>
<text text-anchor="start" x="13" y="-18.5" font-family="Helvetica,sans-Serif" font-size="10.00">+ IsExit()</text>
<text text-anchor="start" x="13" y="-7.5" font-family="Helvetica,sans-Serif" font-size="10.00">+ Render()</text>
</g>
<!-- Node2 -->
<g id="node2" class="node"><title>Node2</title>
<polygon fill="none" stroke="#bfbfbf" points="0,-204.5 0,-261.5 41,-261.5 41,-204.5 0,-204.5"/>
<text text-anchor="middle" x="20.5" y="-249.5" font-family="Helvetica,sans-Serif" font-size="10.00">string</text>
<polyline fill="none" stroke="#bfbfbf" points="0,-242.5 41,-242.5 "/>
<text text-anchor="middle" x="20.5" y="-230.5" font-family="Helvetica,sans-Serif" font-size="10.00"> </text>
<polyline fill="none" stroke="#bfbfbf" points="0,-223.5 41,-223.5 "/>
<text text-anchor="middle" x="20.5" y="-211.5" font-family="Helvetica,sans-Serif" font-size="10.00"> </text>
</g>
<!-- Node2&#45;&gt;Node1 -->
<g id="edge1" class="edge"><title>Node2&#45;&gt;Node1</title>
<path fill="none" stroke="#404040" d="M20.3731,-204.416C20.6839,-189.169 21.7031,-169.937 24.5,-153 24.8572,-150.837 25.2499,-148.651 25.6731,-146.45"/>
<polygon fill="none" stroke="#404040" points="25.6969,-146.338 23.035,-139.636 28.1975,-134.601 30.8594,-141.303 25.6969,-146.338"/>
<text text-anchor="middle" x="39.5" y="-172.5" font-family="Helvetica,sans-Serif" font-size="10.00"> #type</text>
<text text-anchor="middle" x="39.5" y="-161.5" font-family="Helvetica,sans-Serif" font-size="10.00">#name</text>
</g>
<!-- Node3 -->
<g id="node3" class="node"><title>Node3</title>
<polygon fill="none" stroke="#bfbfbf" points="59,-204.5 59,-261.5 94,-261.5 94,-204.5 59,-204.5"/>
<text text-anchor="middle" x="76.5" y="-249.5" font-family="Helvetica,sans-Serif" font-size="10.00">bool</text>
<polyline fill="none" stroke="#bfbfbf" points="59,-242.5 94,-242.5 "/>
<text text-anchor="middle" x="76.5" y="-230.5" font-family="Helvetica,sans-Serif" font-size="10.00"> </text>
<polyline fill="none" stroke="#bfbfbf" points="59,-223.5 94,-223.5 "/>
<text text-anchor="middle" x="76.5" y="-211.5" font-family="Helvetica,sans-Serif" font-size="10.00"> </text>
</g>
<!-- Node3&#45;&gt;Node1 -->
<g id="edge2" class="edge"><title>Node3&#45;&gt;Node1</title>
<path fill="none" stroke="#404040" d="M71.7502,-204.264C69.0112,-188.271 65.4172,-167.284 61.8765,-146.609"/>
<polygon fill="none" stroke="#404040" points="61.8305,-146.34 56.875,-141.101 59.8048,-134.512 64.7602,-139.751 61.8305,-146.34"/>
<text text-anchor="middle" x="100" y="-178" font-family="Helvetica,sans-Serif" font-size="10.00"> #is_entrance</text>
<text text-anchor="middle" x="100" y="-167" font-family="Helvetica,sans-Serif" font-size="10.00">#is_accessible</text>
<text text-anchor="middle" x="100" y="-156" font-family="Helvetica,sans-Serif" font-size="10.00">#is_exit</text>
</g>
</g>
</svg>
