<?xml version="1.0" encoding="UTF-8" standalone="no"?>
<!DOCTYPE svg PUBLIC "-//W3C//DTD SVG 1.1//EN"
 "http://www.w3.org/Graphics/SVG/1.1/DTD/svg11.dtd">
<!-- Generated by graphviz version 2.38.0 (20140413.2041)
 -->
<!-- Title: Person::GetPosition Pages: 1 -->
<svg width="475pt" height="66pt"
 viewBox="0.00 0.00 475.00 66.00" xmlns="http://www.w3.org/2000/svg" xmlns:xlink="http://www.w3.org/1999/xlink">
<g id="graph0" class="graph" transform="scale(1 1) rotate(0) translate(4 62)">
<title>Person::GetPosition</title>
<!-- Node5 -->
<g id="node1" class="node"><title>Node5</title>
<polygon fill="#bfbfbf" stroke="black" points="0,-19.5 0,-38.5 104,-38.5 104,-19.5 0,-19.5"/>
<text text-anchor="middle" x="52" y="-26.5" font-family="Helvetica,sans-Serif" font-size="10.00">Person::GetPosition</text>
</g>
<!-- Node6 -->
<g id="node2" class="node"><title>Node6</title>
<g id="a_node2"><a xlink:href="class_driver.html#ad9677d7807a61f0a169268f3a30b40fc" target="_top" xlink:title="Menghitung jumlah makanan yang dibutuhkan. Menghitung dan menampilkan jumlah makanan yang dikonsumsi ...">
<polygon fill="none" stroke="black" points="245,-38.5 245,-57.5 360,-57.5 360,-38.5 245,-38.5"/>
<text text-anchor="middle" x="302.5" y="-45.5" font-family="Helvetica,sans-Serif" font-size="10.00">Driver::ConsumedFood</text>
</a>
</g>
</g>
<!-- Node5&#45;&gt;Node6 -->
<g id="edge1" class="edge"><title>Node5&#45;&gt;Node6</title>
<path fill="none" stroke="midnightblue" d="M114.318,-33.6883C154.19,-36.7369 205.812,-40.6838 244.742,-43.6604"/>
<polygon fill="midnightblue" stroke="midnightblue" points="114.426,-30.1864 104.188,-32.9138 113.892,-37.166 114.426,-30.1864"/>
</g>
<!-- Node8 -->
<g id="node4" class="node"><title>Node8</title>
<g id="a_node4"><a xlink:href="class_zoo.html#a63315b0cdc36e0cbefb3f0c4956392f7" target="_top" xlink:title="Melakukan proses render untuk seisi zoo. ">
<polygon fill="none" stroke="black" points="140,-0.5 140,-19.5 209,-19.5 209,-0.5 140,-0.5"/>
<text text-anchor="middle" x="174.5" y="-7.5" font-family="Helvetica,sans-Serif" font-size="10.00">Zoo::Render</text>
</a>
</g>
</g>
<!-- Node5&#45;&gt;Node8 -->
<g id="edge3" class="edge"><title>Node5&#45;&gt;Node8</title>
<path fill="none" stroke="midnightblue" d="M114.067,-19.3712C122.919,-17.9754 131.748,-16.5833 139.789,-15.3155"/>
<polygon fill="midnightblue" stroke="midnightblue" points="113.436,-15.9274 104.103,-20.9423 114.526,-22.842 113.436,-15.9274"/>
</g>
<!-- Node7 -->
<g id="node3" class="node"><title>Node7</title>
<g id="a_node3"><a xlink:href="class_driver.html#af0658d103e3e810a8e9ef0a53bb2e261" target="_top" xlink:title="Constructor Menciptakan driver yang berisi menu utama. ">
<polygon fill="none" stroke="black" points="396,-19.5 396,-38.5 467,-38.5 467,-19.5 396,-19.5"/>
<text text-anchor="middle" x="431.5" y="-26.5" font-family="Helvetica,sans-Serif" font-size="10.00">Driver::Driver</text>
</a>
</g>
</g>
<!-- Node6&#45;&gt;Node7 -->
<g id="edge2" class="edge"><title>Node6&#45;&gt;Node7</title>
<path fill="none" stroke="midnightblue" d="M370.319,-38.0034C379.182,-36.6775 387.958,-35.3646 395.954,-34.1683"/>
<polygon fill="midnightblue" stroke="midnightblue" points="369.686,-34.5591 360.314,-39.5003 370.722,-41.4821 369.686,-34.5591"/>
</g>
<!-- Node8&#45;&gt;Node6 -->
<g id="edge6" class="edge"><title>Node8&#45;&gt;Node6</title>
<path fill="none" stroke="midnightblue" d="M217.064,-22.5353C234.205,-27.7048 253.75,-33.5991 269.715,-38.4141"/>
<polygon fill="midnightblue" stroke="midnightblue" points="217.88,-19.1256 207.295,-19.589 215.859,-25.8274 217.88,-19.1256"/>
</g>
<!-- Node9 -->
<g id="node5" class="node"><title>Node9</title>
<g id="a_node5"><a xlink:href="class_driver.html#aa8b4e139b99aad4720ce86286783dcdb" target="_top" xlink:title="Menampilkan area tertentu dalam zoo. Menampilkan area dalam zoo sesuai permintaan user...">
<polygon fill="none" stroke="black" points="255,-0.5 255,-19.5 350,-19.5 350,-0.5 255,-0.5"/>
<text text-anchor="middle" x="302.5" y="-7.5" font-family="Helvetica,sans-Serif" font-size="10.00">Driver::DisplayZoo</text>
</a>
</g>
</g>
<!-- Node8&#45;&gt;Node9 -->
<g id="edge4" class="edge"><title>Node8&#45;&gt;Node9</title>
<path fill="none" stroke="midnightblue" d="M219.465,-10C230.908,-10 243.275,-10 254.851,-10"/>
<polygon fill="midnightblue" stroke="midnightblue" points="219.266,-6.5001 209.266,-10 219.266,-13.5001 219.266,-6.5001"/>
</g>
<!-- Node9&#45;&gt;Node7 -->
<g id="edge5" class="edge"><title>Node9&#45;&gt;Node7</title>
<path fill="none" stroke="midnightblue" d="M360.17,-18.4782C372.338,-20.2985 384.843,-22.1695 395.873,-23.8195"/>
<polygon fill="midnightblue" stroke="midnightblue" points="360.477,-14.9852 350.069,-16.967 359.441,-21.9082 360.477,-14.9852"/>
</g>
</g>
</svg>
