<?xml version="1.0" encoding="UTF-8" standalone="no"?>
<!DOCTYPE svg PUBLIC "-//W3C//DTD SVG 1.1//EN"
 "http://www.w3.org/Graphics/SVG/1.1/DTD/svg11.dtd">
<!-- Generated by graphviz version 2.38.0 (20140413.2041)
 -->
<!-- Title: src/misc/person.h Pages: 1 -->
<svg width="285pt" height="196pt"
 viewBox="0.00 0.00 284.50 196.00" xmlns="http://www.w3.org/2000/svg" xmlns:xlink="http://www.w3.org/1999/xlink">
<g id="graph0" class="graph" transform="scale(1 1) rotate(0) translate(4 192)">
<title>src/misc/person.h</title>
<!-- Node2 -->
<g id="node1" class="node"><title>Node2</title>
<polygon fill="#bfbfbf" stroke="black" points="126.5,-168.5 126.5,-187.5 221.5,-187.5 221.5,-168.5 126.5,-168.5"/>
<text text-anchor="middle" x="174" y="-175.5" font-family="Helvetica,sans-Serif" font-size="10.00">src/misc/person.h</text>
</g>
<!-- Node3 -->
<g id="node2" class="node"><title>Node3</title>
<g id="a_node2"><a xlink:href="zoo_8h.html" target="_top" xlink:title="src/zoo.h">
<polygon fill="none" stroke="black" points="96.5,-112.5 96.5,-131.5 153.5,-131.5 153.5,-112.5 96.5,-112.5"/>
<text text-anchor="middle" x="125" y="-119.5" font-family="Helvetica,sans-Serif" font-size="10.00">src/zoo.h</text>
</a>
</g>
</g>
<!-- Node2&#45;&gt;Node3 -->
<g id="edge1" class="edge"><title>Node2&#45;&gt;Node3</title>
<path fill="none" stroke="midnightblue" d="M158.966,-160.431C150.378,-150.967 139.957,-139.483 132.941,-131.751"/>
<polygon fill="midnightblue" stroke="midnightblue" points="156.597,-163.029 165.909,-168.083 161.781,-158.325 156.597,-163.029"/>
</g>
<!-- Node8 -->
<g id="node7" class="node"><title>Node8</title>
<g id="a_node7"><a xlink:href="person_8cpp.html" target="_top" xlink:title="src/misc/person.cpp">
<polygon fill="none" stroke="black" points="171.5,-112.5 171.5,-131.5 276.5,-131.5 276.5,-112.5 171.5,-112.5"/>
<text text-anchor="middle" x="224" y="-119.5" font-family="Helvetica,sans-Serif" font-size="10.00">src/misc/person.cpp</text>
</a>
</g>
</g>
<!-- Node2&#45;&gt;Node8 -->
<g id="edge6" class="edge"><title>Node2&#45;&gt;Node8</title>
<path fill="none" stroke="midnightblue" d="M189.076,-160.718C197.889,-151.2 208.666,-139.561 215.897,-131.751"/>
<polygon fill="midnightblue" stroke="midnightblue" points="186.482,-158.367 182.256,-168.083 191.619,-163.123 186.482,-158.367"/>
</g>
<!-- Node4 -->
<g id="node3" class="node"><title>Node4</title>
<g id="a_node3"><a xlink:href="driver_8h.html" target="_top" xlink:title="src/driver.h">
<polygon fill="none" stroke="black" points="51,-56.5 51,-75.5 115,-75.5 115,-56.5 51,-56.5"/>
<text text-anchor="middle" x="83" y="-63.5" font-family="Helvetica,sans-Serif" font-size="10.00">src/driver.h</text>
</a>
</g>
</g>
<!-- Node3&#45;&gt;Node4 -->
<g id="edge2" class="edge"><title>Node3&#45;&gt;Node4</title>
<path fill="none" stroke="midnightblue" d="M111.89,-104.144C104.572,-94.7357 95.7591,-83.4046 89.8064,-75.7511"/>
<polygon fill="midnightblue" stroke="midnightblue" points="109.162,-106.338 118.065,-112.083 114.688,-102.041 109.162,-106.338"/>
</g>
<!-- Node7 -->
<g id="node6" class="node"><title>Node7</title>
<g id="a_node6"><a xlink:href="zoo_8cpp.html" target="_top" xlink:title="src/zoo.cpp">
<polygon fill="none" stroke="black" points="133,-56.5 133,-75.5 201,-75.5 201,-56.5 133,-56.5"/>
<text text-anchor="middle" x="167" y="-63.5" font-family="Helvetica,sans-Serif" font-size="10.00">src/zoo.cpp</text>
</a>
</g>
</g>
<!-- Node3&#45;&gt;Node7 -->
<g id="edge5" class="edge"><title>Node3&#45;&gt;Node7</title>
<path fill="none" stroke="midnightblue" d="M138.11,-104.144C145.428,-94.7357 154.241,-83.4046 160.194,-75.7511"/>
<polygon fill="midnightblue" stroke="midnightblue" points="135.312,-102.041 131.935,-112.083 140.838,-106.338 135.312,-102.041"/>
</g>
<!-- Node5 -->
<g id="node4" class="node"><title>Node5</title>
<g id="a_node4"><a xlink:href="driver_8cpp.html" target="_top" xlink:title="src/driver.cpp">
<polygon fill="none" stroke="black" points="0,-0.5 0,-19.5 74,-19.5 74,-0.5 0,-0.5"/>
<text text-anchor="middle" x="37" y="-7.5" font-family="Helvetica,sans-Serif" font-size="10.00">src/driver.cpp</text>
</a>
</g>
</g>
<!-- Node4&#45;&gt;Node5 -->
<g id="edge3" class="edge"><title>Node4&#45;&gt;Node5</title>
<path fill="none" stroke="midnightblue" d="M68.886,-48.4314C60.824,-38.9673 51.0408,-27.4827 44.4546,-19.7511"/>
<polygon fill="midnightblue" stroke="midnightblue" points="66.255,-50.7402 75.404,-56.083 71.5837,-46.2009 66.255,-50.7402"/>
</g>
<!-- Node6 -->
<g id="node5" class="node"><title>Node6</title>
<g id="a_node5"><a xlink:href="main_8cpp.html" target="_top" xlink:title="src/main.cpp">
<polygon fill="none" stroke="black" points="92.5,-0.5 92.5,-19.5 165.5,-19.5 165.5,-0.5 92.5,-0.5"/>
<text text-anchor="middle" x="129" y="-7.5" font-family="Helvetica,sans-Serif" font-size="10.00">src/main.cpp</text>
</a>
</g>
</g>
<!-- Node4&#45;&gt;Node6 -->
<g id="edge4" class="edge"><title>Node4&#45;&gt;Node6</title>
<path fill="none" stroke="midnightblue" d="M97.114,-48.4314C105.176,-38.9673 114.959,-27.4827 121.545,-19.7511"/>
<polygon fill="midnightblue" stroke="midnightblue" points="94.4163,-46.2009 90.596,-56.083 99.745,-50.7402 94.4163,-46.2009"/>
</g>
</g>
</svg>
