<?xml version="1.0" encoding="UTF-8" standalone="no"?>
<!DOCTYPE svg PUBLIC "-//W3C//DTD SVG 1.1//EN"
 "http://www.w3.org/Graphics/SVG/1.1/DTD/svg11.dtd">
<!-- Generated by graphviz version 2.38.0 (20140413.2041)
 -->
<!-- Title: src/misc/person.cpp Pages: 1 -->
<svg width="113pt" height="140pt"
 viewBox="0.00 0.00 113.00 140.00" xmlns="http://www.w3.org/2000/svg" xmlns:xlink="http://www.w3.org/1999/xlink">
<g id="graph0" class="graph" transform="scale(1 1) rotate(0) translate(4 136)">
<title>src/misc/person.cpp</title>
<!-- Node0 -->
<g id="node1" class="node"><title>Node0</title>
<polygon fill="#bfbfbf" stroke="black" points="0,-112.5 0,-131.5 105,-131.5 105,-112.5 0,-112.5"/>
<text text-anchor="middle" x="52.5" y="-119.5" font-family="Helvetica,sans-Serif" font-size="10.00">src/misc/person.cpp</text>
</g>
<!-- Node1 -->
<g id="node2" class="node"><title>Node1</title>
<g id="a_node2"><a xlink:href="person_8h.html" target="_top" xlink:title="person.h">
<polygon fill="none" stroke="black" points="25.5,-56.5 25.5,-75.5 79.5,-75.5 79.5,-56.5 25.5,-56.5"/>
<text text-anchor="middle" x="52.5" y="-63.5" font-family="Helvetica,sans-Serif" font-size="10.00">person.h</text>
</a>
</g>
</g>
<!-- Node0&#45;&gt;Node1 -->
<g id="edge1" class="edge"><title>Node0&#45;&gt;Node1</title>
<path fill="none" stroke="midnightblue" d="M52.5,-112.083C52.5,-105.006 52.5,-94.8611 52.5,-85.9865"/>
<polygon fill="midnightblue" stroke="midnightblue" points="56.0001,-85.751 52.5,-75.7511 49.0001,-85.7511 56.0001,-85.751"/>
</g>
<!-- Node2 -->
<g id="node3" class="node"><title>Node2</title>
<g id="a_node3"><a xlink:href="point_8h.html" target="_top" xlink:title="point.h">
<polygon fill="none" stroke="black" points="29.5,-0.5 29.5,-19.5 75.5,-19.5 75.5,-0.5 29.5,-0.5"/>
<text text-anchor="middle" x="52.5" y="-7.5" font-family="Helvetica,sans-Serif" font-size="10.00">point.h</text>
</a>
</g>
</g>
<!-- Node1&#45;&gt;Node2 -->
<g id="edge2" class="edge"><title>Node1&#45;&gt;Node2</title>
<path fill="none" stroke="midnightblue" d="M52.5,-56.083C52.5,-49.0059 52.5,-38.8611 52.5,-29.9865"/>
<polygon fill="midnightblue" stroke="midnightblue" points="56.0001,-29.751 52.5,-19.7511 49.0001,-29.7511 56.0001,-29.751"/>
</g>
</g>
</svg>
