<?xml version="1.0" encoding="UTF-8" standalone="no"?>
<!DOCTYPE svg PUBLIC "-//W3C//DTD SVG 1.1//EN"
 "http://www.w3.org/Graphics/SVG/1.1/DTD/svg11.dtd">
<!-- Generated by graphviz version 2.38.0 (20140413.2041)
 -->
<!-- Title: src/zoo.cpp Pages: 1 -->
<svg width="705pt" height="252pt"
 viewBox="0.00 0.00 705.00 252.00" xmlns="http://www.w3.org/2000/svg" xmlns:xlink="http://www.w3.org/1999/xlink">
<g id="graph0" class="graph" transform="scale(1 1) rotate(0) translate(4 248)">
<title>src/zoo.cpp</title>
<!-- Node0 -->
<g id="node1" class="node"><title>Node0</title>
<polygon fill="#bfbfbf" stroke="black" points="114,-224.5 114,-243.5 182,-243.5 182,-224.5 114,-224.5"/>
<text text-anchor="middle" x="148" y="-231.5" font-family="Helvetica,sans-Serif" font-size="10.00">src/zoo.cpp</text>
</g>
<!-- Node1 -->
<g id="node2" class="node"><title>Node1</title>
<polygon fill="none" stroke="#bfbfbf" points="0,-168.5 0,-187.5 46,-187.5 46,-168.5 0,-168.5"/>
<text text-anchor="middle" x="23" y="-175.5" font-family="Helvetica,sans-Serif" font-size="10.00">cctype</text>
</g>
<!-- Node0&#45;&gt;Node1 -->
<g id="edge1" class="edge"><title>Node0&#45;&gt;Node1</title>
<path fill="none" stroke="midnightblue" d="M128.193,-224.444C107.713,-215.596 75.5173,-201.687 52.1353,-191.586"/>
<polygon fill="midnightblue" stroke="midnightblue" points="53.282,-188.269 42.714,-187.516 50.5059,-194.695 53.282,-188.269"/>
</g>
<!-- Node2 -->
<g id="node3" class="node"><title>Node2</title>
<polygon fill="none" stroke="#bfbfbf" points="64.5,-168.5 64.5,-187.5 109.5,-187.5 109.5,-168.5 64.5,-168.5"/>
<text text-anchor="middle" x="87" y="-175.5" font-family="Helvetica,sans-Serif" font-size="10.00">cstdlib</text>
</g>
<!-- Node0&#45;&gt;Node2 -->
<g id="edge2" class="edge"><title>Node0&#45;&gt;Node2</title>
<path fill="none" stroke="midnightblue" d="M138.199,-224.324C129.182,-216.341 115.594,-204.313 104.682,-194.653"/>
<polygon fill="midnightblue" stroke="midnightblue" points="106.787,-191.842 96.979,-187.834 102.147,-197.083 106.787,-191.842"/>
</g>
<!-- Node3 -->
<g id="node4" class="node"><title>Node3</title>
<polygon fill="none" stroke="#bfbfbf" points="127.5,-168.5 127.5,-187.5 168.5,-187.5 168.5,-168.5 127.5,-168.5"/>
<text text-anchor="middle" x="148" y="-175.5" font-family="Helvetica,sans-Serif" font-size="10.00">ctime</text>
</g>
<!-- Node0&#45;&gt;Node3 -->
<g id="edge3" class="edge"><title>Node0&#45;&gt;Node3</title>
<path fill="none" stroke="midnightblue" d="M148,-224.083C148,-217.006 148,-206.861 148,-197.986"/>
<polygon fill="midnightblue" stroke="midnightblue" points="151.5,-197.751 148,-187.751 144.5,-197.751 151.5,-197.751"/>
</g>
<!-- Node4 -->
<g id="node5" class="node"><title>Node4</title>
<polygon fill="none" stroke="#bfbfbf" points="171,-0.5 171,-19.5 225,-19.5 225,-0.5 171,-0.5"/>
<text text-anchor="middle" x="198" y="-7.5" font-family="Helvetica,sans-Serif" font-size="10.00">iostream</text>
</g>
<!-- Node0&#45;&gt;Node4 -->
<g id="edge4" class="edge"><title>Node0&#45;&gt;Node4</title>
<path fill="none" stroke="midnightblue" d="M155.311,-224.34C162.148,-215.721 172.03,-201.818 177,-188 196.768,-133.04 198.802,-62.9065 198.506,-29.8499"/>
<polygon fill="midnightblue" stroke="midnightblue" points="202.005,-29.7264 198.33,-19.7894 195.006,-29.8492 202.005,-29.7264"/>
</g>
<!-- Node5 -->
<g id="node6" class="node"><title>Node5</title>
<g id="a_node6"><a xlink:href="zoo_8h.html" target="_top" xlink:title="zoo.h">
<polygon fill="none" stroke="black" points="411.5,-168.5 411.5,-187.5 452.5,-187.5 452.5,-168.5 411.5,-168.5"/>
<text text-anchor="middle" x="432" y="-175.5" font-family="Helvetica,sans-Serif" font-size="10.00">zoo.h</text>
</a>
</g>
</g>
<!-- Node0&#45;&gt;Node5 -->
<g id="edge5" class="edge"><title>Node0&#45;&gt;Node5</title>
<path fill="none" stroke="midnightblue" d="M182.257,-226.486C238.134,-215.862 348.007,-194.971 401.412,-184.816"/>
<polygon fill="midnightblue" stroke="midnightblue" points="402.137,-188.241 411.307,-182.935 400.829,-181.364 402.137,-188.241"/>
</g>
<!-- Node6 -->
<g id="node7" class="node"><title>Node6</title>
<polygon fill="none" stroke="#bfbfbf" points="392,-0.5 392,-19.5 422,-19.5 422,-0.5 392,-0.5"/>
<text text-anchor="middle" x="407" y="-7.5" font-family="Helvetica,sans-Serif" font-size="10.00">set</text>
</g>
<!-- Node5&#45;&gt;Node6 -->
<g id="edge6" class="edge"><title>Node5&#45;&gt;Node6</title>
<path fill="none" stroke="midnightblue" d="M426.433,-168.464C421.072,-159.715 413.304,-145.516 410,-132 401.381,-96.7409 403.027,-53.9747 405.01,-29.8849"/>
<polygon fill="midnightblue" stroke="midnightblue" points="408.519,-29.957 405.967,-19.674 401.549,-29.3038 408.519,-29.957"/>
</g>
<!-- Node7 -->
<g id="node8" class="node"><title>Node7</title>
<polygon fill="none" stroke="#bfbfbf" points="520,-56.5 520,-75.5 562,-75.5 562,-56.5 520,-56.5"/>
<text text-anchor="middle" x="541" y="-63.5" font-family="Helvetica,sans-Serif" font-size="10.00">vector</text>
</g>
<!-- Node5&#45;&gt;Node7 -->
<g id="edge7" class="edge"><title>Node5&#45;&gt;Node7</title>
<path fill="none" stroke="midnightblue" d="M452.645,-174.09C476.426,-169.559 514.695,-158.406 534,-132 543.726,-118.697 544.671,-99.5765 543.668,-85.5158"/>
<polygon fill="midnightblue" stroke="midnightblue" points="547.142,-85.092 542.575,-75.532 540.184,-85.8533 547.142,-85.092"/>
</g>
<!-- Node8 -->
<g id="node9" class="node"><title>Node8</title>
<g id="a_node9"><a xlink:href="animal_8h.html" target="_top" xlink:title="animal/animal.h">
<polygon fill="none" stroke="black" points="293.5,-56.5 293.5,-75.5 378.5,-75.5 378.5,-56.5 293.5,-56.5"/>
<text text-anchor="middle" x="336" y="-63.5" font-family="Helvetica,sans-Serif" font-size="10.00">animal/animal.h</text>
</a>
</g>
</g>
<!-- Node5&#45;&gt;Node8 -->
<g id="edge8" class="edge"><title>Node5&#45;&gt;Node8</title>
<path fill="none" stroke="midnightblue" d="M419.215,-168.366C407.382,-159.976 389.747,-146.42 377,-132 364.058,-117.36 352.506,-98.1976 344.988,-84.4784"/>
<polygon fill="midnightblue" stroke="midnightblue" points="348.05,-82.7805 340.265,-75.5932 341.869,-86.0661 348.05,-82.7805"/>
</g>
<!-- Node11 -->
<g id="node12" class="node"><title>Node11</title>
<g id="a_node12"><a xlink:href="point_8h.html" target="_top" xlink:title="../misc/point.h">
<polygon fill="none" stroke="black" points="500.5,-0.5 500.5,-19.5 579.5,-19.5 579.5,-0.5 500.5,-0.5"/>
<text text-anchor="middle" x="540" y="-7.5" font-family="Helvetica,sans-Serif" font-size="10.00">../misc/point.h</text>
</a>
</g>
</g>
<!-- Node5&#45;&gt;Node11 -->
<g id="edge23" class="edge"><title>Node5&#45;&gt;Node11</title>
<path fill="none" stroke="midnightblue" d="M452.757,-174.665C479.305,-170.602 525.061,-159.806 552,-132 576.227,-106.994 581.343,-89.2456 571,-56 567.771,-45.6222 561.224,-35.5209 554.975,-27.5268"/>
<polygon fill="midnightblue" stroke="midnightblue" points="557.584,-25.1902 548.483,-19.7661 552.215,-29.6818 557.584,-25.1902"/>
</g>
<!-- Node12 -->
<g id="node13" class="node"><title>Node12</title>
<g id="a_node13"><a xlink:href="cage_8h.html" target="_top" xlink:title="infrastructure/cage.h">
<polygon fill="none" stroke="black" points="419.5,-112.5 419.5,-131.5 524.5,-131.5 524.5,-112.5 419.5,-112.5"/>
<text text-anchor="middle" x="472" y="-119.5" font-family="Helvetica,sans-Serif" font-size="10.00">infrastructure/cage.h</text>
</a>
</g>
</g>
<!-- Node5&#45;&gt;Node12 -->
<g id="edge14" class="edge"><title>Node5&#45;&gt;Node12</title>
<path fill="none" stroke="midnightblue" d="M438.605,-168.083C444.255,-160.455 452.545,-149.264 459.451,-139.941"/>
<polygon fill="midnightblue" stroke="midnightblue" points="462.378,-141.87 465.518,-131.751 456.753,-137.703 462.378,-141.87"/>
</g>
<!-- Node13 -->
<g id="node14" class="node"><title>Node13</title>
<g id="a_node14"><a xlink:href="cell_8h.html" target="_top" xlink:title="infrastructure/cell.h">
<polygon fill="none" stroke="black" points="225.5,-112.5 225.5,-131.5 324.5,-131.5 324.5,-112.5 225.5,-112.5"/>
<text text-anchor="middle" x="275" y="-119.5" font-family="Helvetica,sans-Serif" font-size="10.00">infrastructure/cell.h</text>
</a>
</g>
</g>
<!-- Node5&#45;&gt;Node13 -->
<g id="edge19" class="edge"><title>Node5&#45;&gt;Node13</title>
<path fill="none" stroke="midnightblue" d="M411.475,-169.94C385.599,-161.041 340.736,-145.61 309.541,-134.88"/>
<polygon fill="midnightblue" stroke="midnightblue" points="310.529,-131.519 299.934,-131.576 308.252,-138.138 310.529,-131.519"/>
</g>
<!-- Node14 -->
<g id="node15" class="node"><title>Node14</title>
<g id="a_node15"><a xlink:href="person_8h.html" target="_top" xlink:title="misc/person.h">
<polygon fill="none" stroke="black" points="619,-56.5 619,-75.5 697,-75.5 697,-56.5 619,-56.5"/>
<text text-anchor="middle" x="658" y="-63.5" font-family="Helvetica,sans-Serif" font-size="10.00">misc/person.h</text>
</a>
</g>
</g>
<!-- Node5&#45;&gt;Node14 -->
<g id="edge21" class="edge"><title>Node5&#45;&gt;Node14</title>
<path fill="none" stroke="midnightblue" d="M452.559,-175.763C486.735,-172.858 556.291,-163.263 605,-132 623.697,-120 638.933,-99.2145 648.193,-84.3787"/>
<polygon fill="midnightblue" stroke="midnightblue" points="651.287,-86.0244 653.391,-75.6407 645.271,-82.4456 651.287,-86.0244"/>
</g>
<!-- Node8&#45;&gt;Node4 -->
<g id="edge11" class="edge"><title>Node8&#45;&gt;Node4</title>
<path fill="none" stroke="midnightblue" d="M314.133,-56.4435C291.221,-47.4776 255.025,-33.314 229.134,-23.1827"/>
<polygon fill="midnightblue" stroke="midnightblue" points="230.352,-19.9011 219.764,-19.5164 227.801,-26.4198 230.352,-19.9011"/>
</g>
<!-- Node8&#45;&gt;Node6 -->
<g id="edge9" class="edge"><title>Node8&#45;&gt;Node6</title>
<path fill="none" stroke="midnightblue" d="M347.407,-56.324C358.109,-48.1849 374.341,-35.8395 387.163,-26.0874"/>
<polygon fill="midnightblue" stroke="midnightblue" points="389.544,-28.6734 395.385,-19.8339 385.307,-23.1018 389.544,-28.6734"/>
</g>
<!-- Node9 -->
<g id="node10" class="node"><title>Node9</title>
<polygon fill="none" stroke="#bfbfbf" points="243.5,-0.5 243.5,-19.5 284.5,-19.5 284.5,-0.5 243.5,-0.5"/>
<text text-anchor="middle" x="264" y="-7.5" font-family="Helvetica,sans-Serif" font-size="10.00">string</text>
</g>
<!-- Node8&#45;&gt;Node9 -->
<g id="edge10" class="edge"><title>Node8&#45;&gt;Node9</title>
<path fill="none" stroke="midnightblue" d="M324.432,-56.324C313.58,-48.1849 297.119,-35.8395 284.117,-26.0874"/>
<polygon fill="midnightblue" stroke="midnightblue" points="285.879,-23.0339 275.779,-19.8339 281.679,-28.6339 285.879,-23.0339"/>
</g>
<!-- Node10 -->
<g id="node11" class="node"><title>Node10</title>
<g id="a_node11"><a xlink:href="animalfood_8h.html" target="_top" xlink:title="animalfood.h">
<polygon fill="none" stroke="black" points="302.5,-0.5 302.5,-19.5 373.5,-19.5 373.5,-0.5 302.5,-0.5"/>
<text text-anchor="middle" x="338" y="-7.5" font-family="Helvetica,sans-Serif" font-size="10.00">animalfood.h</text>
</a>
</g>
</g>
<!-- Node8&#45;&gt;Node10 -->
<g id="edge12" class="edge"><title>Node8&#45;&gt;Node10</title>
<path fill="none" stroke="midnightblue" d="M336.33,-56.083C336.592,-49.0059 336.968,-38.8611 337.297,-29.9865"/>
<polygon fill="midnightblue" stroke="midnightblue" points="340.803,-29.8738 337.676,-19.7511 333.808,-29.6147 340.803,-29.8738"/>
</g>
<!-- Node8&#45;&gt;Node11 -->
<g id="edge13" class="edge"><title>Node8&#45;&gt;Node11</title>
<path fill="none" stroke="midnightblue" d="M368.324,-56.4435C403.389,-47.1616 459.498,-32.3093 497.965,-22.127"/>
<polygon fill="midnightblue" stroke="midnightblue" points="499.055,-25.4589 507.827,-19.5164 497.264,-18.692 499.055,-25.4589"/>
</g>
<!-- Node12&#45;&gt;Node6 -->
<g id="edge15" class="edge"><title>Node12&#45;&gt;Node6</title>
<path fill="none" stroke="midnightblue" d="M466.9,-112.368C456.22,-94.2957 431.332,-52.1764 417.227,-28.3074"/>
<polygon fill="midnightblue" stroke="midnightblue" points="420.177,-26.4201 412.077,-19.5914 414.151,-29.9813 420.177,-26.4201"/>
</g>
<!-- Node12&#45;&gt;Node7 -->
<g id="edge16" class="edge"><title>Node12&#45;&gt;Node7</title>
<path fill="none" stroke="midnightblue" d="M483.086,-112.324C493.486,-104.185 509.261,-91.8395 521.722,-82.0874"/>
<polygon fill="midnightblue" stroke="midnightblue" points="523.994,-84.7533 529.712,-75.8339 519.68,-79.2407 523.994,-84.7533"/>
</g>
<!-- Node12&#45;&gt;Node8 -->
<g id="edge18" class="edge"><title>Node12&#45;&gt;Node8</title>
<path fill="none" stroke="midnightblue" d="M450.45,-112.444C427.969,-103.517 392.512,-89.4387 367.02,-79.3168"/>
<polygon fill="midnightblue" stroke="midnightblue" points="368.035,-75.9539 357.449,-75.5164 365.451,-82.4598 368.035,-75.9539"/>
</g>
<!-- Node12&#45;&gt;Node11 -->
<g id="edge17" class="edge"><title>Node12&#45;&gt;Node11</title>
<path fill="none" stroke="midnightblue" d="M477.21,-112.114C484.606,-99.546 498.628,-75.8912 511,-56 516.778,-46.7107 523.373,-36.4506 528.813,-28.0762"/>
<polygon fill="midnightblue" stroke="midnightblue" points="531.826,-29.8625 534.358,-19.5746 525.963,-26.0383 531.826,-29.8625"/>
</g>
<!-- Node13&#45;&gt;Node9 -->
<g id="edge20" class="edge"><title>Node13&#45;&gt;Node9</title>
<path fill="none" stroke="midnightblue" d="M274.137,-112.368C272.362,-94.617 268.267,-53.6664 265.86,-29.5974"/>
<polygon fill="midnightblue" stroke="midnightblue" points="269.337,-29.1935 264.859,-19.5914 262.372,-29.8901 269.337,-29.1935"/>
</g>
<!-- Node14&#45;&gt;Node11 -->
<g id="edge22" class="edge"><title>Node14&#45;&gt;Node11</title>
<path fill="none" stroke="midnightblue" d="M639.303,-56.4435C620.056,-47.6356 589.848,-33.8116 567.8,-23.722"/>
<polygon fill="midnightblue" stroke="midnightblue" points="569.16,-20.4951 558.61,-19.5164 566.247,-26.8603 569.16,-20.4951"/>
</g>
</g>
</svg>
