<?xml version="1.0" encoding="UTF-8" standalone="no"?>
<!DOCTYPE svg PUBLIC "-//W3C//DTD SVG 1.1//EN"
 "http://www.w3.org/Graphics/SVG/1.1/DTD/svg11.dtd">
<!-- Generated by graphviz version 2.38.0 (20140413.2041)
 -->
<!-- Title: Point::Point Pages: 1 -->
<svg width="181pt" height="142pt"
 viewBox="0.00 0.00 181.00 142.00" xmlns="http://www.w3.org/2000/svg" xmlns:xlink="http://www.w3.org/1999/xlink">
<g id="graph0" class="graph" transform="scale(1 1) rotate(0) translate(4 138)">
<title>Point::Point</title>
<!-- Node1 -->
<g id="node1" class="node"><title>Node1</title>
<polygon fill="#bfbfbf" stroke="black" points="0,-57.5 0,-76.5 68,-76.5 68,-57.5 0,-57.5"/>
<text text-anchor="middle" x="34" y="-64.5" font-family="Helvetica,sans-Serif" font-size="10.00">Point::Point</text>
</g>
<!-- Node2 -->
<g id="node2" class="node"><title>Node2</title>
<g id="a_node2"><a xlink:href="class_point.html#adcf32ff202eb8463af598f272f6f503c" target="_top" xlink:title="Menggeser point satu petak ke atas. ">
<polygon fill="none" stroke="black" points="110,-114.5 110,-133.5 167,-133.5 167,-114.5 110,-114.5"/>
<text text-anchor="middle" x="138.5" y="-121.5" font-family="Helvetica,sans-Serif" font-size="10.00">Point::Up</text>
</a>
</g>
</g>
<!-- Node1&#45;&gt;Node2 -->
<g id="edge1" class="edge"><title>Node1&#45;&gt;Node2</title>
<path fill="none" stroke="midnightblue" d="M61.2435,-81.5939C79.8319,-91.9309 104.234,-105.501 120.369,-114.474"/>
<polygon fill="midnightblue" stroke="midnightblue" points="62.8283,-78.4705 52.3877,-76.6693 59.4263,-84.5882 62.8283,-78.4705"/>
</g>
<!-- Node3 -->
<g id="node3" class="node"><title>Node3</title>
<g id="a_node3"><a xlink:href="class_point.html#aae6bcb1d359d1993deb70f86ade6f631" target="_top" xlink:title="Menggeser point satu petak ke bawah. ">
<polygon fill="none" stroke="black" points="104,-76.5 104,-95.5 173,-95.5 173,-76.5 104,-76.5"/>
<text text-anchor="middle" x="138.5" y="-83.5" font-family="Helvetica,sans-Serif" font-size="10.00">Point::Down</text>
</a>
</g>
</g>
<!-- Node1&#45;&gt;Node3 -->
<g id="edge2" class="edge"><title>Node1&#45;&gt;Node3</title>
<path fill="none" stroke="midnightblue" d="M78.3861,-75.0423C86.8437,-76.61 95.5939,-78.232 103.686,-79.732"/>
<polygon fill="midnightblue" stroke="midnightblue" points="78.7493,-71.5501 68.2788,-73.1688 77.4734,-78.4328 78.7493,-71.5501"/>
</g>
<!-- Node4 -->
<g id="node4" class="node"><title>Node4</title>
<g id="a_node4"><a xlink:href="class_point.html#a2b82eb4b557914bb7a5c3ce8664df81a" target="_top" xlink:title="Menggeser point satu petak ke kiri. ">
<polygon fill="none" stroke="black" points="108,-38.5 108,-57.5 169,-57.5 169,-38.5 108,-38.5"/>
<text text-anchor="middle" x="138.5" y="-45.5" font-family="Helvetica,sans-Serif" font-size="10.00">Point::Left</text>
</a>
</g>
</g>
<!-- Node1&#45;&gt;Node4 -->
<g id="edge3" class="edge"><title>Node1&#45;&gt;Node4</title>
<path fill="none" stroke="midnightblue" d="M78.4091,-58.9534C88.3313,-57.1142 98.6552,-55.2005 107.845,-53.497"/>
<polygon fill="midnightblue" stroke="midnightblue" points="77.4734,-55.5672 68.2788,-60.8312 78.7493,-62.4499 77.4734,-55.5672"/>
</g>
<!-- Node5 -->
<g id="node5" class="node"><title>Node5</title>
<g id="a_node5"><a xlink:href="class_point.html#a2cd736cc209c55c37895b55e755068ef" target="_top" xlink:title="Menggeser point satu petak ke kanan. ">
<polygon fill="none" stroke="black" points="104.5,-0.5 104.5,-19.5 172.5,-19.5 172.5,-0.5 104.5,-0.5"/>
<text text-anchor="middle" x="138.5" y="-7.5" font-family="Helvetica,sans-Serif" font-size="10.00">Point::Right</text>
</a>
</g>
</g>
<!-- Node1&#45;&gt;Node5 -->
<g id="edge4" class="edge"><title>Node1&#45;&gt;Node5</title>
<path fill="none" stroke="midnightblue" d="M61.2435,-52.4061C79.8319,-42.0691 104.234,-28.4991 120.369,-19.5265"/>
<polygon fill="midnightblue" stroke="midnightblue" points="59.4263,-49.4118 52.3877,-57.3307 62.8283,-55.5295 59.4263,-49.4118"/>
</g>
</g>
</svg>
