<?xml version="1.0" encoding="UTF-8" standalone="no"?>
<!DOCTYPE svg PUBLIC "-//W3C//DTD SVG 1.1//EN"
 "http://www.w3.org/Graphics/SVG/1.1/DTD/svg11.dtd">
<!-- Generated by graphviz version 2.38.0 (20140413.2041)
 -->
<!-- Title: Driver::ConsumedFood Pages: 1 -->
<svg width="422pt" height="636pt"
 viewBox="0.00 0.00 422.00 636.00" xmlns="http://www.w3.org/2000/svg" xmlns:xlink="http://www.w3.org/1999/xlink">
<g id="graph0" class="graph" transform="scale(1 1) rotate(0) translate(4 632)">
<title>Driver::ConsumedFood</title>
<!-- Node29 -->
<g id="node1" class="node"><title>Node29</title>
<polygon fill="#bfbfbf" stroke="black" points="0,-323.5 0,-342.5 115,-342.5 115,-323.5 0,-323.5"/>
<text text-anchor="middle" x="57.5" y="-330.5" font-family="Helvetica,sans-Serif" font-size="10.00">Driver::ConsumedFood</text>
</g>
<!-- Node30 -->
<g id="node2" class="node"><title>Node30</title>
<g id="a_node2"><a xlink:href="class_zoo.html#a39e3e3a3ef00b301387a3244c83f5649" target="_top" xlink:title="Getter list cage dalam zoo. ">
<polygon fill="none" stroke="black" points="171,-608.5 171,-627.5 253,-627.5 253,-608.5 171,-608.5"/>
<text text-anchor="middle" x="212" y="-615.5" font-family="Helvetica,sans-Serif" font-size="10.00">Zoo::GetCages</text>
</a>
</g>
</g>
<!-- Node29&#45;&gt;Node30 -->
<g id="edge1" class="edge"><title>Node29&#45;&gt;Node30</title>
<path fill="none" stroke="midnightblue" d="M58.884,-342.591C60.9391,-380.814 73.708,-523.842 151,-599 154.129,-602.042 157.741,-604.598 161.611,-606.744"/>
<polygon fill="midnightblue" stroke="midnightblue" points="160.45,-610.062 170.999,-611.047 163.367,-603.699 160.45,-610.062"/>
</g>
<!-- Node31 -->
<g id="node3" class="node"><title>Node31</title>
<g id="a_node3"><a xlink:href="class_zoo.html#a6ba87d67a1a46669b4ebcc3e429e2f4b" target="_top" xlink:title="Menetapkan jenis cell pada titik (i,j). ">
<polygon fill="none" stroke="black" points="178,-570.5 178,-589.5 246,-589.5 246,-570.5 178,-570.5"/>
<text text-anchor="middle" x="212" y="-577.5" font-family="Helvetica,sans-Serif" font-size="10.00">Zoo::SetTile</text>
</a>
</g>
</g>
<!-- Node29&#45;&gt;Node31 -->
<g id="edge2" class="edge"><title>Node29&#45;&gt;Node31</title>
<path fill="none" stroke="midnightblue" d="M59.5465,-342.882C63.7953,-378.008 82.9253,-498.085 151,-561 155.845,-565.477 161.741,-568.9 167.925,-571.516"/>
<polygon fill="midnightblue" stroke="midnightblue" points="167.172,-574.962 177.767,-574.998 169.507,-568.363 167.172,-574.962"/>
</g>
<!-- Node32 -->
<g id="node4" class="node"><title>Node32</title>
<g id="a_node4"><a xlink:href="class_cage.html#a9c31f975197ee948dd2245c0e71d3ed9" target="_top" xlink:title="Menambahkan point P menjadi area dalam cage. ">
<polygon fill="none" stroke="black" points="169.5,-532.5 169.5,-551.5 254.5,-551.5 254.5,-532.5 169.5,-532.5"/>
<text text-anchor="middle" x="212" y="-539.5" font-family="Helvetica,sans-Serif" font-size="10.00">Cage::AddPoint</text>
</a>
</g>
</g>
<!-- Node29&#45;&gt;Node32 -->
<g id="edge3" class="edge"><title>Node29&#45;&gt;Node32</title>
<path fill="none" stroke="midnightblue" d="M60.3537,-342.521C66.8623,-373.394 91.5729,-471.693 151,-523 153.812,-525.428 156.935,-527.546 160.238,-529.394"/>
<polygon fill="midnightblue" stroke="midnightblue" points="158.771,-532.571 169.307,-533.68 161.762,-526.243 158.771,-532.571"/>
</g>
<!-- Node33 -->
<g id="node5" class="node"><title>Node33</title>
<g id="a_node5"><a xlink:href="class_cage.html#acb411270086907509e7422401de13ca4" target="_top" xlink:title="Menambahkan animal ke dalam cage. Akan dicek terlebih dahulu apakah cage sudah penuh. ">
<polygon fill="none" stroke="black" points="166,-494.5 166,-513.5 258,-513.5 258,-494.5 166,-494.5"/>
<text text-anchor="middle" x="212" y="-501.5" font-family="Helvetica,sans-Serif" font-size="10.00">Cage::AddAnimal</text>
</a>
</g>
</g>
<!-- Node29&#45;&gt;Node33 -->
<g id="edge4" class="edge"><title>Node29&#45;&gt;Node33</title>
<path fill="none" stroke="midnightblue" d="M61.7053,-342.844C70.9805,-369.781 100.453,-445.332 151,-485 153.297,-486.802 155.767,-488.435 158.351,-489.915"/>
<polygon fill="midnightblue" stroke="midnightblue" points="156.959,-493.13 167.481,-494.377 160.033,-486.841 156.959,-493.13"/>
</g>
<!-- Node36 -->
<g id="node8" class="node"><title>Node36</title>
<g id="a_node8"><a xlink:href="class_zoo.html#a29c8061f54217928683bf1974647ca71" target="_top" xlink:title="Menambahkan cage baru dalam zoo. ">
<polygon fill="none" stroke="black" points="169.5,-456.5 169.5,-475.5 254.5,-475.5 254.5,-456.5 169.5,-456.5"/>
<text text-anchor="middle" x="212" y="-463.5" font-family="Helvetica,sans-Serif" font-size="10.00">Zoo::InsertCage</text>
</a>
</g>
</g>
<!-- Node29&#45;&gt;Node36 -->
<g id="edge7" class="edge"><title>Node29&#45;&gt;Node36</title>
<path fill="none" stroke="midnightblue" d="M63.611,-342.532C75.7827,-364.331 108.658,-418.162 151,-447 153.934,-448.998 157.089,-450.795 160.362,-452.41"/>
<polygon fill="midnightblue" stroke="midnightblue" points="159.246,-455.74 169.814,-456.493 162.022,-449.314 159.246,-455.74"/>
</g>
<!-- Node37 -->
<g id="node9" class="node"><title>Node37</title>
<g id="a_node9"><a xlink:href="class_zoo.html#ae3a73ce4c9dc8d6b53e37861371aa540" target="_top" xlink:title="Getter map. ">
<polygon fill="none" stroke="black" points="175.5,-418.5 175.5,-437.5 248.5,-437.5 248.5,-418.5 175.5,-418.5"/>
<text text-anchor="middle" x="212" y="-425.5" font-family="Helvetica,sans-Serif" font-size="10.00">Zoo::GetMap</text>
</a>
</g>
</g>
<!-- Node29&#45;&gt;Node37 -->
<g id="edge8" class="edge"><title>Node29&#45;&gt;Node37</title>
<path fill="none" stroke="midnightblue" d="M67.5923,-342.547C83.229,-358.454 116.84,-390.461 151,-409 155.623,-411.509 160.629,-413.746 165.711,-415.725"/>
<polygon fill="midnightblue" stroke="midnightblue" points="164.901,-419.152 175.495,-419.216 167.253,-412.559 164.901,-419.152"/>
</g>
<!-- Node38 -->
<g id="node10" class="node"><title>Node38</title>
<g id="a_node10"><a xlink:href="class_cell.html#a0f5c1240f61ab9f3cf946b133cf4c76e" target="_top" xlink:title="Getter nilai is_accessible. ">
<polygon fill="none" stroke="black" points="164.5,-380.5 164.5,-399.5 259.5,-399.5 259.5,-380.5 164.5,-380.5"/>
<text text-anchor="middle" x="212" y="-387.5" font-family="Helvetica,sans-Serif" font-size="10.00">Cell::IsAccessible</text>
</a>
</g>
</g>
<!-- Node29&#45;&gt;Node38 -->
<g id="edge9" class="edge"><title>Node29&#45;&gt;Node38</title>
<path fill="none" stroke="midnightblue" d="M80.353,-342.579C98.9711,-350.595 126.521,-362.113 151,-371 156.931,-373.153 163.24,-375.302 169.454,-377.338"/>
<polygon fill="midnightblue" stroke="midnightblue" points="168.481,-380.702 179.072,-380.431 170.624,-374.038 168.481,-380.702"/>
</g>
<!-- Node39 -->
<g id="node11" class="node"><title>Node39</title>
<g id="a_node11"><a xlink:href="class_zoo.html#acea4c4687f9b4edbf63761d464b6d4d3" target="_top" xlink:title="Melist semua entrance dan exit dari zoo. Mencari semua entrance dan exit dari zoo dan menyimpannya...">
<polygon fill="none" stroke="black" points="151,-342.5 151,-361.5 273,-361.5 273,-342.5 151,-342.5"/>
<text text-anchor="middle" x="212" y="-349.5" font-family="Helvetica,sans-Serif" font-size="10.00">Zoo::ListAllEntranceExit</text>
</a>
</g>
</g>
<!-- Node29&#45;&gt;Node39 -->
<g id="edge10" class="edge"><title>Node29&#45;&gt;Node39</title>
<path fill="none" stroke="midnightblue" d="M115.285,-340.075C123.624,-341.114 132.296,-342.194 140.863,-343.262"/>
<polygon fill="midnightblue" stroke="midnightblue" points="140.492,-346.742 150.848,-344.506 141.357,-339.796 140.492,-346.742"/>
</g>
<!-- Node40 -->
<g id="node12" class="node"><title>Node40</title>
<g id="a_node12"><a xlink:href="class_zoo.html#ae76f5003de892d1c3e389ee9726c6aaf" target="_top" xlink:title="Getter list entrance zoo. ">
<polygon fill="none" stroke="black" points="165.5,-304.5 165.5,-323.5 258.5,-323.5 258.5,-304.5 165.5,-304.5"/>
<text text-anchor="middle" x="212" y="-311.5" font-family="Helvetica,sans-Serif" font-size="10.00">Zoo::GetEntrance</text>
</a>
</g>
</g>
<!-- Node29&#45;&gt;Node40 -->
<g id="edge11" class="edge"><title>Node29&#45;&gt;Node40</title>
<path fill="none" stroke="midnightblue" d="M115.285,-325.925C128.249,-324.31 142.016,-322.595 154.948,-320.983"/>
<polygon fill="midnightblue" stroke="midnightblue" points="155.619,-324.427 165.109,-319.718 154.753,-317.481 155.619,-324.427"/>
</g>
<!-- Node41 -->
<g id="node13" class="node"><title>Node41</title>
<g id="a_node13"><a xlink:href="class_person.html#aaa59e5682de803c631498648a4aa1775" target="_top" xlink:title="Menetapkan nilai position berdasarkan point p. ">
<polygon fill="none" stroke="black" points="309.5,-266.5 309.5,-285.5 413.5,-285.5 413.5,-266.5 309.5,-266.5"/>
<text text-anchor="middle" x="361.5" y="-273.5" font-family="Helvetica,sans-Serif" font-size="10.00">Person::SetPosition</text>
</a>
</g>
</g>
<!-- Node29&#45;&gt;Node41 -->
<g id="edge12" class="edge"><title>Node29&#45;&gt;Node41</title>
<path fill="none" stroke="midnightblue" d="M77.0743,-323.425C95.3656,-314.47 124.356,-301.524 151,-295 199.993,-283.005 257.099,-278.422 299.305,-276.745"/>
<polygon fill="midnightblue" stroke="midnightblue" points="299.559,-280.239 309.429,-276.387 299.311,-273.243 299.559,-280.239"/>
</g>
<!-- Node42 -->
<g id="node14" class="node"><title>Node42</title>
<g id="a_node14"><a xlink:href="class_zoo.html#a63315b0cdc36e0cbefb3f0c4956392f7" target="_top" xlink:title="Melakukan proses render untuk seisi zoo. ">
<polygon fill="none" stroke="black" points="177.5,-152.5 177.5,-171.5 246.5,-171.5 246.5,-152.5 177.5,-152.5"/>
<text text-anchor="middle" x="212" y="-159.5" font-family="Helvetica,sans-Serif" font-size="10.00">Zoo::Render</text>
</a>
</g>
</g>
<!-- Node29&#45;&gt;Node42 -->
<g id="edge13" class="edge"><title>Node29&#45;&gt;Node42</title>
<path fill="none" stroke="midnightblue" d="M62.0995,-323.297C72.1668,-297.41 103.054,-225.962 151,-186 155.977,-181.852 161.762,-178.354 167.737,-175.424"/>
<polygon fill="midnightblue" stroke="midnightblue" points="169.442,-178.498 177.194,-171.275 166.63,-172.087 169.442,-178.498"/>
</g>
<!-- Node46 -->
<g id="node18" class="node"><title>Node46</title>
<g id="a_node18"><a xlink:href="class_person.html#a011a8222d921f3a5d2acfb29904104ee" target="_top" xlink:title="Getter nilai position. ">
<polygon fill="none" stroke="black" points="309.5,-228.5 309.5,-247.5 413.5,-247.5 413.5,-228.5 309.5,-228.5"/>
<text text-anchor="middle" x="361.5" y="-235.5" font-family="Helvetica,sans-Serif" font-size="10.00">Person::GetPosition</text>
</a>
</g>
</g>
<!-- Node29&#45;&gt;Node46 -->
<g id="edge21" class="edge"><title>Node29&#45;&gt;Node46</title>
<path fill="none" stroke="midnightblue" d="M62.7463,-323.226C73.4952,-299.897 104.29,-241.251 151,-219 208.385,-191.663 284.577,-210.28 327.479,-225.001"/>
<polygon fill="midnightblue" stroke="midnightblue" points="326.534,-228.379 337.128,-228.44 328.884,-221.786 326.534,-228.379"/>
</g>
<!-- Node48 -->
<g id="node20" class="node"><title>Node48</title>
<g id="a_node20"><a xlink:href="class_zoo.html#aeeb130ce2285d8931562da0668e728a3" target="_top" xlink:title="Menampilkan hasil render zoo ke layar. ">
<polygon fill="none" stroke="black" points="182.5,-76.5 182.5,-95.5 241.5,-95.5 241.5,-76.5 182.5,-76.5"/>
<text text-anchor="middle" x="212" y="-83.5" font-family="Helvetica,sans-Serif" font-size="10.00">Zoo::Print</text>
</a>
</g>
</g>
<!-- Node29&#45;&gt;Node48 -->
<g id="edge19" class="edge"><title>Node29&#45;&gt;Node48</title>
<path fill="none" stroke="midnightblue" d="M59.5465,-323.118C63.7953,-287.992 82.9253,-167.915 151,-105 157.104,-99.3585 164.878,-95.3921 172.791,-92.6034"/>
<polygon fill="midnightblue" stroke="midnightblue" points="173.816,-95.9502 182.409,-89.7525 171.827,-89.2389 173.816,-95.9502"/>
</g>
<!-- Node49 -->
<g id="node21" class="node"><title>Node49</title>
<g id="a_node21"><a xlink:href="class_zoo.html#a96521c1ca8b1c2b9c1348894f37bd5ba" target="_top" xlink:title="Getter list exit zoo. ">
<polygon fill="none" stroke="black" points="176.5,-38.5 176.5,-57.5 247.5,-57.5 247.5,-38.5 176.5,-38.5"/>
<text text-anchor="middle" x="212" y="-45.5" font-family="Helvetica,sans-Serif" font-size="10.00">Zoo::GetExit</text>
</a>
</g>
</g>
<!-- Node29&#45;&gt;Node49 -->
<g id="edge20" class="edge"><title>Node29&#45;&gt;Node49</title>
<path fill="none" stroke="midnightblue" d="M58.884,-323.409C60.9391,-285.186 73.708,-142.158 151,-67 155.524,-62.601 161.06,-59.2198 166.922,-56.6211"/>
<polygon fill="midnightblue" stroke="midnightblue" points="168.139,-59.9025 176.302,-53.1476 165.709,-53.3381 168.139,-59.9025"/>
</g>
<!-- Node50 -->
<g id="node22" class="node"><title>Node50</title>
<g id="a_node22"><a xlink:href="class_person.html#a0dcce299b3914e4b3af67a65d7837b0b" target="_top" xlink:title="Menggerakkan person dengan mengubah posisi. ">
<polygon fill="none" stroke="black" points="174,-114.5 174,-133.5 250,-133.5 250,-114.5 174,-114.5"/>
<text text-anchor="middle" x="212" y="-121.5" font-family="Helvetica,sans-Serif" font-size="10.00">Person::Move</text>
</a>
</g>
</g>
<!-- Node29&#45;&gt;Node50 -->
<g id="edge22" class="edge"><title>Node29&#45;&gt;Node50</title>
<path fill="none" stroke="midnightblue" d="M60.3537,-323.479C66.8623,-292.606 91.5729,-194.307 151,-143 154.981,-139.563 159.587,-136.746 164.442,-134.438"/>
<polygon fill="midnightblue" stroke="midnightblue" points="166.014,-137.578 173.985,-130.599 163.401,-131.084 166.014,-137.578"/>
</g>
<!-- Node53 -->
<g id="node25" class="node"><title>Node53</title>
<g id="a_node25"><a xlink:href="class_person.html#aef5cd7ad333ebfc53df29097125fb199" target="_top" xlink:title="Mengembalikan nilai posisi menjadi default. Mengubah posisi person menjadi (&#45;1,&#45;1) ...">
<polygon fill="none" stroke="black" points="155,-228.5 155,-247.5 269,-247.5 269,-228.5 155,-228.5"/>
<text text-anchor="middle" x="212" y="-235.5" font-family="Helvetica,sans-Serif" font-size="10.00">Person::ResetPosition</text>
</a>
</g>
</g>
<!-- Node29&#45;&gt;Node53 -->
<g id="edge27" class="edge"><title>Node29&#45;&gt;Node53</title>
<path fill="none" stroke="midnightblue" d="M68.9214,-323.444C85.3713,-308.735 118.805,-280.33 151,-262 157.924,-258.058 165.623,-254.456 173.136,-251.309"/>
<polygon fill="midnightblue" stroke="midnightblue" points="174.492,-254.536 182.478,-247.575 171.893,-248.036 174.492,-254.536"/>
</g>
<!-- Node34 -->
<g id="node6" class="node"><title>Node34</title>
<g id="a_node6"><a xlink:href="class_animal.html#aa90fda50322c8bea43b45b60e1d40ede" target="_top" xlink:title="Getter nilai is_wild. ">
<polygon fill="none" stroke="black" points="309,-513.5 309,-532.5 414,-532.5 414,-513.5 309,-513.5"/>
<text text-anchor="middle" x="361.5" y="-520.5" font-family="Helvetica,sans-Serif" font-size="10.00">Animal::GetBehavior</text>
</a>
</g>
</g>
<!-- Node33&#45;&gt;Node34 -->
<g id="edge5" class="edge"><title>Node33&#45;&gt;Node34</title>
<path fill="none" stroke="midnightblue" d="M258.056,-509.804C270.816,-511.447 284.933,-513.266 298.506,-515.014"/>
<polygon fill="midnightblue" stroke="midnightblue" points="298.381,-518.527 308.747,-516.333 299.276,-511.584 298.381,-518.527"/>
</g>
<!-- Node35 -->
<g id="node7" class="node"><title>Node35</title>
<g id="a_node7"><a xlink:href="class_animal.html#a72c2b5893bb874a791d3f9ac6caf2a0d" target="_top" xlink:title="Mengecek status Animal. Memeriksa apakah Animal dengan ID x merupakan musuh. ">
<polygon fill="none" stroke="black" points="316,-475.5 316,-494.5 407,-494.5 407,-475.5 316,-475.5"/>
<text text-anchor="middle" x="361.5" y="-482.5" font-family="Helvetica,sans-Serif" font-size="10.00">Animal::IsEnemy</text>
</a>
</g>
</g>
<!-- Node33&#45;&gt;Node35 -->
<g id="edge6" class="edge"><title>Node33&#45;&gt;Node35</title>
<path fill="none" stroke="midnightblue" d="M258.056,-498.196C273.137,-496.254 290.115,-494.067 305.847,-492.04"/>
<polygon fill="midnightblue" stroke="midnightblue" points="306.502,-495.485 315.973,-490.736 305.608,-488.542 306.502,-495.485"/>
</g>
<!-- Node43 -->
<g id="node15" class="node"><title>Node43</title>
<g id="a_node15"><a xlink:href="class_cell.html#a895618150a1046638c30f24c23807727" target="_top" xlink:title="Mengembalikan character untuk proses render. ">
<polygon fill="none" stroke="black" points="326.5,-190.5 326.5,-209.5 396.5,-209.5 396.5,-190.5 326.5,-190.5"/>
<text text-anchor="middle" x="361.5" y="-197.5" font-family="Helvetica,sans-Serif" font-size="10.00">Cell::Render</text>
</a>
</g>
</g>
<!-- Node42&#45;&gt;Node43 -->
<g id="edge14" class="edge"><title>Node42&#45;&gt;Node43</title>
<path fill="none" stroke="midnightblue" d="M246.839,-170.718C267.491,-176.038 294.118,-182.898 316.408,-188.641"/>
<polygon fill="midnightblue" stroke="midnightblue" points="315.75,-192.085 326.307,-191.191 317.497,-185.307 315.75,-192.085"/>
</g>
<!-- Node44 -->
<g id="node16" class="node"><title>Node44</title>
<g id="a_node16"><a xlink:href="class_point.html#a28eaaae3447a8d5485a690196eb6d8da" target="_top" xlink:title="Getter nilai ordinat. ">
<polygon fill="none" stroke="black" points="327.5,-76.5 327.5,-95.5 395.5,-95.5 395.5,-76.5 327.5,-76.5"/>
<text text-anchor="middle" x="361.5" y="-83.5" font-family="Helvetica,sans-Serif" font-size="10.00">Point::GetY</text>
</a>
</g>
</g>
<!-- Node42&#45;&gt;Node44 -->
<g id="edge15" class="edge"><title>Node42&#45;&gt;Node44</title>
<path fill="none" stroke="midnightblue" d="M246.7,-154.591C255.652,-151.769 265.036,-147.988 273,-143 292.717,-130.651 289.578,-117.806 309,-105 311.913,-103.079 315.046,-101.32 318.276,-99.7139"/>
<polygon fill="midnightblue" stroke="midnightblue" points="319.825,-102.856 327.537,-95.5908 316.978,-96.4607 319.825,-102.856"/>
</g>
<!-- Node45 -->
<g id="node17" class="node"><title>Node45</title>
<g id="a_node17"><a xlink:href="class_point.html#a1df5f9a8e3606705ebeec25384f58f8b" target="_top" xlink:title="Getter nilai absis. ">
<polygon fill="none" stroke="black" points="328.5,-114.5 328.5,-133.5 394.5,-133.5 394.5,-114.5 328.5,-114.5"/>
<text text-anchor="middle" x="361.5" y="-121.5" font-family="Helvetica,sans-Serif" font-size="10.00">Point::GetX</text>
</a>
</g>
</g>
<!-- Node42&#45;&gt;Node45 -->
<g id="edge16" class="edge"><title>Node42&#45;&gt;Node45</title>
<path fill="none" stroke="midnightblue" d="M246.839,-153.282C268.177,-147.785 295.893,-140.644 318.614,-134.791"/>
<polygon fill="midnightblue" stroke="midnightblue" points="319.525,-138.171 328.336,-132.286 317.779,-131.392 319.525,-138.171"/>
</g>
<!-- Node42&#45;&gt;Node46 -->
<g id="edge17" class="edge"><title>Node42&#45;&gt;Node46</title>
<path fill="none" stroke="midnightblue" d="M243.023,-171.571C252.941,-175.36 263.787,-180.208 273,-186 291.376,-197.552 290.47,-207.698 309,-219 312.198,-220.951 315.629,-222.751 319.145,-224.4"/>
<polygon fill="midnightblue" stroke="midnightblue" points="317.98,-227.708 328.551,-228.413 320.727,-221.269 317.98,-227.708"/>
</g>
<!-- Node47 -->
<g id="node19" class="node"><title>Node47</title>
<g id="a_node19"><a xlink:href="class_person.html#ae0eaa14a3a6e8008ccd681f237acd804" target="_top" xlink:title="Mengembalikan character untuk proses render. ">
<polygon fill="none" stroke="black" points="319.5,-152.5 319.5,-171.5 403.5,-171.5 403.5,-152.5 319.5,-152.5"/>
<text text-anchor="middle" x="361.5" y="-159.5" font-family="Helvetica,sans-Serif" font-size="10.00">Person::Render</text>
</a>
</g>
</g>
<!-- Node42&#45;&gt;Node47 -->
<g id="edge18" class="edge"><title>Node42&#45;&gt;Node47</title>
<path fill="none" stroke="midnightblue" d="M246.839,-162C265.321,-162 288.586,-162 309.247,-162"/>
<polygon fill="midnightblue" stroke="midnightblue" points="309.461,-165.5 319.46,-162 309.46,-158.5 309.461,-165.5"/>
</g>
<!-- Node50&#45;&gt;Node44 -->
<g id="edge24" class="edge"><title>Node50&#45;&gt;Node44</title>
<path fill="none" stroke="midnightblue" d="M250.22,-114.411C270.702,-109.134 296.213,-102.562 317.538,-97.0683"/>
<polygon fill="midnightblue" stroke="midnightblue" points="318.507,-100.433 327.318,-94.5487 316.761,-93.6542 318.507,-100.433"/>
</g>
<!-- Node50&#45;&gt;Node45 -->
<g id="edge26" class="edge"><title>Node50&#45;&gt;Node45</title>
<path fill="none" stroke="midnightblue" d="M250.22,-124C270.903,-124 296.713,-124 318.163,-124"/>
<polygon fill="midnightblue" stroke="midnightblue" points="318.301,-127.5 328.301,-124 318.301,-120.5 318.301,-127.5"/>
</g>
<!-- Node51 -->
<g id="node23" class="node"><title>Node51</title>
<g id="a_node23"><a xlink:href="class_point.html#a5f7931b69b7e2c34ec7dfab9ca82019c" target="_top" xlink:title="Menetapkan nilai ordinat Mengganti nilai ordinat menjadi _y. ">
<polygon fill="none" stroke="black" points="328,-38.5 328,-57.5 395,-57.5 395,-38.5 328,-38.5"/>
<text text-anchor="middle" x="361.5" y="-45.5" font-family="Helvetica,sans-Serif" font-size="10.00">Point::SetY</text>
</a>
</g>
</g>
<!-- Node50&#45;&gt;Node51 -->
<g id="edge23" class="edge"><title>Node50&#45;&gt;Node51</title>
<path fill="none" stroke="midnightblue" d="M250.153,-115.46C258.029,-112.782 266.055,-109.35 273,-105 292.717,-92.6512 289.578,-79.8064 309,-67 311.954,-65.0524 315.134,-63.2701 318.413,-61.6461"/>
<polygon fill="midnightblue" stroke="midnightblue" points="320.083,-64.7342 327.808,-57.4828 317.247,-58.3344 320.083,-64.7342"/>
</g>
<!-- Node52 -->
<g id="node24" class="node"><title>Node52</title>
<g id="a_node24"><a xlink:href="class_point.html#a919355c70ffb8d6a97fabfbff301d541" target="_top" xlink:title="Menetapkan nilai absis Mengganti nilai absis menjadi _x. ">
<polygon fill="none" stroke="black" points="329,-0.5 329,-19.5 394,-19.5 394,-0.5 329,-0.5"/>
<text text-anchor="middle" x="361.5" y="-7.5" font-family="Helvetica,sans-Serif" font-size="10.00">Point::SetX</text>
</a>
</g>
</g>
<!-- Node50&#45;&gt;Node52 -->
<g id="edge25" class="edge"><title>Node50&#45;&gt;Node52</title>
<path fill="none" stroke="midnightblue" d="M250.058,-117.451C258.293,-114.658 266.497,-110.676 273,-105 301.16,-80.424 281.423,-54.2276 309,-29 312.164,-26.1054 315.807,-23.6413 319.663,-21.5458"/>
<polygon fill="midnightblue" stroke="midnightblue" points="321.293,-24.649 328.921,-17.2963 318.373,-18.2871 321.293,-24.649"/>
</g>
<!-- Node53&#45;&gt;Node41 -->
<g id="edge28" class="edge"><title>Node53&#45;&gt;Node41</title>
<path fill="none" stroke="midnightblue" d="M250.22,-247.589C269.509,-252.558 293.258,-258.677 313.771,-263.961"/>
<polygon fill="midnightblue" stroke="midnightblue" points="312.99,-267.374 323.547,-266.48 314.737,-260.596 312.99,-267.374"/>
</g>
</g>
</svg>
