<?xml version="1.0" encoding="UTF-8" standalone="no"?>
<!DOCTYPE svg PUBLIC "-//W3C//DTD SVG 1.1//EN"
 "http://www.w3.org/Graphics/SVG/1.1/DTD/svg11.dtd">
<!-- Generated by graphviz version 2.38.0 (20140413.2041)
 -->
<!-- Title: Animal::Move Pages: 1 -->
<svg width="187pt" height="142pt"
 viewBox="0.00 0.00 187.00 142.00" xmlns="http://www.w3.org/2000/svg" xmlns:xlink="http://www.w3.org/1999/xlink">
<g id="graph0" class="graph" transform="scale(1 1) rotate(0) translate(4 138)">
<title>Animal::Move</title>
<!-- Node48 -->
<g id="node1" class="node"><title>Node48</title>
<polygon fill="#bfbfbf" stroke="black" points="0,-57.5 0,-76.5 75,-76.5 75,-57.5 0,-57.5"/>
<text text-anchor="middle" x="37.5" y="-64.5" font-family="Helvetica,sans-Serif" font-size="10.00">Animal::Move</text>
</g>
<!-- Node49 -->
<g id="node2" class="node"><title>Node49</title>
<g id="a_node2"><a xlink:href="class_point.html#a5f7931b69b7e2c34ec7dfab9ca82019c" target="_top" xlink:title="Menetapkan nilai ordinat Mengganti nilai ordinat menjadi _y. ">
<polygon fill="none" stroke="black" points="111.5,-114.5 111.5,-133.5 178.5,-133.5 178.5,-114.5 111.5,-114.5"/>
<text text-anchor="middle" x="145" y="-121.5" font-family="Helvetica,sans-Serif" font-size="10.00">Point::SetY</text>
</a>
</g>
</g>
<!-- Node48&#45;&gt;Node49 -->
<g id="edge1" class="edge"><title>Node48&#45;&gt;Node49</title>
<path fill="none" stroke="midnightblue" d="M56.3966,-76.6693C73.1697,-85.7315 98.4525,-99.3914 117.552,-109.711"/>
<polygon fill="midnightblue" stroke="midnightblue" points="115.906,-112.799 126.368,-114.474 119.233,-106.641 115.906,-112.799"/>
</g>
<!-- Node50 -->
<g id="node3" class="node"><title>Node50</title>
<g id="a_node3"><a xlink:href="class_point.html#a28eaaae3447a8d5485a690196eb6d8da" target="_top" xlink:title="Getter nilai ordinat. ">
<polygon fill="none" stroke="black" points="111,-76.5 111,-95.5 179,-95.5 179,-76.5 111,-76.5"/>
<text text-anchor="middle" x="145" y="-83.5" font-family="Helvetica,sans-Serif" font-size="10.00">Point::GetY</text>
</a>
</g>
</g>
<!-- Node48&#45;&gt;Node50 -->
<g id="edge2" class="edge"><title>Node48&#45;&gt;Node50</title>
<path fill="none" stroke="midnightblue" d="M75.1027,-73.592C83.4867,-75.1019 92.4729,-76.7202 101.095,-78.2731"/>
<polygon fill="midnightblue" stroke="midnightblue" points="100.53,-81.7275 110.992,-80.0555 101.771,-74.8384 100.53,-81.7275"/>
</g>
<!-- Node51 -->
<g id="node4" class="node"><title>Node51</title>
<g id="a_node4"><a xlink:href="class_point.html#a919355c70ffb8d6a97fabfbff301d541" target="_top" xlink:title="Menetapkan nilai absis Mengganti nilai absis menjadi _x. ">
<polygon fill="none" stroke="black" points="112.5,-38.5 112.5,-57.5 177.5,-57.5 177.5,-38.5 112.5,-38.5"/>
<text text-anchor="middle" x="145" y="-45.5" font-family="Helvetica,sans-Serif" font-size="10.00">Point::SetX</text>
</a>
</g>
</g>
<!-- Node48&#45;&gt;Node51 -->
<g id="edge3" class="edge"><title>Node48&#45;&gt;Node51</title>
<path fill="none" stroke="midnightblue" d="M75.1027,-60.408C83.9237,-58.8194 93.4114,-57.1107 102.441,-55.4846"/>
<polygon fill="midnightblue" stroke="midnightblue" points="103.159,-58.9117 112.38,-53.6946 101.918,-52.0225 103.159,-58.9117"/>
</g>
<!-- Node52 -->
<g id="node5" class="node"><title>Node52</title>
<g id="a_node5"><a xlink:href="class_point.html#a1df5f9a8e3606705ebeec25384f58f8b" target="_top" xlink:title="Getter nilai absis. ">
<polygon fill="none" stroke="black" points="112,-0.5 112,-19.5 178,-19.5 178,-0.5 112,-0.5"/>
<text text-anchor="middle" x="145" y="-7.5" font-family="Helvetica,sans-Serif" font-size="10.00">Point::GetX</text>
</a>
</g>
</g>
<!-- Node48&#45;&gt;Node52 -->
<g id="edge4" class="edge"><title>Node48&#45;&gt;Node52</title>
<path fill="none" stroke="midnightblue" d="M56.3966,-57.3307C73.1697,-48.2685 98.4525,-34.6086 117.552,-24.2892"/>
<polygon fill="midnightblue" stroke="midnightblue" points="119.233,-27.3593 126.368,-19.5265 115.906,-21.2006 119.233,-27.3593"/>
</g>
</g>
</svg>
