<?xml version="1.0" encoding="UTF-8" standalone="no"?>
<!DOCTYPE svg PUBLIC "-//W3C//DTD SVG 1.1//EN"
 "http://www.w3.org/Graphics/SVG/1.1/DTD/svg11.dtd">
<!-- Generated by graphviz version 2.38.0 (20140413.2041)
 -->
<!-- Title: Point::SetX Pages: 1 -->
<svg width="471pt" height="180pt"
 viewBox="0.00 0.00 471.00 180.00" xmlns="http://www.w3.org/2000/svg" xmlns:xlink="http://www.w3.org/1999/xlink">
<g id="graph0" class="graph" transform="scale(1 1) rotate(0) translate(4 176)">
<title>Point::SetX</title>
<!-- Node38 -->
<g id="node1" class="node"><title>Node38</title>
<polygon fill="#bfbfbf" stroke="black" points="0,-76.5 0,-95.5 65,-95.5 65,-76.5 0,-76.5"/>
<text text-anchor="middle" x="32.5" y="-83.5" font-family="Helvetica,sans-Serif" font-size="10.00">Point::SetX</text>
</g>
<!-- Node39 -->
<g id="node2" class="node"><title>Node39</title>
<g id="a_node2"><a xlink:href="class_animal.html#a6db5726b126b83735a60b404c1689c27" target="_top" xlink:title="Constructor Menciptakan Animal dengan ID sesuai spesies yang diinginkan, posisi (x,y) dan berat _weight. ">
<polygon fill="none" stroke="black" points="111.5,-152.5 111.5,-171.5 194.5,-171.5 194.5,-152.5 111.5,-152.5"/>
<text text-anchor="middle" x="153" y="-159.5" font-family="Helvetica,sans-Serif" font-size="10.00">Animal::Animal</text>
</a>
</g>
</g>
<!-- Node38&#45;&gt;Node39 -->
<g id="edge1" class="edge"><title>Node38&#45;&gt;Node39</title>
<path fill="none" stroke="midnightblue" d="M49.9801,-102.76C62.9329,-115.191 81.9191,-131.847 101,-143 107.2,-146.624 114.213,-149.77 121.011,-152.404"/>
<polygon fill="midnightblue" stroke="midnightblue" points="52.3336,-100.166 42.7478,-95.6528 47.4272,-105.158 52.3336,-100.166"/>
</g>
<!-- Node40 -->
<g id="node3" class="node"><title>Node40</title>
<g id="a_node3"><a xlink:href="class_animal.html#a01e450f2b24c367f1d9087450dea6860" target="_top" xlink:title="Menggerakkan animal dengan mengubah posisi. ">
<polygon fill="none" stroke="black" points="115.5,-114.5 115.5,-133.5 190.5,-133.5 190.5,-114.5 115.5,-114.5"/>
<text text-anchor="middle" x="153" y="-121.5" font-family="Helvetica,sans-Serif" font-size="10.00">Animal::Move</text>
</a>
</g>
</g>
<!-- Node38&#45;&gt;Node40 -->
<g id="edge2" class="edge"><title>Node38&#45;&gt;Node40</title>
<path fill="none" stroke="midnightblue" d="M73.0429,-98.6804C89.0542,-103.815 107.232,-109.644 122.107,-114.414"/>
<polygon fill="midnightblue" stroke="midnightblue" points="73.9937,-95.3098 63.4026,-95.589 71.8562,-101.975 73.9937,-95.3098"/>
</g>
<!-- Node41 -->
<g id="node4" class="node"><title>Node41</title>
<g id="a_node4"><a xlink:href="class_animal.html#a4b2dc6670754b42ae20f562a1567673e" target="_top" xlink:title="Menentukan lokasi Animal. Mengubah lokasi Animal menjadi di posisi (_x,_y). ">
<polygon fill="none" stroke="black" points="101,-76.5 101,-95.5 205,-95.5 205,-76.5 101,-76.5"/>
<text text-anchor="middle" x="153" y="-83.5" font-family="Helvetica,sans-Serif" font-size="10.00">Animal::SetLocation</text>
</a>
</g>
</g>
<!-- Node38&#45;&gt;Node41 -->
<g id="edge3" class="edge"><title>Node38&#45;&gt;Node41</title>
<path fill="none" stroke="midnightblue" d="M75.3979,-86C83.656,-86 92.4073,-86 100.929,-86"/>
<polygon fill="midnightblue" stroke="midnightblue" points="75.2559,-82.5001 65.2558,-86 75.2558,-89.5001 75.2559,-82.5001"/>
</g>
<!-- Node42 -->
<g id="node5" class="node"><title>Node42</title>
<g id="a_node5"><a xlink:href="class_person.html#a7c5cf07ba41864e8e82b361f8613d3ad" target="_top" xlink:title="Menetapkan nilai position berdasarkan x dan y. ">
<polygon fill="none" stroke="black" points="101,-38.5 101,-57.5 205,-57.5 205,-38.5 101,-38.5"/>
<text text-anchor="middle" x="153" y="-45.5" font-family="Helvetica,sans-Serif" font-size="10.00">Person::SetPosition</text>
</a>
</g>
</g>
<!-- Node38&#45;&gt;Node42 -->
<g id="edge4" class="edge"><title>Node38&#45;&gt;Node42</title>
<path fill="none" stroke="midnightblue" d="M73.0429,-73.3196C89.0542,-68.1852 107.232,-62.3559 122.107,-57.5859"/>
<polygon fill="midnightblue" stroke="midnightblue" points="71.8562,-70.0245 63.4026,-76.411 73.9937,-76.6902 71.8562,-70.0245"/>
</g>
<!-- Node43 -->
<g id="node6" class="node"><title>Node43</title>
<g id="a_node6"><a xlink:href="class_person.html#a0dcce299b3914e4b3af67a65d7837b0b" target="_top" xlink:title="Menggerakkan person dengan mengubah posisi. ">
<polygon fill="none" stroke="black" points="115,-0.5 115,-19.5 191,-19.5 191,-0.5 115,-0.5"/>
<text text-anchor="middle" x="153" y="-7.5" font-family="Helvetica,sans-Serif" font-size="10.00">Person::Move</text>
</a>
</g>
</g>
<!-- Node38&#45;&gt;Node43 -->
<g id="edge5" class="edge"><title>Node38&#45;&gt;Node43</title>
<path fill="none" stroke="midnightblue" d="M49.9801,-69.2401C62.9329,-56.8091 81.9191,-40.1527 101,-29 107.2,-25.3763 114.213,-22.2297 121.011,-19.5961"/>
<polygon fill="midnightblue" stroke="midnightblue" points="47.4272,-66.8417 42.7478,-76.3472 52.3336,-71.8345 47.4272,-66.8417"/>
</g>
<!-- Node44 -->
<g id="node7" class="node"><title>Node44</title>
<g id="a_node7"><a xlink:href="class_driver.html#ad9677d7807a61f0a169268f3a30b40fc" target="_top" xlink:title="Menghitung jumlah makanan yang dibutuhkan. Menghitung dan menampilkan jumlah makanan yang dikonsumsi ...">
<polygon fill="none" stroke="black" points="241,-0.5 241,-19.5 356,-19.5 356,-0.5 241,-0.5"/>
<text text-anchor="middle" x="298.5" y="-7.5" font-family="Helvetica,sans-Serif" font-size="10.00">Driver::ConsumedFood</text>
</a>
</g>
</g>
<!-- Node43&#45;&gt;Node44 -->
<g id="edge6" class="edge"><title>Node43&#45;&gt;Node44</title>
<path fill="none" stroke="midnightblue" d="M201.59,-10C214.169,-10 227.868,-10 240.874,-10"/>
<polygon fill="midnightblue" stroke="midnightblue" points="201.328,-6.5001 191.328,-10 201.328,-13.5001 201.328,-6.5001"/>
</g>
<!-- Node45 -->
<g id="node8" class="node"><title>Node45</title>
<g id="a_node8"><a xlink:href="class_driver.html#af0658d103e3e810a8e9ef0a53bb2e261" target="_top" xlink:title="Constructor Menciptakan driver yang berisi menu utama. ">
<polygon fill="none" stroke="black" points="392,-0.5 392,-19.5 463,-19.5 463,-0.5 392,-0.5"/>
<text text-anchor="middle" x="427.5" y="-7.5" font-family="Helvetica,sans-Serif" font-size="10.00">Driver::Driver</text>
</a>
</g>
</g>
<!-- Node44&#45;&gt;Node45 -->
<g id="edge7" class="edge"><title>Node44&#45;&gt;Node45</title>
<path fill="none" stroke="midnightblue" d="M366.319,-10C375.182,-10 383.958,-10 391.954,-10"/>
<polygon fill="midnightblue" stroke="midnightblue" points="366.314,-6.5001 356.314,-10 366.314,-13.5001 366.314,-6.5001"/>
</g>
</g>
</svg>
