<?xml version="1.0" encoding="UTF-8" standalone="no"?>
<!DOCTYPE svg PUBLIC "-//W3C//DTD SVG 1.1//EN"
 "http://www.w3.org/Graphics/SVG/1.1/DTD/svg11.dtd">
<!-- Generated by graphviz version 2.38.0 (20140413.2041)
 -->
<!-- Title: Point::SetY Pages: 1 -->
<svg width="473pt" height="180pt"
 viewBox="0.00 0.00 473.00 180.00" xmlns="http://www.w3.org/2000/svg" xmlns:xlink="http://www.w3.org/1999/xlink">
<g id="graph0" class="graph" transform="scale(1 1) rotate(0) translate(4 176)">
<title>Point::SetY</title>
<!-- Node47 -->
<g id="node1" class="node"><title>Node47</title>
<polygon fill="#bfbfbf" stroke="black" points="0,-76.5 0,-95.5 67,-95.5 67,-76.5 0,-76.5"/>
<text text-anchor="middle" x="33.5" y="-83.5" font-family="Helvetica,sans-Serif" font-size="10.00">Point::SetY</text>
</g>
<!-- Node48 -->
<g id="node2" class="node"><title>Node48</title>
<g id="a_node2"><a xlink:href="class_animal.html#a6db5726b126b83735a60b404c1689c27" target="_top" xlink:title="Constructor Menciptakan Animal dengan ID sesuai spesies yang diinginkan, posisi (x,y) dan berat _weight. ">
<polygon fill="none" stroke="black" points="113.5,-152.5 113.5,-171.5 196.5,-171.5 196.5,-152.5 113.5,-152.5"/>
<text text-anchor="middle" x="155" y="-159.5" font-family="Helvetica,sans-Serif" font-size="10.00">Animal::Animal</text>
</a>
</g>
</g>
<!-- Node47&#45;&gt;Node48 -->
<g id="edge1" class="edge"><title>Node47&#45;&gt;Node48</title>
<path fill="none" stroke="midnightblue" d="M51.2681,-102.744C64.4359,-115.167 83.713,-131.82 103,-143 109.294,-146.649 116.416,-149.821 123.298,-152.474"/>
<polygon fill="midnightblue" stroke="midnightblue" points="53.5383,-100.071 43.9133,-95.6428 48.676,-105.107 53.5383,-100.071"/>
</g>
<!-- Node49 -->
<g id="node3" class="node"><title>Node49</title>
<g id="a_node3"><a xlink:href="class_animal.html#a01e450f2b24c367f1d9087450dea6860" target="_top" xlink:title="Menggerakkan animal dengan mengubah posisi. ">
<polygon fill="none" stroke="black" points="117.5,-114.5 117.5,-133.5 192.5,-133.5 192.5,-114.5 117.5,-114.5"/>
<text text-anchor="middle" x="155" y="-121.5" font-family="Helvetica,sans-Serif" font-size="10.00">Animal::Move</text>
</a>
</g>
</g>
<!-- Node47&#45;&gt;Node49 -->
<g id="edge2" class="edge"><title>Node47&#45;&gt;Node49</title>
<path fill="none" stroke="midnightblue" d="M74.3766,-98.6804C90.523,-103.815 108.854,-109.644 123.855,-114.414"/>
<polygon fill="midnightblue" stroke="midnightblue" points="75.2453,-95.284 64.6549,-95.589 73.124,-101.955 75.2453,-95.284"/>
</g>
<!-- Node50 -->
<g id="node4" class="node"><title>Node50</title>
<g id="a_node4"><a xlink:href="class_animal.html#a4b2dc6670754b42ae20f562a1567673e" target="_top" xlink:title="Menentukan lokasi Animal. Mengubah lokasi Animal menjadi di posisi (_x,_y). ">
<polygon fill="none" stroke="black" points="103,-76.5 103,-95.5 207,-95.5 207,-76.5 103,-76.5"/>
<text text-anchor="middle" x="155" y="-83.5" font-family="Helvetica,sans-Serif" font-size="10.00">Animal::SetLocation</text>
</a>
</g>
</g>
<!-- Node47&#45;&gt;Node50 -->
<g id="edge3" class="edge"><title>Node47&#45;&gt;Node50</title>
<path fill="none" stroke="midnightblue" d="M77.3627,-86C85.6649,-86 94.4411,-86 102.975,-86"/>
<polygon fill="midnightblue" stroke="midnightblue" points="77.1539,-82.5001 67.1539,-86 77.1539,-89.5001 77.1539,-82.5001"/>
</g>
<!-- Node51 -->
<g id="node5" class="node"><title>Node51</title>
<g id="a_node5"><a xlink:href="class_person.html#a7c5cf07ba41864e8e82b361f8613d3ad" target="_top" xlink:title="Menetapkan nilai position berdasarkan x dan y. ">
<polygon fill="none" stroke="black" points="103,-38.5 103,-57.5 207,-57.5 207,-38.5 103,-38.5"/>
<text text-anchor="middle" x="155" y="-45.5" font-family="Helvetica,sans-Serif" font-size="10.00">Person::SetPosition</text>
</a>
</g>
</g>
<!-- Node47&#45;&gt;Node51 -->
<g id="edge4" class="edge"><title>Node47&#45;&gt;Node51</title>
<path fill="none" stroke="midnightblue" d="M74.3766,-73.3196C90.523,-68.1852 108.854,-62.3559 123.855,-57.5859"/>
<polygon fill="midnightblue" stroke="midnightblue" points="73.124,-70.0451 64.6549,-76.411 75.2453,-76.716 73.124,-70.0451"/>
</g>
<!-- Node52 -->
<g id="node6" class="node"><title>Node52</title>
<g id="a_node6"><a xlink:href="class_person.html#a0dcce299b3914e4b3af67a65d7837b0b" target="_top" xlink:title="Menggerakkan person dengan mengubah posisi. ">
<polygon fill="none" stroke="black" points="117,-0.5 117,-19.5 193,-19.5 193,-0.5 117,-0.5"/>
<text text-anchor="middle" x="155" y="-7.5" font-family="Helvetica,sans-Serif" font-size="10.00">Person::Move</text>
</a>
</g>
</g>
<!-- Node47&#45;&gt;Node52 -->
<g id="edge5" class="edge"><title>Node47&#45;&gt;Node52</title>
<path fill="none" stroke="midnightblue" d="M51.2681,-69.2556C64.4359,-56.8327 83.713,-40.1797 103,-29 109.294,-25.3514 116.416,-22.1788 123.298,-19.5258"/>
<polygon fill="midnightblue" stroke="midnightblue" points="48.676,-66.8932 43.9133,-76.3572 53.5383,-71.9289 48.676,-66.8932"/>
</g>
<!-- Node53 -->
<g id="node7" class="node"><title>Node53</title>
<g id="a_node7"><a xlink:href="class_driver.html#ad9677d7807a61f0a169268f3a30b40fc" target="_top" xlink:title="Menghitung jumlah makanan yang dibutuhkan. Menghitung dan menampilkan jumlah makanan yang dikonsumsi ...">
<polygon fill="none" stroke="black" points="243,-0.5 243,-19.5 358,-19.5 358,-0.5 243,-0.5"/>
<text text-anchor="middle" x="300.5" y="-7.5" font-family="Helvetica,sans-Serif" font-size="10.00">Driver::ConsumedFood</text>
</a>
</g>
</g>
<!-- Node52&#45;&gt;Node53 -->
<g id="edge6" class="edge"><title>Node52&#45;&gt;Node53</title>
<path fill="none" stroke="midnightblue" d="M203.59,-10C216.169,-10 229.868,-10 242.874,-10"/>
<polygon fill="midnightblue" stroke="midnightblue" points="203.328,-6.5001 193.328,-10 203.328,-13.5001 203.328,-6.5001"/>
</g>
<!-- Node54 -->
<g id="node8" class="node"><title>Node54</title>
<g id="a_node8"><a xlink:href="class_driver.html#af0658d103e3e810a8e9ef0a53bb2e261" target="_top" xlink:title="Constructor Menciptakan driver yang berisi menu utama. ">
<polygon fill="none" stroke="black" points="394,-0.5 394,-19.5 465,-19.5 465,-0.5 394,-0.5"/>
<text text-anchor="middle" x="429.5" y="-7.5" font-family="Helvetica,sans-Serif" font-size="10.00">Driver::Driver</text>
</a>
</g>
</g>
<!-- Node53&#45;&gt;Node54 -->
<g id="edge7" class="edge"><title>Node53&#45;&gt;Node54</title>
<path fill="none" stroke="midnightblue" d="M368.319,-10C377.182,-10 385.958,-10 393.954,-10"/>
<polygon fill="midnightblue" stroke="midnightblue" points="368.314,-6.5001 358.314,-10 368.314,-13.5001 368.314,-6.5001"/>
</g>
</g>
</svg>
